<svg width="19" height="18" viewBox="0 0 19 18" fill="none" xmlns="http://www.w3.org/2000/svg">
<g clip-path="url(#clip0_3475_63561)">
<path d="M0.5 7.65157H1.55469V8.70625H0.5V7.65157ZM1.71096 2.81006H2.76564V3.86475H1.71096V2.81006Z" fill="#404040"/>
<path d="M3.78823 3.86478H4.61637C5.00264 3.86478 5.34151 4.18396 5.34151 4.54783C5.34151 4.92446 5.03512 5.23085 4.65849 5.23085H0.5V6.28553H7.07925C7.45588 6.28553 7.7623 6.59196 7.7623 6.96859C7.7623 7.34521 7.45588 7.65164 7.07925 7.65164H2.59021V8.70632H3.4481C3.82473 8.70632 4.13115 9.01275 4.13115 9.38937C4.13115 9.766 3.82473 10.0724 3.4481 10.0724H0.5V13.5478H2.04132C2.08273 12.1395 3.24039 11.0065 4.65849 11.0065C6.07659 11.0065 7.23425 12.1396 7.27566 13.5478H11.7243C11.7468 12.7847 12.0969 12.1027 12.639 11.6378V2.81006H3.78823V3.86478ZM14.3415 12.0612C13.4789 12.0612 12.7771 12.763 12.7771 13.6256C12.7771 14.4883 13.4789 15.1901 14.3415 15.1901C15.2041 15.1901 15.906 14.4883 15.906 13.6256C15.906 12.763 15.2041 12.0612 14.3415 12.0612ZM14.8689 14.153H13.8142V13.0983H14.8689V14.153ZM15.8341 4.02045H13.6936V7.6516H18.2549L15.8341 4.02045Z" fill="#404040"/>
<path d="M13.6934 8.70605V11.0875C13.9051 11.0335 14.1227 11.0062 14.3412 11.0063C15.7593 11.0063 16.917 12.1394 16.9584 13.5476H18.4997V8.70605H13.6934ZM4.6582 12.0609C3.79557 12.0609 3.09375 12.7628 3.09375 13.6254C3.09375 14.488 3.79557 15.1899 4.6582 15.1899C5.52083 15.1899 6.22266 14.488 6.22266 13.6254C6.22266 12.7628 5.52083 12.0609 4.6582 12.0609ZM5.18555 14.1527H4.13086V13.0981H5.18555V14.1527Z" fill="#404040"/>
</g>
<defs>
<clipPath id="clip0_3475_63561">
<rect width="18" height="18" fill="white" transform="translate(0.5)"/>
</clipPath>
</defs>
</svg>
