<svg width="56" height="56" viewBox="0 0 56 56" fill="none" xmlns="http://www.w3.org/2000/svg">
<g clip-path="url(#clip0_3469_63911)">
<path d="M39.9406 25.4389C45.12 25.4389 49.3188 21.2402 49.3188 16.0608C49.3188 10.8814 45.12 6.68262 39.9406 6.68262C34.7612 6.68262 30.5625 10.8814 30.5625 16.0608C30.5625 21.2402 34.7612 25.4389 39.9406 25.4389Z" fill="white"/>
<path d="M39.9401 25.5287C38.0672 25.5302 36.236 24.9762 34.678 23.9368C33.1201 22.8973 31.9054 21.4192 31.1877 19.6893C30.4699 17.9594 30.2814 16.0556 30.6459 14.2185C31.0103 12.3815 31.9115 10.6938 33.2352 9.36894C34.559 8.04411 36.246 7.14165 38.0828 6.77573C39.9195 6.40981 41.8236 6.59687 43.554 7.31324C45.2844 8.02961 46.7635 9.24311 47.8042 10.8002C48.8449 12.3574 49.4003 14.1881 49.4003 16.061C49.3964 18.5695 48.3986 20.9742 46.6256 22.7487C44.8525 24.5232 42.4485 25.5228 39.9401 25.5287ZM39.9401 6.77246C38.1008 6.77099 36.3025 7.31512 34.7727 8.33601C33.2428 9.3569 32.0501 10.8087 31.3456 12.5076C30.6411 14.2065 30.4564 16.0762 30.8148 17.8802C31.1733 19.6841 32.0588 21.3412 33.3593 22.6417C34.6598 23.9422 36.3169 24.8278 38.1209 25.1862C39.9248 25.5447 41.7945 25.3599 43.4935 24.6554C45.1924 23.9509 46.6441 22.7582 47.665 21.2284C48.6859 19.6985 49.2301 17.9002 49.2286 16.061C49.2246 13.5987 48.2448 11.2385 46.5037 9.49737C44.7626 7.75629 42.4023 6.77641 39.9401 6.77246Z" fill="#020302"/>
<path d="M49.3192 16.061C49.321 18.191 48.5984 20.2583 47.2699 21.9232C45.9414 23.5881 44.0861 24.7516 42.0088 25.2226C39.9315 25.6935 37.7558 25.4439 35.8392 24.5147C33.9226 23.5855 32.379 22.0321 31.4621 20.1095C30.5452 18.187 30.3095 16.0097 30.7937 13.9355C31.278 11.8613 32.4533 10.0135 34.1267 8.69567C35.8001 7.37785 37.872 6.66841 40.0019 6.68392C42.1318 6.69943 44.1931 7.43896 45.8472 8.781L44.4434 10.1847L50.8498 11.9021L49.1325 5.49567L47.6392 6.989C45.564 5.2258 42.9487 4.22445 40.2266 4.15085C37.5045 4.07725 34.8389 4.93581 32.6715 6.5843C30.5041 8.23279 28.9649 10.5723 28.3089 13.2152C27.6529 15.8581 27.9195 18.6458 29.0645 21.1164C30.2094 23.5871 32.1641 25.5925 34.6047 26.8003C37.0453 28.0082 39.8252 28.346 42.4841 27.7578C45.1429 27.1697 47.521 25.6908 49.2244 23.5663C50.9278 21.4417 51.8543 18.799 51.8504 16.0759L49.3192 16.061Z" fill="#FDBA40"/>
<path d="M39.9407 28.0822C38.0073 28.0849 36.1017 27.6213 34.3856 26.7306C32.6696 25.8399 31.1937 24.5484 30.0832 22.9657C28.9726 21.383 28.2602 19.5558 28.0064 17.6391C27.7526 15.7224 27.9648 13.7728 28.6251 11.9555C29.2853 10.1383 30.3742 8.50721 31.7992 7.20053C33.2243 5.89384 34.9435 4.95015 36.811 4.44953C38.6785 3.9489 40.6392 3.9061 42.5268 4.32477C44.4143 4.74343 46.1731 5.61121 47.6538 6.85447L49.0724 5.43581C49.0849 5.4286 49.0991 5.4248 49.1135 5.4248C49.1279 5.4248 49.1421 5.4286 49.1546 5.43581C49.169 5.43942 49.1822 5.44688 49.1927 5.4574C49.2032 5.46792 49.2107 5.48111 49.2143 5.49554L50.9316 11.9019C50.9367 11.9165 50.9376 11.9322 50.9341 11.9473C50.9307 11.9623 50.923 11.9761 50.9121 11.987C50.9012 11.9979 50.8875 12.0055 50.8724 12.0089C50.8574 12.0124 50.8417 12.0115 50.8271 12.0065L44.4207 10.2891C44.4063 10.2855 44.3931 10.2781 44.3826 10.2675C44.3721 10.257 44.3646 10.2438 44.361 10.2294C44.3538 10.2169 44.35 10.2028 44.35 10.1883C44.35 10.1739 44.3538 10.1598 44.361 10.1473L45.6975 8.81074C44.0592 7.49608 42.0189 6.78434 39.9183 6.79474C38.0791 6.7977 36.2821 7.34618 34.7547 8.37075C33.2273 9.39533 32.0382 10.85 31.3378 12.5506C30.6374 14.2512 30.4571 16.1214 30.8199 17.9244C31.1827 19.7275 32.0723 21.3825 33.3759 22.6798C34.6795 23.9772 36.3388 24.8587 38.1436 25.2128C39.9484 25.5669 41.8176 25.3777 43.5149 24.6691C45.2121 23.9605 46.661 22.7643 47.6782 21.232C48.6954 19.6997 49.2352 17.9001 49.2292 16.0609C49.2292 16.0494 49.2315 16.0381 49.2361 16.0276C49.2407 16.0171 49.2474 16.0077 49.2559 16C49.2643 15.9923 49.2743 15.9864 49.2851 15.9827C49.296 15.9791 49.3075 15.9777 49.3188 15.9787H51.8724C51.8838 15.9777 51.8953 15.9791 51.9062 15.9827C51.917 15.9864 51.927 15.9923 51.9354 16C51.9438 16.0077 51.9506 16.0171 51.9552 16.0276C51.9597 16.0381 51.9621 16.0494 51.962 16.0609C51.9581 19.2479 50.6903 22.3033 48.4367 24.5569C46.1831 26.8105 43.1278 28.0783 39.9407 28.0822ZM39.9407 4.18887C37.5991 4.18746 35.3095 4.87941 33.3607 6.17747C31.4118 7.47552 29.8909 9.32156 28.9897 11.4828C28.0886 13.6441 27.8475 16.0237 28.297 18.3218C28.7464 20.6199 29.8663 22.7334 31.5152 24.3959C33.1642 26.0584 35.2686 27.1954 37.5629 27.6636C39.8572 28.1318 42.2387 27.9101 44.4073 27.0267C46.5758 26.1432 48.4342 24.6374 49.7481 22.6992C51.062 20.7609 51.7726 18.4771 51.7903 16.1355H49.401C49.3877 18.0055 48.821 19.8296 47.7723 21.3779C46.7236 22.9261 45.2399 24.1292 43.5083 24.8352C41.7768 25.5413 39.8749 25.7188 38.0426 25.3453C36.2103 24.9719 34.5296 24.0641 33.2125 22.7367C31.8954 21.4092 31.001 19.7214 30.6419 17.8862C30.2829 16.0511 30.4753 14.1506 31.195 12.4247C31.9146 10.6987 33.1293 9.22452 34.6857 8.18803C36.2422 7.15154 38.0707 6.59918 39.9407 6.60061C42.1172 6.58752 44.2299 7.3349 45.914 8.71367C45.9193 8.72409 45.922 8.7356 45.922 8.74727C45.922 8.75894 45.9193 8.77045 45.914 8.78087C45.9193 8.78995 45.922 8.80025 45.922 8.81074C45.922 8.82123 45.9193 8.83153 45.914 8.84061L44.6148 10.1398L50.7375 11.7825L49.0948 5.65981L47.721 7.03367C47.7046 7.04837 47.6833 7.05649 47.6612 7.05649C47.6392 7.05649 47.6179 7.04837 47.6015 7.03367C45.4642 5.21282 42.7485 4.2123 39.9407 4.21127V4.18887Z" fill="black"/>
<path d="M43.9171 16.4863H39.5117V8.10871C39.5117 7.99583 39.5566 7.88758 39.6364 7.80776C39.7162 7.72795 39.8244 7.68311 39.9373 7.68311C40.0496 7.68503 40.1567 7.73048 40.2361 7.80988C40.3155 7.88929 40.361 7.99643 40.3629 8.10871V15.6351H43.9171C44.0293 15.637 44.1365 15.6825 44.2159 15.7619C44.2953 15.8413 44.3407 15.9484 44.3427 16.0607C44.3427 16.1736 44.2978 16.2818 44.218 16.3617C44.1382 16.4415 44.0299 16.4863 43.9171 16.4863Z" fill="#7500FD"/>
<path d="M39.9388 17.1286C40.5285 17.1286 41.0066 16.6506 41.0066 16.0609C41.0066 15.4712 40.5285 14.9932 39.9388 14.9932C39.3491 14.9932 38.8711 15.4712 38.8711 16.0609C38.8711 16.6506 39.3491 17.1286 39.9388 17.1286Z" fill="black"/>
<path d="M33.1891 16.2697H31.8376C31.7802 16.2697 31.7251 16.2469 31.6845 16.2063C31.6439 16.1657 31.6211 16.1106 31.6211 16.0532C31.6211 16.0251 31.6267 15.9973 31.6377 15.9714C31.6487 15.9455 31.6647 15.9221 31.6849 15.9026C31.7052 15.8831 31.7291 15.8679 31.7553 15.8578C31.7816 15.8478 31.8096 15.8431 31.8376 15.8441H33.1891C33.2445 15.8441 33.2977 15.8661 33.3369 15.9053C33.3761 15.9445 33.3982 15.9977 33.3982 16.0532C33.3982 16.1093 33.3764 16.1633 33.3374 16.2037C33.2984 16.2441 33.2452 16.2678 33.1891 16.2697ZM48.0328 16.2697H46.6888C46.6314 16.2697 46.5763 16.2469 46.5357 16.2063C46.4951 16.1657 46.4723 16.1106 46.4723 16.0532C46.4723 16.0251 46.4779 15.9973 46.4889 15.9714C46.4999 15.9455 46.5159 15.9221 46.5361 15.9026C46.5564 15.8831 46.5803 15.8679 46.6065 15.8578C46.6328 15.8478 46.6608 15.8431 46.6888 15.8441H48.0328C48.0609 15.8431 48.0889 15.8478 48.1151 15.8578C48.1414 15.8679 48.1653 15.8831 48.1855 15.9026C48.2057 15.9221 48.2218 15.9455 48.2328 15.9714C48.2437 15.9973 48.2494 16.0251 48.2494 16.0532C48.2494 16.1106 48.2266 16.1657 48.1859 16.2063C48.1453 16.2469 48.0903 16.2697 48.0328 16.2697ZM39.939 24.3636C39.9109 24.3646 39.8829 24.3599 39.8567 24.3498C39.8304 24.3398 39.8065 24.3245 39.7863 24.305C39.7661 24.2855 39.75 24.2621 39.739 24.2363C39.7281 24.2104 39.7224 24.1826 39.7224 24.1545V22.803C39.7318 22.7534 39.7581 22.7086 39.797 22.6764C39.8359 22.6442 39.8847 22.6265 39.9352 22.6265C39.9857 22.6265 40.0346 22.6442 40.0735 22.6764C40.1123 22.7086 40.1387 22.7534 40.148 22.803V24.1545C40.148 24.2099 40.126 24.2631 40.0868 24.3023C40.0476 24.3415 39.9944 24.3636 39.939 24.3636ZM43.9859 23.2809C43.9485 23.2804 43.9119 23.2706 43.8793 23.2523C43.8467 23.2341 43.8192 23.208 43.7992 23.1764L43.1272 22.0041C43.0996 21.9553 43.0919 21.8977 43.1058 21.8434C43.1197 21.7891 43.1542 21.7423 43.2019 21.7129C43.2262 21.6985 43.2533 21.6892 43.2813 21.6855C43.3094 21.6819 43.3379 21.6839 43.3651 21.6916C43.3923 21.6993 43.4177 21.7124 43.4397 21.7302C43.4617 21.748 43.4799 21.77 43.4931 21.795L44.1726 22.9598C44.187 22.9842 44.1963 23.0112 44.1999 23.0392C44.2036 23.0673 44.2015 23.0958 44.1938 23.123C44.1861 23.1502 44.173 23.1756 44.1553 23.1976C44.1375 23.2196 44.1154 23.2378 44.0904 23.251C44.0597 23.272 44.0231 23.2825 43.9859 23.2809ZM36.5864 10.4532C36.5479 10.4543 36.5098 10.4444 36.4767 10.4245C36.4436 10.4047 36.4169 10.3757 36.3998 10.3412L35.7278 9.17635C35.7131 9.15246 35.7033 9.12585 35.6991 9.09812C35.6949 9.07039 35.6964 9.04209 35.7033 9.01492C35.7103 8.98775 35.7227 8.96226 35.7397 8.93996C35.7567 8.91767 35.7781 8.89903 35.8024 8.88515C35.8512 8.85748 35.9088 8.84979 35.9631 8.86372C36.0174 8.87765 36.0642 8.9121 36.0936 8.95982L36.7656 10.1321C36.7803 10.156 36.7901 10.1826 36.7942 10.2103C36.7984 10.2381 36.797 10.2664 36.7901 10.2935C36.7831 10.3207 36.7707 10.3462 36.7537 10.3685C36.7367 10.3908 36.7153 10.4094 36.691 10.4233C36.6595 10.4426 36.6234 10.453 36.5864 10.4532ZM46.9502 20.3166C46.9162 20.3275 46.8796 20.3275 46.8456 20.3166L45.6734 19.6446C45.6288 19.6136 45.5975 19.5669 45.5857 19.5139C45.574 19.4608 45.5826 19.4053 45.6098 19.3583C45.6371 19.3113 45.681 19.2763 45.7329 19.2602C45.7848 19.244 45.8408 19.248 45.8899 19.2713L47.0547 19.9508C47.0976 19.9723 47.1319 20.0079 47.1517 20.0517C47.1714 20.0954 47.1755 20.1447 47.1633 20.1911C47.151 20.2375 47.1231 20.2783 47.0843 20.3066C47.0455 20.3349 46.9981 20.349 46.9502 20.3465V20.3166ZM34.0926 12.8948C34.0555 12.9015 34.0176 12.9015 33.9806 12.8948L32.8531 12.1854C32.8291 12.1717 32.808 12.1534 32.791 12.1315C32.7741 12.1096 32.7616 12.0846 32.7544 12.0579C32.7471 12.0312 32.7451 12.0034 32.7486 11.9759C32.7521 11.9485 32.761 11.922 32.7747 11.898C32.7884 11.8739 32.8067 11.8528 32.8286 11.8359C32.8505 11.819 32.8755 11.8065 32.9022 11.7992C32.9289 11.7919 32.9568 11.79 32.9842 11.7935C33.0116 11.797 33.0381 11.8058 33.0622 11.8196L34.2344 12.4916C34.2588 12.5054 34.2801 12.5241 34.2972 12.5464C34.3142 12.5687 34.3266 12.5941 34.3335 12.6213C34.3405 12.6485 34.3419 12.6768 34.3377 12.7045C34.3335 12.7323 34.3238 12.7589 34.3091 12.7828C34.2912 12.8234 34.26 12.8566 34.2206 12.877C34.1812 12.8974 34.136 12.9036 34.0926 12.8948ZM45.7854 12.8948C45.7468 12.8959 45.7087 12.886 45.6756 12.8661C45.6425 12.8463 45.6158 12.8173 45.5987 12.7828C45.571 12.734 45.5633 12.6764 45.5773 12.6221C45.5912 12.5678 45.6256 12.521 45.6734 12.4916L46.8456 11.8196C46.8944 11.7919 46.952 11.7842 47.0063 11.7981C47.0606 11.812 47.1074 11.8465 47.1368 11.8942C47.1512 11.9186 47.1605 11.9456 47.1642 11.9736C47.1678 12.0017 47.1658 12.0302 47.1581 12.0574C47.1504 12.0846 47.1373 12.11 47.1195 12.132C47.1017 12.154 47.0797 12.1722 47.0547 12.1854L45.8899 12.8649C45.857 12.8807 45.8217 12.8908 45.7854 12.8948ZM32.9203 20.3166C32.8829 20.3161 32.8463 20.3063 32.8137 20.2881C32.7811 20.2698 32.7536 20.2437 32.7336 20.2121C32.7066 20.1624 32.7 20.1042 32.7154 20.0498C32.7307 19.9953 32.7668 19.9491 32.8158 19.9209L33.9806 19.2414C34.0296 19.2181 34.0857 19.2142 34.1376 19.2303C34.1895 19.2464 34.2334 19.2814 34.2606 19.3284C34.2879 19.3754 34.2965 19.431 34.2847 19.484C34.273 19.537 34.2417 19.5837 34.1971 19.6148L33.0248 20.2868C32.9941 20.3078 32.9575 20.3182 32.9203 20.3166ZM43.3064 10.4532C43.2698 10.4633 43.2311 10.4633 43.1944 10.4532C43.1467 10.4237 43.1123 10.3769 43.0983 10.3226C43.0844 10.2683 43.0921 10.2107 43.1198 10.162L43.7918 8.98969C43.8212 8.94196 43.868 8.90751 43.9223 8.89359C43.9766 8.87966 44.0342 8.88734 44.083 8.91502C44.108 8.92826 44.13 8.94642 44.1478 8.96843C44.1656 8.99043 44.1787 9.01582 44.1864 9.04304C44.194 9.07026 44.1961 9.09876 44.1925 9.12681C44.1888 9.15486 44.1795 9.18187 44.1651 9.20622L43.4856 10.371C43.4653 10.3989 43.4381 10.4211 43.4068 10.4355C43.3754 10.4499 43.3408 10.4559 43.3064 10.4532ZM35.8846 23.2809C35.8506 23.2918 35.814 23.2918 35.78 23.2809C35.7557 23.267 35.7343 23.2484 35.7173 23.2261C35.7003 23.2038 35.6879 23.1783 35.6809 23.1511C35.674 23.124 35.6725 23.0957 35.6767 23.0679C35.6809 23.0402 35.6907 23.0136 35.7054 22.9897L36.3774 21.8249C36.3911 21.8009 36.4094 21.7798 36.4313 21.7628C36.4532 21.7459 36.4782 21.7334 36.5049 21.7262C36.5316 21.7189 36.5594 21.7169 36.5869 21.7204C36.6143 21.7239 36.6408 21.7328 36.6648 21.7465C36.6889 21.7602 36.7099 21.7785 36.7269 21.8004C36.7438 21.8223 36.7563 21.8473 36.7636 21.874C36.7708 21.9007 36.7728 21.9285 36.7693 21.956C36.7658 21.9834 36.757 22.0099 36.7432 22.034L36.0712 23.1465C36.0559 23.1842 36.0302 23.2168 35.9972 23.2405C35.9642 23.2643 35.9252 23.2783 35.8846 23.2809Z" fill="#020302"/>
<path d="M32.107 30.8447C31.7934 30.3145 31.9278 30.0606 31.7112 29.7321C31.4947 29.4036 31.3304 29.3662 30.3896 29.5604C30.0161 29.6309 29.6666 29.7954 29.3742 30.0382C29.3742 30.0382 29.7326 29.0825 30.3523 28.9033C30.972 28.7241 31.8456 28.1566 31.7112 27.5892C31.6366 27.2457 30.7406 27.7758 30.3523 27.9326C29.3494 28.4039 28.5286 29.1907 28.0152 30.1726C27.5598 30.979 28.0152 32.786 27.2088 34.6526C25.9992 37.5348 22.4526 41.1262 20.5784 43.9785C19.6152 45.4718 22.0718 52.0948 24.2595 51.6393C27.1118 51.0495 28.2392 40.5364 29.3518 36.9076C29.9192 35.0633 30.5539 35.2873 30.8451 34.4361C31.0094 33.9433 30.7779 33.6894 30.9795 33.6894C31.2141 33.7136 31.451 33.6776 31.6679 33.5849C31.8847 33.4921 32.0744 33.3457 32.219 33.1593C32.3421 32.7892 32.3928 32.3988 32.3683 32.0094C32.3941 31.6042 32.3034 31.2 32.107 30.8447Z" fill="white"/>
<path d="M32.4262 31.7481C32.4449 31.414 32.3587 31.0825 32.1798 30.7998C32.0645 30.6022 31.9884 30.3841 31.9558 30.1577C31.9343 29.99 31.8756 29.8293 31.7841 29.6873C31.7299 29.5793 31.6449 29.4898 31.54 29.43C31.435 29.3702 31.3147 29.3428 31.1942 29.3513C30.9149 29.366 30.6375 29.4059 30.3654 29.4707C30.1024 29.5269 29.8503 29.6252 29.6187 29.7619C29.7684 29.4304 30.0339 29.1649 30.3654 29.0153C30.9105 28.8585 31.9259 28.2686 31.7841 27.5891C31.7715 27.5316 31.7374 27.4811 31.6889 27.4478C31.6403 27.4145 31.5809 27.401 31.5227 27.4099C31.2111 27.4599 30.9105 27.5635 30.6342 27.7161L30.3057 27.8654C29.2907 28.356 28.4551 29.1525 27.9163 30.1427C27.7166 30.6483 27.625 31.19 27.6475 31.7331C27.6431 32.7232 27.461 33.7045 27.1099 34.6302C26.3633 36.4073 24.7206 38.4606 23.1302 40.4467C22.1371 41.6862 21.1963 42.8585 20.487 43.9486C19.8673 44.8819 20.5691 47.6297 21.5846 49.5113C22.0401 50.355 22.9585 51.7513 24.0262 51.7513C24.1032 51.7586 24.1807 51.7586 24.2577 51.7513C26.4006 51.3107 27.5579 45.6286 28.4838 41.059C28.8273 39.3865 29.1259 37.9305 29.4246 36.9598C29.5762 36.3016 29.913 35.7005 30.3953 35.2275C30.6273 35.0292 30.8004 34.7709 30.8955 34.4809C30.9552 34.2826 30.973 34.0741 30.9478 33.8686C30.952 33.8489 30.952 33.8285 30.9478 33.8089H31.0598C31.2943 33.817 31.5272 33.7675 31.7381 33.6647C31.949 33.5618 32.1314 33.4088 32.2694 33.219C32.4033 32.8332 32.4567 32.4241 32.4262 32.0169C32.4262 31.9123 32.4262 31.8302 32.4262 31.7481ZM32.1051 33.1219C31.9558 33.4654 31.2689 33.6446 30.9627 33.5998C30.9362 33.5919 30.9079 33.5919 30.8814 33.5998C30.8548 33.6078 30.8312 33.6234 30.8134 33.6446C30.7686 33.6969 30.7761 33.7641 30.8134 33.8686C30.8356 34.0465 30.8204 34.2271 30.7686 34.3987C30.6797 34.6595 30.5224 34.8916 30.3131 35.0707C29.8081 35.5642 29.4534 36.1907 29.2902 36.8777C28.9915 37.8558 28.6929 39.3118 28.3569 40.9918C27.4534 45.2702 26.2587 51.1241 24.2353 51.5198C23.4886 51.6766 22.5702 50.8851 21.7563 49.3769C20.6587 47.3683 20.1585 44.7998 20.6513 44.0531C21.3606 42.9705 22.2939 41.8131 23.287 40.5737C24.8849 38.5726 26.535 36.5118 27.2891 34.7123C27.6537 33.7588 27.841 32.7466 27.8417 31.7257C27.8239 31.2165 27.9076 30.7088 28.0881 30.2323C28.6061 29.2807 29.4072 28.5136 30.3803 28.0371L30.7238 27.8803C30.9782 27.7413 31.2528 27.643 31.5377 27.5891C31.6123 27.5891 31.6198 27.5891 31.6198 27.6339C31.7243 28.1118 30.9254 28.6718 30.3281 28.8361C29.7307 29.0003 29.3051 29.9859 29.2902 30.0233L29.1558 30.3891L29.4321 30.1278C29.7123 29.897 30.0461 29.7404 30.4027 29.6723C30.6623 29.6096 30.9274 29.5721 31.1942 29.5603C31.284 29.5513 31.3745 29.5701 31.4533 29.6142C31.532 29.6582 31.5954 29.7255 31.6347 29.8067C31.7103 29.9294 31.7587 30.0669 31.7766 30.2099C31.8121 30.4588 31.8985 30.6978 32.0305 30.9118C32.1852 31.1704 32.2581 31.4697 32.2395 31.7705C32.2321 31.8599 32.2321 31.9498 32.2395 32.0393C32.2616 32.4053 32.216 32.7724 32.1051 33.1219Z" fill="black"/>
<path d="M38.2815 30.4567L36.7881 23.1916C36.7579 23.0163 36.6661 22.8575 36.5292 22.7439C36.3923 22.6303 36.2193 22.5693 36.0415 22.5719C35.002 22.6144 33.9679 22.7442 32.9503 22.9601C31.984 23.1544 31.037 23.4342 30.1204 23.7964C29.9464 23.85 29.798 23.9654 29.7032 24.1208C29.6083 24.2762 29.5734 24.4609 29.6052 24.6401L31.0985 31.9127C31.1288 32.088 31.2206 32.2467 31.3575 32.3603C31.4944 32.474 31.6673 32.535 31.8452 32.5324C32.8314 32.4929 33.8128 32.373 34.7796 32.174C35.7975 31.9655 36.7965 31.6733 37.7663 31.3004C37.9402 31.2467 38.0886 31.1314 38.1835 30.976C38.2784 30.8206 38.3132 30.6359 38.2815 30.4567ZM33.1593 24.1399C31.5092 24.4833 30.1727 24.5879 30.0905 24.3713C30.0084 24.1548 31.3449 23.7068 32.9951 23.3633C34.6452 23.0199 36.0191 22.9228 36.0639 23.1393C36.1087 23.3559 34.8095 23.8039 33.1593 24.1399Z" fill="#F26944"/>
<path d="M31.8668 32.6443C31.6708 32.6435 31.4809 32.5757 31.3288 32.4521C31.1767 32.3285 31.0714 32.1566 31.0305 31.9649L29.5372 24.6849C29.4965 24.4875 29.5266 24.282 29.6222 24.1046C29.7177 23.9271 29.8727 23.7889 30.0598 23.7142C30.9855 23.356 31.9396 23.0763 32.9121 22.8779C33.932 22.6603 34.9687 22.5304 36.0108 22.4897C36.2119 22.4835 36.4088 22.5482 36.5671 22.6723C36.7254 22.7965 36.835 22.9723 36.8769 23.1691L38.3702 30.4417C38.4109 30.6391 38.3808 30.8445 38.2853 31.0219C38.1897 31.1994 38.0348 31.3376 37.8476 31.4123C36.8771 31.7832 35.8783 32.0754 34.8609 32.2859C33.8899 32.4897 32.9032 32.6097 31.9116 32.6443H31.8668ZM36.0257 22.6614C34.9915 22.7028 33.9625 22.8302 32.9494 23.0422C31.9809 23.2437 31.0316 23.5285 30.1121 23.8934C29.9682 23.9522 29.8485 24.058 29.7726 24.1937C29.6966 24.3293 29.6689 24.4867 29.694 24.6401L31.1873 31.9201C31.2192 32.0787 31.3066 32.2208 31.4339 32.3207C31.5612 32.4206 31.72 32.4719 31.8817 32.4651C32.8612 32.4342 33.8359 32.3143 34.7937 32.1067C35.8129 31.907 36.8124 31.6171 37.7804 31.2406C37.9246 31.1828 38.0443 31.0768 38.1192 30.9407C38.1941 30.8045 38.2195 30.6467 38.191 30.4939L36.6977 23.2214C36.6696 23.0639 36.5867 22.9213 36.4638 22.8189C36.3409 22.7164 36.1857 22.6607 36.0257 22.6614ZM30.6124 24.5729C30.4366 24.5853 30.2604 24.5572 30.0972 24.4907C30.0794 24.4788 30.0643 24.4634 30.0528 24.4454C30.0412 24.4274 30.0335 24.4073 30.03 24.3862C29.9329 23.9307 32.6881 23.3483 33.0166 23.2811C33.3452 23.2139 36.0929 22.6614 36.1825 23.1169C36.1825 23.2363 36.1228 23.3931 35.3089 23.6694C34.622 23.898 33.9212 24.0825 33.2108 24.2219C32.3568 24.4161 31.4872 24.5335 30.6124 24.5729ZM30.2017 24.3563C31.2071 24.4335 32.2182 24.3324 33.1884 24.0577C34.162 23.9155 35.104 23.6074 35.9734 23.1467C34.9681 23.0695 33.957 23.1706 32.9868 23.4454C32.0036 23.577 31.0525 23.8856 30.1793 24.3563H30.2017Z" fill="#020302"/>
<path d="M31.0899 30.1579C30.6993 30.2867 30.2741 30.2599 29.9027 30.0832C29.5518 29.8443 29.4547 29.2171 29.3502 28.5899C29.3502 28.3733 29.283 28.1493 29.2382 27.9328C29.214 27.8444 29.2095 27.7518 29.225 27.6615C29.2405 27.5712 29.2756 27.4854 29.3278 27.4101C29.6693 27.0535 30.1224 26.8243 30.6121 26.7605C30.7345 26.742 30.8448 26.676 30.9189 26.5768C30.9929 26.4775 31.0249 26.3531 31.0078 26.2304C30.9987 26.17 30.9777 26.112 30.9461 26.0597C30.9145 26.0075 30.8728 25.962 30.8236 25.9259C30.7743 25.8898 30.7183 25.8638 30.659 25.8494C30.5996 25.8351 30.538 25.8326 30.4777 25.8421C29.7327 25.9355 29.0502 26.3061 28.5662 26.88C28.4403 27.0591 28.354 27.2628 28.3128 27.4778C28.2716 27.6927 28.2765 27.914 28.3273 28.1269C28.3646 28.3285 28.4019 28.5301 28.4318 28.7392C28.4336 29.1417 28.5181 29.5396 28.6799 29.9082C28.8417 30.2768 29.0775 30.6083 29.3726 30.8821C29.6576 31.0481 29.9737 31.1536 30.3013 31.1921C30.6288 31.2306 30.9608 31.2014 31.2766 31.1061C31.3414 31.0988 31.404 31.078 31.4604 31.0452C31.5168 31.0124 31.5657 30.9681 31.6041 30.9154C31.6425 30.8626 31.6695 30.8024 31.6833 30.7387C31.6972 30.6749 31.6976 30.609 31.6846 30.545C31.6716 30.4811 31.6455 30.4205 31.6078 30.3672C31.5702 30.314 31.5218 30.2691 31.4659 30.2355C31.41 30.2019 31.3477 30.1803 31.2829 30.1721C31.2182 30.1638 31.1525 30.1692 31.0899 30.1877V30.1579Z" fill="#F26944"/>
<path d="M30.4951 31.248C30.0816 31.2659 29.6734 31.1508 29.3303 30.9195C29.0281 30.6393 28.7873 30.2996 28.6228 29.9218C28.4583 29.5441 28.3738 29.1363 28.3745 28.7243C28.3745 28.5227 28.3073 28.3136 28.2625 28.112C28.2122 27.8868 28.2095 27.6537 28.2545 27.4274C28.2995 27.2011 28.3912 26.9867 28.5239 26.7979C29.0168 26.2258 29.702 25.854 30.4503 25.7526C30.5222 25.7412 30.5957 25.7447 30.6663 25.7626C30.7369 25.7806 30.8031 25.8127 30.8609 25.8571C30.9194 25.9008 30.9686 25.9556 31.0058 26.0184C31.0429 26.0812 31.0673 26.1507 31.0775 26.223C31.0914 26.2966 31.0903 26.3723 31.0745 26.4456C31.0586 26.5188 31.0281 26.5881 30.985 26.6494C30.9418 26.7107 30.8868 26.7627 30.8231 26.8023C30.7595 26.8419 30.6886 26.8683 30.6145 26.88C30.1651 26.9368 29.7473 27.1418 29.4273 27.4624C29.3796 27.5269 29.3473 27.6016 29.3331 27.6806C29.3188 27.7596 29.323 27.8408 29.3452 27.9179C29.39 28.127 29.4273 28.3435 29.4647 28.5824C29.5543 29.1872 29.6588 29.8219 29.9799 30.0758C30.3312 30.2404 30.7329 30.2619 31.0999 30.1355C31.2423 30.1067 31.3904 30.1352 31.512 30.2149C31.6336 30.2946 31.7189 30.419 31.7495 30.5611C31.7788 30.7049 31.7521 30.8545 31.6748 30.9792C31.6349 31.0402 31.5834 31.0927 31.5232 31.1337C31.463 31.1747 31.3952 31.2034 31.3239 31.2182C31.0493 31.2566 30.7716 31.2666 30.4951 31.248ZM30.4951 25.9168H30.4353C29.7383 26.0083 29.0985 26.3507 28.6359 26.88C28.5189 27.0505 28.4386 27.2433 28.4 27.4464C28.3615 27.6494 28.3655 27.8583 28.4119 28.0598C28.4492 28.2688 28.4865 28.4779 28.5164 28.6795C28.5197 29.0713 28.6022 29.4585 28.7587 29.8177C28.9152 30.1769 29.1426 30.5009 29.4273 30.7702C29.7025 30.9298 30.0078 31.0307 30.3239 31.0667C30.64 31.1027 30.9601 31.0729 31.2641 30.9792C31.3633 30.9557 31.4507 30.8974 31.5105 30.815C31.5515 30.7508 31.5728 30.676 31.5716 30.5998C31.5704 30.5237 31.5469 30.4496 31.5039 30.3867C31.4609 30.3239 31.4004 30.275 31.3299 30.2463C31.2594 30.2175 31.182 30.2102 31.1073 30.2251C30.7007 30.3617 30.2573 30.3377 29.8679 30.1579C29.4871 29.8891 29.3825 29.2544 29.278 28.575C29.2407 28.3435 29.2108 28.1344 29.166 27.9254C29.1417 27.8251 29.1385 27.721 29.1565 27.6195C29.1745 27.518 29.2133 27.4213 29.2705 27.3355C29.6183 26.9779 30.0756 26.7467 30.5697 26.6784C30.6193 26.6711 30.6669 26.6541 30.7098 26.6284C30.7528 26.6027 30.7903 26.5687 30.8201 26.5285C30.8499 26.4883 30.8715 26.4425 30.8836 26.394C30.8958 26.3454 30.8982 26.2949 30.8908 26.2454C30.8835 26.1964 30.8665 26.1495 30.8408 26.1072C30.8152 26.0649 30.7814 26.0281 30.7415 25.999C30.6771 25.944 30.5946 25.9147 30.51 25.9168H30.4951ZM32.9964 23.3632C31.3463 23.7067 30.0471 24.1547 30.0919 24.3712C30.1367 24.5878 31.5105 24.4832 33.1607 24.1398C34.8108 23.7963 36.1473 23.3483 36.0652 23.1392C35.9831 22.9302 34.6465 23.0272 32.9964 23.3632Z" fill="#020302"/>
<path d="M29.8665 28.1418C29.7097 28.2688 29.5903 28.993 29.4185 29.2842C29.2468 29.5754 28.6719 30.7776 28.6719 30.7776L29.6799 34.1152C31.2927 32.4202 29.874 31.233 30.6057 29.6352C30.9343 28.8288 30.322 27.7834 29.8665 28.1418Z" fill="white"/>
<path d="M30.3669 28.0973C30.2894 28.0295 30.1899 27.9922 30.0869 27.9922C29.9839 27.9922 29.8845 28.0295 29.8069 28.0973C29.7024 28.1719 29.6352 28.381 29.5381 28.717C29.4858 28.9038 29.4184 29.0861 29.3365 29.2621C29.1648 29.5533 28.5898 30.6807 28.5898 30.7554L28.7466 30.8301C28.7466 30.8301 29.329 29.6653 29.4933 29.3741C29.5842 29.1874 29.6567 28.9924 29.7098 28.7917C29.7494 28.6045 29.8201 28.4253 29.9189 28.2615C29.9633 28.2195 30.0221 28.1961 30.0832 28.1961C30.1443 28.1961 30.2031 28.2195 30.2474 28.2615C30.4156 28.4304 30.5302 28.6453 30.5767 28.8791C30.6232 29.1129 30.5996 29.3552 30.5088 29.5757C30.2655 30.1795 30.2032 30.8411 30.3296 31.4797C30.4411 31.9345 30.4308 32.4107 30.2997 32.8603C30.1686 33.3099 29.9214 33.7171 29.5829 34.0407L29.7173 34.1677C30.064 33.818 30.3149 33.385 30.4456 32.9103C30.5764 32.4355 30.5827 31.9351 30.464 31.4573C30.3421 30.8518 30.3992 30.2239 30.6282 29.6503C30.7481 29.3957 30.7873 29.1105 30.7406 28.8329C30.6939 28.5553 30.5635 28.2987 30.3669 28.0973Z" fill="black"/>
<path d="M16.889 28.2388C11.4533 28.2388 9.0341 29.4932 7.63783 31.5316C3.78503 37.139 5.7637 47.6521 5.74877 51.8708H27.2602C27.2538 45.4856 26.1709 39.1471 24.057 33.122C22.9296 29.8068 23.2133 28.2388 16.889 28.2388Z" fill="white"/>
<path d="M27.261 51.9606H5.7495C5.73018 51.9674 5.70909 51.9674 5.68977 51.9606C5.68516 51.9513 5.68277 51.9411 5.68277 51.9307C5.68277 51.9204 5.68516 51.9102 5.68977 51.9009C5.68977 50.9899 5.60764 49.7803 5.49564 48.3766C5.12977 43.4187 4.5623 35.9297 7.59377 31.5094C9.16924 29.1201 11.9468 28.1494 16.8898 28.1494C22.5868 28.1494 22.9975 29.4635 23.8114 32.0769C23.9084 32.3905 24.013 32.7339 24.1399 33.0923C26.2579 39.127 27.3434 45.4755 27.3506 51.871C27.3581 51.8902 27.3581 51.9115 27.3506 51.9307C27.3253 51.9512 27.2935 51.9618 27.261 51.9606ZM5.83164 51.7889H27.1788C27.1684 45.4308 26.0855 39.12 23.9756 33.1222C23.8562 32.7563 23.7516 32.4129 23.6471 32.0918C22.8332 29.4859 22.4599 28.2913 16.9271 28.2913C12.0588 28.2913 9.3111 29.2694 7.7431 31.5467C4.75644 35.9147 5.30897 43.3739 5.67484 48.3019C5.74204 49.6982 5.83164 50.8779 5.83164 51.7889Z" fill="#020302"/>
<path d="M17.4117 42.5598C17.5311 40.1406 16.7621 37.908 16.7098 35.4888C16.665 33.5326 16.553 31.8526 15.4181 30.2099C15.2189 29.8987 15.0863 29.5496 15.0285 29.1847C14.9707 28.8198 14.9889 28.4469 15.0821 28.0894C10.7813 28.4776 8.8698 29.7022 7.6154 31.5016C3.785 37.139 4.91247 47.652 4.89753 51.8707H18.7407C18.7407 46.868 17.2549 45.9944 17.4117 42.5598Z" fill="#FDBA40"/>
<path d="M18.7405 51.9606H4.89729C4.87796 51.9674 4.85688 51.9674 4.83756 51.9606C4.83006 51.9414 4.83006 51.9201 4.83756 51.9009C4.83756 51.2214 4.83756 50.4075 4.77782 49.3995C4.61356 44.4715 4.34476 36.2358 7.58529 31.4795C8.95916 29.4113 11.1992 28.3734 15.0744 28.0299C15.0862 28.025 15.0989 28.0225 15.1117 28.0225C15.1245 28.0225 15.1372 28.025 15.149 28.0299C15.1544 28.0416 15.1572 28.0544 15.1572 28.0673C15.1572 28.0801 15.1544 28.0929 15.149 28.1046C15.0556 28.4519 15.0366 28.815 15.0932 29.1701C15.1498 29.5252 15.2808 29.8644 15.4776 30.1654C16.6125 31.8081 16.732 33.4731 16.7768 35.4817C16.8379 36.557 16.9701 37.627 17.1725 38.6849C17.4126 39.9622 17.5227 41.2605 17.501 42.5601C17.451 43.8489 17.6331 45.1362 18.0386 46.3606C18.5797 48.1364 18.8441 49.9849 18.8226 51.8411C18.8295 51.8543 18.8326 51.8692 18.8317 51.884C18.8308 51.8989 18.8259 51.9132 18.8174 51.9255C18.809 51.9378 18.7974 51.9475 18.7838 51.9537C18.7703 51.9599 18.7553 51.9623 18.7405 51.9606ZM4.97942 51.7889H18.6658C18.6891 49.9768 18.4373 48.1718 17.9192 46.4353C17.489 45.19 17.2892 43.8769 17.3293 42.5601C17.3477 41.2625 17.2326 39.9664 16.9858 38.6923C16.7935 37.6365 16.6738 36.5688 16.6274 35.4966C16.5826 33.5105 16.4557 31.8678 15.3506 30.2699C15.1509 29.9673 15.0148 29.6273 14.9506 29.2704C14.8864 28.9136 14.8955 28.5474 14.9773 28.1942C11.244 28.5451 9.07862 29.5531 7.70476 31.5542C4.47916 36.2507 4.76289 44.4566 4.92716 49.3622C4.95702 50.303 4.97942 51.1169 4.97942 51.7889Z" fill="#020302"/>
<path d="M21.3639 28.6421C20.8146 28.4678 20.2563 28.3233 19.6914 28.209C19.6914 28.209 25.4557 36.3626 25.4557 51.8709H28.0018C27.3447 44.7775 26.9565 39.9242 24.709 33.2789C23.9623 31.0911 23.2306 29.4335 21.3639 28.6421Z" fill="#FDBA40"/>
<path d="M27.9989 51.9606H25.4528C25.429 51.9606 25.4063 51.9512 25.3895 51.9344C25.3726 51.9176 25.3632 51.8948 25.3632 51.871C25.3856 36.5868 19.6811 28.3734 19.6213 28.254C19.611 28.2399 19.6055 28.2229 19.6055 28.2054C19.6055 28.188 19.611 28.171 19.6213 28.1569C19.6311 28.1427 19.6448 28.1317 19.6606 28.1251C19.6765 28.1184 19.694 28.1165 19.7109 28.1196C20.2811 28.2383 20.8444 28.3878 21.3984 28.5676C23.3323 29.3889 24.0789 31.1734 24.7883 33.2492C26.9536 39.6182 27.3941 44.4044 28.0064 51.0348L28.0811 51.8636C28.0878 51.8735 28.0914 51.8852 28.0914 51.8972C28.0914 51.9092 28.0878 51.9209 28.0811 51.9308C28.0711 51.9424 28.0583 51.9512 28.0439 51.9564C28.0295 51.9616 28.014 51.9631 27.9989 51.9606ZM25.5349 51.7889H27.9019L27.8347 51.0422C27.2224 44.4268 26.7819 39.6481 24.624 33.3014C23.9296 31.263 23.2053 29.5084 21.3312 28.7169C20.8539 28.5707 20.3675 28.4559 19.8752 28.3734C20.6965 29.6129 25.52 37.7142 25.5349 51.7889Z" fill="#020302"/>
<path d="M18.8222 15.1873C17.06 15.8891 16.7091 19.2342 16.7091 19.2342C16.5152 19.1769 16.3105 19.1659 16.1115 19.2022C15.9126 19.2385 15.7249 19.3209 15.5636 19.443C15.4024 19.565 15.272 19.7232 15.1831 19.9048C15.0941 20.0864 15.0491 20.2864 15.0515 20.4886C15.0303 20.8636 15.0992 21.2383 15.2525 21.5813C15.4058 21.9242 15.639 22.2255 15.9326 22.4598C15.6019 24.3682 15.115 26.2461 14.4766 28.0747C14.9724 28.7506 15.6165 29.304 16.3595 29.6922C17.1024 30.0805 17.9244 30.2935 18.7624 30.3147C20.5395 30.3147 19.7331 28.2838 19.7331 28.2838C19.4488 27.5475 19.3513 26.7523 19.4494 25.9691C22.5854 26.559 24.019 23.1393 23.9294 21.6459C23.8519 20.6948 23.882 19.738 24.019 18.7937C24.2728 16.479 20.5918 14.4854 18.8222 15.1873Z" fill="white"/>
<path d="M19.6536 14.9332C19.3603 14.9263 19.0686 14.9771 18.7949 15.0826C17.1448 15.7322 16.7043 18.5322 16.6371 19.0996H16.3608C16.1746 19.0893 15.9883 19.1176 15.8135 19.1827C15.6388 19.2479 15.4794 19.3485 15.3455 19.4783C15.2115 19.608 15.1059 19.7641 15.0352 19.9366C14.9645 20.1092 14.9302 20.2945 14.9347 20.481C14.9096 20.8622 14.9758 21.244 15.1277 21.5946C15.2796 21.9452 15.5129 22.2545 15.8083 22.497C15.4749 24.3813 14.9931 26.2364 14.3672 28.0447V28.0895V28.1268C14.8708 28.8176 15.5253 29.3844 16.2809 29.7842C17.0365 30.184 17.8733 30.4063 18.7277 30.434C18.9293 30.4537 19.1325 30.4215 19.3181 30.3405C19.5036 30.2594 19.6654 30.1323 19.788 29.9711C19.9028 29.7007 19.962 29.4099 19.962 29.1162C19.962 28.8224 19.9028 28.5316 19.788 28.2612C19.5162 27.5739 19.4188 26.83 19.5043 26.0959C19.7217 26.1283 19.9416 26.1408 20.1613 26.1332C20.646 26.1313 21.1246 26.0257 21.565 25.8235C22.0054 25.6213 22.3975 25.3272 22.7149 24.961C23.5346 24.0523 23.9964 22.8769 24.0141 21.6532C23.9412 20.7974 23.9613 19.9362 24.0739 19.0847V18.8159C24.1047 18.4321 24.0542 18.0462 23.9255 17.6833C23.7968 17.3205 23.5929 16.9889 23.3272 16.7103C22.3833 15.6588 21.0639 15.0205 19.6536 14.9332ZM23.8947 18.801V19.0698C23.7797 19.9261 23.7597 20.7925 23.8349 21.6532C23.8147 22.8266 23.372 23.9533 22.588 24.8266C22.2881 25.1782 21.9163 25.4614 21.4977 25.6572C21.0791 25.853 20.6234 25.9568 20.1613 25.9615C19.9283 25.9608 19.6958 25.9383 19.4669 25.8943H19.3773V25.9914C19.2645 26.7959 19.3596 27.6159 19.6536 28.3732C19.6536 28.3732 20.0344 29.3588 19.6536 29.8666C19.5483 30.0022 19.4099 30.1085 19.2517 30.1752C19.0935 30.2419 18.9207 30.2668 18.7501 30.2474C17.9332 30.222 17.1327 30.012 16.4085 29.6331C15.6844 29.2542 15.0554 28.7163 14.5688 28.0596C15.1964 26.2391 15.6783 24.3715 16.0099 22.4746V22.3999H15.9651C15.6851 22.1725 15.4628 21.8822 15.3162 21.5526C15.1696 21.2231 15.1028 20.8636 15.1213 20.5034C15.1171 20.3431 15.1458 20.1837 15.2057 20.0349C15.2656 19.8862 15.3553 19.7513 15.4694 19.6386C15.5835 19.5259 15.7194 19.4379 15.8689 19.3798C16.0184 19.3218 16.1782 19.2951 16.3384 19.3012C16.4513 19.3026 16.5639 19.3151 16.6744 19.3386H16.7715V19.2415C16.7715 19.2415 17.1373 15.9487 18.8323 15.2767C19.0853 15.1824 19.3538 15.1368 19.6237 15.1423C20.9838 15.2215 22.2579 15.8331 23.1704 16.8447C23.4232 17.1006 23.6185 17.4074 23.7434 17.7448C23.8683 18.0821 23.9199 18.4422 23.8947 18.801Z" fill="black"/>
<path d="M20.8255 18.3604C20.1507 18.4101 19.5229 18.724 19.0783 19.234C19.0685 19.243 19.0608 19.254 19.0555 19.2662C19.0502 19.2784 19.0474 19.2916 19.0474 19.3049C19.0474 19.3182 19.0502 19.3313 19.0555 19.3436C19.0608 19.3558 19.0685 19.3667 19.0783 19.3758C19.0875 19.3804 19.0978 19.3828 19.1081 19.3828C19.1185 19.3828 19.1287 19.3804 19.138 19.3758C19.1645 19.3855 19.1936 19.3855 19.2201 19.3758C19.6333 18.9128 20.2073 18.6244 20.8255 18.5694C20.841 18.5737 20.8573 18.5743 20.873 18.5712C20.8888 18.5682 20.9037 18.5615 20.9165 18.5517C20.9293 18.542 20.9397 18.5294 20.9468 18.515C20.954 18.5006 20.9577 18.4847 20.9577 18.4686C20.9577 18.4525 20.954 18.4367 20.9468 18.4222C20.9397 18.4078 20.9293 18.3952 20.9165 18.3855C20.9037 18.3757 20.8888 18.3691 20.873 18.366C20.8573 18.3629 20.841 18.3636 20.8255 18.3678V18.3604ZM23.5284 19.9582C23.0586 19.8719 22.6189 19.6662 22.2516 19.3609C22.2323 19.343 22.2069 19.3331 22.1807 19.3331C22.1544 19.3331 22.129 19.343 22.1097 19.3609C22.0914 19.3814 22.0812 19.408 22.0812 19.4356C22.0812 19.4631 22.0914 19.4897 22.1097 19.5102C22.5078 19.8386 22.9834 20.0597 23.4911 20.1524C23.5151 20.1509 23.5378 20.1412 23.5555 20.1248C23.5732 20.1085 23.5847 20.0866 23.5881 20.0628C23.5914 20.0411 23.5873 20.0191 23.5764 20.0001C23.5656 19.9811 23.5487 19.9664 23.5284 19.9582ZM22.0873 21.8174C21.9007 21.8174 21.6991 21.8772 21.4751 22.1161C21.4572 22.1354 21.4473 22.1607 21.4473 22.187C21.4473 22.2133 21.4572 22.2386 21.4751 22.258C21.4966 22.2667 21.5207 22.2667 21.5423 22.258C21.5541 22.2629 21.5668 22.2654 21.5796 22.2654C21.5924 22.2654 21.6051 22.2629 21.6169 22.258C21.7887 22.0788 21.9305 21.9966 22.0425 22.019C22.0837 22.0347 22.1206 22.0597 22.1504 22.0921C22.1802 22.1245 22.2021 22.1634 22.2143 22.2057C22.2184 22.2181 22.2251 22.2296 22.2338 22.2394C22.2425 22.2492 22.2531 22.2571 22.265 22.2627C22.2768 22.2683 22.2897 22.2714 22.3028 22.2718C22.3159 22.2723 22.329 22.2701 22.3412 22.2654C22.3543 22.2621 22.3665 22.256 22.3772 22.2476C22.3878 22.2393 22.3965 22.2288 22.4029 22.2168C22.4092 22.2049 22.4129 22.1917 22.4139 22.1782C22.4148 22.1647 22.413 22.1512 22.4084 22.1385C22.3825 22.0643 22.3401 21.9969 22.2845 21.9413C22.2289 21.8857 22.1615 21.8433 22.0873 21.8174ZM19.8175 19.7865C19.7834 19.7974 19.7519 19.8151 19.7248 19.8384C19.6976 19.8617 19.6754 19.8901 19.6594 19.9221C19.6434 19.9541 19.634 19.989 19.6316 20.0247C19.6293 20.0603 19.6341 20.0961 19.6457 20.13C19.6602 20.1616 19.6808 20.19 19.7063 20.2135C19.7319 20.2371 19.7619 20.2553 19.7945 20.2671C19.8272 20.2789 19.8619 20.2841 19.8966 20.2824C19.9313 20.2806 19.9653 20.2719 19.9967 20.2569C20.0307 20.2459 20.0622 20.2283 20.0893 20.205C20.1165 20.1817 20.1387 20.1532 20.1547 20.1212C20.1707 20.0892 20.1801 20.0544 20.1825 20.0187C20.1848 19.983 20.18 19.9472 20.1684 19.9134C20.1539 19.8818 20.1333 19.8534 20.1078 19.8299C20.0822 19.8063 20.0522 19.7881 20.0196 19.7763C19.9869 19.7644 19.9522 19.7593 19.9175 19.761C19.8828 19.7628 19.8488 19.7714 19.8175 19.7865ZM22.8788 20.3689C22.8447 20.3798 22.8132 20.3975 22.7861 20.4208C22.759 20.4441 22.7367 20.4725 22.7208 20.5045C22.7048 20.5365 22.6953 20.5714 22.693 20.6071C22.6906 20.6427 22.6954 20.6785 22.7071 20.7124C22.7215 20.744 22.7421 20.7724 22.7676 20.7959C22.7932 20.8195 22.8232 20.8377 22.8559 20.8495C22.8885 20.8613 22.9232 20.8665 22.958 20.8648C22.9927 20.863 23.0267 20.8543 23.058 20.8393C23.092 20.8283 23.1235 20.8107 23.1507 20.7874C23.1778 20.7641 23.2 20.7356 23.216 20.7036C23.232 20.6716 23.2415 20.6368 23.2438 20.6011C23.2462 20.5654 23.2414 20.5296 23.2297 20.4958C23.2153 20.4642 23.1947 20.4358 23.1691 20.4122C23.1436 20.3887 23.1136 20.3705 23.0809 20.3587C23.0482 20.3468 23.0135 20.3417 22.9788 20.3434C22.9441 20.3452 22.9101 20.3538 22.8788 20.3689ZM20.8553 23.1465C20.2729 23.475 19.7055 22.5716 19.7055 22.5641C19.6914 22.5405 19.6687 22.5233 19.6422 22.5164C19.6156 22.5094 19.5874 22.5131 19.5636 22.5268C19.5457 22.5461 19.5358 22.5714 19.5358 22.5977C19.5358 22.624 19.5457 22.6493 19.5636 22.6686C19.5636 22.706 20.034 23.4153 20.6164 23.4153C20.7453 23.4126 20.8714 23.3766 20.9823 23.3108C21.0039 23.2969 21.0197 23.2755 21.0266 23.2507C21.0335 23.2259 21.031 23.1994 21.0196 23.1764C21.0123 23.1619 21.0018 23.1493 20.9888 23.1396C20.9759 23.1299 20.9608 23.1234 20.9449 23.1205C20.929 23.1176 20.9126 23.1184 20.897 23.1229C20.8815 23.1274 20.8672 23.1355 20.8553 23.1465ZM15.8676 19.7716C15.7482 19.8488 15.6479 19.9521 15.5742 20.0736C15.5005 20.1952 15.4553 20.3319 15.442 20.4734C15.4393 20.4998 15.4461 20.5264 15.4611 20.5482C15.4762 20.5701 15.4985 20.5859 15.5241 20.5929C15.548 20.5922 15.5711 20.5838 15.5899 20.569C15.6087 20.5542 15.6223 20.5338 15.6287 20.5108C15.6371 20.4013 15.6695 20.295 15.7238 20.1995C15.778 20.104 15.8526 20.0216 15.9423 19.9582C16.0248 19.9229 16.1138 19.9047 16.2036 19.9047C16.2934 19.9047 16.3823 19.9229 16.4649 19.9582C16.4889 19.969 16.516 19.9704 16.5409 19.9621C16.5658 19.9538 16.5866 19.9364 16.5993 19.9134C16.6099 19.8875 16.6104 19.8586 16.6007 19.8323C16.5911 19.8061 16.5719 19.7844 16.5471 19.7716C16.44 19.7245 16.3243 19.7001 16.2073 19.7001C16.0903 19.7001 15.9747 19.7245 15.8676 19.7716Z" fill="black"/>
<path d="M15.6815 20.2346C15.6681 20.2325 15.6545 20.2332 15.6415 20.2366C15.6284 20.2401 15.6162 20.2462 15.6057 20.2547C15.5951 20.2631 15.5865 20.2736 15.5802 20.2856C15.574 20.2976 15.5703 20.3107 15.5695 20.3242C15.5662 20.3365 15.5655 20.3494 15.5676 20.3619C15.5697 20.3745 15.5744 20.3865 15.5815 20.3971C15.5885 20.4077 15.5978 20.4166 15.6086 20.4234C15.6194 20.4301 15.6315 20.4345 15.6441 20.4362C16.2041 20.5407 16.2639 20.9365 16.2639 20.9589C16.2673 20.9827 16.2788 21.0046 16.2964 21.0209C16.3141 21.0373 16.3369 21.047 16.3609 21.0485C16.3752 21.0444 16.3884 21.0373 16.3998 21.0277C16.4111 21.0181 16.4202 21.0061 16.4266 20.9927C16.433 20.9793 16.4364 20.9647 16.4366 20.9498C16.4369 20.935 16.434 20.9202 16.4281 20.9066C16.387 20.7318 16.2934 20.5738 16.1599 20.4538C16.0265 20.3337 15.8596 20.2572 15.6815 20.2346Z" fill="black"/>
<path d="M19.6077 12.6933C18.9453 12.6254 18.2779 12.7613 17.6948 13.0829C17.1118 13.4045 16.6407 13.8963 16.3447 14.4928C12.4396 12.8576 11.8647 19.824 10.8716 21.6459C9.68445 23.8112 8.98258 26.8725 6.05565 27.8507C3.12871 28.8288 4.56232 30.4491 4.56232 30.4491C3.06898 32.5099 6.17512 34.608 6.17512 34.608C6.17512 34.608 7.36232 31.5093 8.96018 30.2474C10.2241 29.215 11.8082 28.6553 13.4402 28.6645C15.0306 28.6645 14.4407 35.0784 16.5463 35.0784C16.9733 35.0626 17.3792 34.8889 17.6855 34.591C17.9917 34.293 18.1765 33.892 18.2039 33.4656C18.2039 33.4656 20.9069 31.9125 18.1143 29.12C14.605 25.6256 16.9794 22.5792 16.0311 22.4C15.598 22.3179 15.2844 21.4891 15.1351 21.0635C14.8364 19.8613 15.6802 19.1595 16.8749 19.3387C19.2418 19.7045 19.4658 15.7323 19.4658 15.7323C22.8333 16.3744 23.9458 20.1451 23.9458 20.1451C25.7901 17.1733 23.8189 12.9845 19.6077 12.6933Z" fill="#020302"/>
<path d="M16.5684 35.1606C15.3737 35.1606 15.0153 33.3313 14.6718 31.5542C14.3956 30.1131 14.1342 28.7542 13.4622 28.7542C11.8314 28.7285 10.2441 29.2814 8.98222 30.3147C7.46648 31.5467 6.22702 34.5782 6.21208 34.6081C6.20759 34.62 6.20061 34.6308 6.19159 34.6398C6.18258 34.6489 6.17175 34.6558 6.15982 34.6603C6.1481 34.6657 6.13537 34.6685 6.12248 34.6685C6.1096 34.6685 6.09686 34.6657 6.08515 34.6603C6.01795 34.6155 4.33795 33.4582 4.07662 31.9947C3.97781 31.4506 4.09862 30.8895 4.41262 30.4342C4.28489 30.2645 4.19485 30.0694 4.14849 29.8621C4.10214 29.6548 4.10055 29.44 4.14382 29.2321C4.30808 28.6198 4.94275 28.127 6.02542 27.7387C8.26542 26.9921 9.18382 25.0059 10.0574 23.1019C10.3038 22.5569 10.5353 22.0491 10.8041 21.5713C11.1177 20.907 11.3677 20.2144 11.5508 19.503C12.1182 17.5243 12.8276 15.0678 14.3508 14.3361C14.6644 14.1958 15.004 14.1233 15.3476 14.1233C15.6911 14.1233 16.0308 14.1958 16.3444 14.3361C16.658 13.7463 17.14 13.2631 17.729 12.948C18.318 12.6329 18.9874 12.5001 19.6521 12.5665C20.6012 12.6128 21.5218 12.9057 22.3232 13.4163C23.1245 13.927 23.7789 14.6377 24.2217 15.4785C24.5954 16.2107 24.7713 17.0279 24.732 17.849C24.6927 18.6702 24.4396 19.4668 23.9977 20.1601C23.9899 20.1744 23.9777 20.1858 23.9629 20.1925C23.9481 20.1993 23.9314 20.201 23.9156 20.1974C23.8998 20.1951 23.885 20.1882 23.8731 20.1775C23.8611 20.1669 23.8525 20.1531 23.8484 20.1377C23.8484 20.1377 22.7433 16.4865 19.5476 15.807C19.5028 16.2699 19.2862 18.1963 18.2558 19.0326C18.0643 19.1898 17.8409 19.3033 17.601 19.3652C17.3611 19.4271 17.1106 19.4359 16.867 19.391C16.6174 19.3351 16.3579 19.3406 16.1108 19.4069C15.8638 19.4732 15.6364 19.5984 15.4484 19.7718C15.3083 19.9421 15.2143 20.1454 15.175 20.3624C15.1358 20.5793 15.1528 20.8027 15.2244 21.0113C15.3438 21.5041 15.6948 22.2209 16.0457 22.2881C16.3966 22.3553 16.3817 22.8033 16.2996 23.4155C16.0896 24.4347 16.1524 25.4913 16.4815 26.4785C16.8105 27.4656 17.3942 28.3485 18.1737 29.0379C19.1444 30.0011 19.5774 30.927 19.4654 31.7931C19.4013 32.1427 19.2653 32.4752 19.0661 32.7695C18.8669 33.0638 18.6088 33.3136 18.3081 33.503C18.2749 33.9457 18.0786 34.3604 17.7572 34.6666C17.4358 34.9729 17.0122 35.1489 16.5684 35.1606ZM13.4398 28.5825C14.2537 28.5825 14.53 30.0086 14.8212 31.5243C15.1124 33.0401 15.4932 34.9889 16.546 34.9889C16.9463 34.9774 17.3283 34.8187 17.619 34.5432C17.9096 34.2677 18.0885 33.8947 18.1214 33.4955C18.1217 33.4812 18.126 33.4673 18.1339 33.4554C18.1419 33.4434 18.1531 33.4341 18.1662 33.4283C18.4505 33.2506 18.6952 33.0165 18.8853 32.7403C19.0754 32.4642 19.2068 32.152 19.2713 31.823C19.3758 31.0091 18.9577 30.1281 18.0318 29.2097C17.2379 28.4988 16.6428 27.5934 16.305 26.5827C15.9673 25.572 15.8985 24.4908 16.1054 23.4454C16.1876 22.8406 16.2174 22.5494 15.9934 22.5121C15.4708 22.4075 15.1124 21.4369 15.0302 21.1083C14.9541 20.8705 14.9388 20.6175 14.9858 20.3722C15.0327 20.127 15.1404 19.8975 15.299 19.7046C15.5046 19.5092 15.7555 19.368 16.0292 19.2937C16.303 19.2194 16.5909 19.2143 16.867 19.279C17.0869 19.3194 17.3129 19.3116 17.5295 19.2562C17.746 19.2007 17.948 19.099 18.1214 18.9579C19.2414 18.0321 19.4132 15.7398 19.4132 15.7174C19.4105 15.7051 19.4105 15.6924 19.4132 15.6801C19.4237 15.6753 19.4352 15.6729 19.4468 15.6729C19.4583 15.6729 19.4698 15.6753 19.4804 15.6801C22.467 16.2401 23.6766 19.2118 23.9604 19.9734C24.3382 19.3119 24.5443 18.5662 24.56 17.8045C24.5756 17.0429 24.4003 16.2894 24.05 15.6129C23.619 14.8003 22.9843 14.1136 22.2081 13.6202C21.4319 13.1267 20.5409 12.8434 19.6222 12.7979C18.9801 12.7191 18.3292 12.8394 17.7577 13.1426C17.1861 13.4457 16.7214 13.9171 16.4265 14.4929C16.4224 14.5035 16.4162 14.5131 16.4083 14.5211C16.4003 14.5292 16.3908 14.5356 16.3803 14.5398C16.3698 14.544 16.3585 14.546 16.3472 14.5456C16.3358 14.5452 16.3247 14.5425 16.3145 14.5377C16.016 14.3862 15.6873 14.3035 15.3526 14.2958C15.018 14.288 14.6858 14.3554 14.3806 14.4929C12.9321 15.1873 12.2377 17.6065 11.6777 19.5478C11.4945 20.2713 11.2446 20.9762 10.931 21.6534C10.6697 22.1238 10.4382 22.6315 10.1844 23.1467C9.34062 24.9985 8.38488 27.0891 6.05528 27.8806C5.03235 28.2315 4.43502 28.687 4.28568 29.2395C4.24811 29.4315 4.25338 29.6295 4.30114 29.8192C4.3489 30.009 4.43795 30.1858 4.56195 30.3371C4.57467 30.353 4.58161 30.3728 4.58161 30.3931C4.58161 30.4135 4.57467 30.4332 4.56195 30.4491C4.40185 30.6594 4.28786 30.9011 4.22739 31.1584C4.16693 31.4157 4.16135 31.6829 4.21102 31.9425C4.53432 32.9603 5.18877 33.8408 6.07022 34.4438C6.29422 33.8987 7.42915 31.3227 8.86275 30.1803C10.1528 29.1256 11.7736 28.5597 13.4398 28.5825Z" fill="#020302"/>
<path d="M48.4675 39.939H22.8867V51.8782H48.4675V39.939Z" fill="#7500FD"/>
<path d="M48.4673 51.9603H22.8865C22.8627 51.9603 22.8399 51.9509 22.8231 51.9341C22.8063 51.9173 22.7969 51.8945 22.7969 51.8707V39.9241C22.7969 39.9003 22.8063 39.8775 22.8231 39.8607C22.8399 39.8439 22.8627 39.8345 22.8865 39.8345H48.4673C48.4787 39.8344 48.49 39.8368 48.5005 39.8414C48.511 39.8459 48.5204 39.8527 48.5282 39.8611C48.5359 39.8695 48.5418 39.8795 48.5454 39.8903C48.5491 39.9012 48.5504 39.9127 48.5494 39.9241V51.8707C48.5504 51.8821 48.5491 51.8936 48.5454 51.9045C48.5418 51.9153 48.5359 51.9253 48.5282 51.9337C48.5204 51.9421 48.511 51.9489 48.5005 51.9535C48.49 51.958 48.4787 51.9604 48.4673 51.9603ZM22.9686 51.7886H48.3553V40.0211H22.9686V51.7886Z" fill="black"/>
<path d="M46.762 46.7563H39.9375V50.1686H46.762V46.7563Z" fill="white"/>
<path d="M38.228 44.2024L35.6743 42.4926L33.1133 44.2024V39.939H38.228V44.2024Z" fill="white"/>
<path d="M38.2284 44.2848H38.1836L35.6748 42.6123L33.1585 44.2848C33.1462 44.2928 33.1321 44.2974 33.1174 44.298C33.1028 44.2987 33.0882 44.2954 33.0753 44.2886C33.0623 44.2817 33.0514 44.2715 33.0438 44.259C33.0361 44.2466 33.0319 44.2323 33.0316 44.2176V39.9392C33.0305 39.9278 33.0319 39.9163 33.0356 39.9055C33.0392 39.8946 33.0451 39.8847 33.0528 39.8762C33.0606 39.8678 33.07 39.8611 33.0805 39.8565C33.091 39.8519 33.1023 39.8496 33.1137 39.8496H38.2284C38.2522 39.8496 38.2749 39.8591 38.2917 39.8759C38.3085 39.8927 38.318 39.9154 38.318 39.9392V44.2027C38.3169 44.2178 38.3122 44.2324 38.3044 44.2453C38.2967 44.2583 38.286 44.2692 38.2732 44.2773L38.2284 44.2848ZM33.2033 40.0213V44.0533L35.6225 42.4405C35.6366 42.4302 35.6536 42.4247 35.6711 42.4247C35.6885 42.4247 35.7055 42.4302 35.7196 42.4405L38.1463 44.0533V40.0213H33.2033Z" fill="#020302"/>
<path d="M29.8664 45.2034C29.4184 45.0615 24.5202 44.9869 24.5202 44.9869C24.4349 44.7739 24.423 44.5385 24.4866 44.3181C24.5502 44.0976 24.6855 43.9046 24.8712 43.7698C25.5432 43.1202 25.3042 42.2167 24.8712 42.5303C24.1572 43.0319 23.4877 43.594 22.8701 44.2103C22.4621 44.7542 21.9992 45.2546 21.4888 45.7037C20.981 46.1517 16.5309 45.0391 16.5309 45.0391C15.4856 44.8898 15.5453 44.8301 14.4328 44.7106C13.813 44.6434 14.3133 40.3575 14.3133 40.3575C11.3266 39.5586 7.66797 41.3282 7.66797 41.3282C7.66797 41.3282 7.8397 47.1373 9.24344 48.1826C11.6253 49.9597 15.6946 49.7431 15.6946 49.7431C17.076 49.7431 23.1613 49.0487 24.3858 49.3549C25.1325 49.549 25.6776 49.2354 26.5213 48.9069C27.365 48.5783 27.1634 48.0706 27.1634 48.0706C27.3415 47.9986 27.4938 47.8746 27.6003 47.7147C27.7069 47.5549 27.7628 47.3667 27.7608 47.1746C28.6045 46.3607 28.0818 46.1741 28.0818 46.1741C28.6886 46.1676 29.2906 46.0669 29.8664 45.8754C30.3442 45.6439 30.1352 45.2855 29.8664 45.2034Z" fill="white"/>
<path d="M15.3296 49.8323C14.2394 49.8323 11.1632 49.6979 9.21437 48.2419C7.7957 47.1891 7.60903 41.5667 7.60157 41.3278C7.60143 41.3105 7.6063 41.2936 7.61557 41.279C7.62484 41.2644 7.63813 41.2529 7.65383 41.2457C7.69116 41.2457 11.3349 39.4686 14.3738 40.2675C14.3922 40.274 14.4079 40.2862 14.4187 40.3024C14.4294 40.3185 14.4347 40.3377 14.4336 40.3571C14.3141 41.3875 14.0826 44.1502 14.4336 44.5833C14.4505 44.5889 14.4689 44.5889 14.4858 44.5833C14.8876 44.634 15.2864 44.7063 15.6805 44.7998L16.569 44.9491C18.2789 45.3747 21.1088 45.9347 21.4597 45.6361C21.9367 45.2135 22.3717 44.7459 22.7589 44.2398L22.8261 44.1577C23.3814 43.5848 23.9888 43.0649 24.6405 42.6046L24.8346 42.4627C24.8612 42.4338 24.8935 42.4106 24.9295 42.3948C24.9655 42.379 25.0044 42.3708 25.0437 42.3708C25.083 42.3708 25.1219 42.379 25.1579 42.3948C25.1939 42.4106 25.2262 42.4338 25.2528 42.4627C25.3611 42.6915 25.3876 42.9506 25.3278 43.1966C25.268 43.4426 25.1255 43.6606 24.9242 43.8142C24.7628 43.9362 24.6421 44.1042 24.5781 44.2962C24.5141 44.4881 24.5098 44.695 24.5658 44.8894C25.1333 44.8894 29.449 44.9715 29.8821 45.1059C29.972 45.1295 30.0531 45.1788 30.1154 45.2477C30.1778 45.3167 30.2186 45.4024 30.233 45.4942C30.233 45.5987 30.233 45.7929 29.8821 45.9347C29.374 46.1083 28.8432 46.2065 28.3066 46.2259C28.3066 46.2259 28.3066 46.2857 28.3066 46.3155C28.3514 46.5395 28.1946 46.8307 27.8362 47.1891C27.8291 47.38 27.7705 47.5654 27.6667 47.7258C27.5629 47.8861 27.4176 48.0154 27.2464 48.1001C27.2616 48.2116 27.2461 48.3252 27.2016 48.4286C27.1317 48.5576 27.037 48.6715 26.923 48.7638C26.8089 48.856 26.6778 48.9248 26.537 48.9662L26.1861 49.1081C25.6305 49.4198 24.9845 49.5306 24.3568 49.4217C23.5504 49.2126 20.6757 49.4217 18.3834 49.6307C17.2037 49.7278 16.1808 49.8099 15.7029 49.8099L15.3296 49.8323ZM7.7733 41.3726C7.7733 41.9699 8.03463 47.1518 9.3189 48.0926C11.6485 49.8473 15.6805 49.6531 15.7178 49.6531C16.1882 49.6531 17.2112 49.571 18.3834 49.4739C20.713 49.2873 23.6101 49.0558 24.4314 49.2649C25.0236 49.3678 25.6331 49.2622 26.1562 48.9662L26.5146 48.8243C27.2613 48.5331 27.112 48.0777 27.1045 48.0777C27.101 48.0674 27.0996 48.0565 27.1003 48.0456C27.101 48.0348 27.1039 48.0242 27.1088 48.0145C27.1137 48.0047 27.1204 47.9961 27.1286 47.989C27.1369 47.9819 27.1464 47.9765 27.1568 47.9731C27.3186 47.9053 27.4566 47.7911 27.5536 47.645C27.6506 47.4988 27.7022 47.3272 27.7018 47.1518C27.6943 47.1326 27.6943 47.1113 27.7018 47.0921C28.1424 46.6665 28.1722 46.4499 28.1498 46.3454C28.1458 46.3177 28.1348 46.2915 28.1178 46.2693C28.1008 46.2471 28.0784 46.2296 28.0528 46.2185C28.0351 46.2118 28.0202 46.1993 28.0107 46.183C28.0012 46.1666 27.9976 46.1475 28.0005 46.1289C28.0038 46.109 28.0137 46.0908 28.0286 46.0773C28.0435 46.0637 28.0625 46.0556 28.0826 46.0542C28.6665 46.0518 29.2463 45.956 29.8 45.7705C29.9642 45.6958 30.0538 45.5987 30.0464 45.5017C30.0347 45.4451 30.0076 45.3928 29.968 45.3506C29.9285 45.3085 29.8781 45.278 29.8224 45.2627C29.4789 45.1582 26.1861 45.0761 24.4986 45.0462C24.4831 45.0475 24.4675 45.0438 24.4541 45.0358C24.4407 45.0278 24.4302 45.0157 24.424 45.0014C24.3278 44.7732 24.3115 44.5192 24.378 44.2806C24.4444 44.042 24.5895 43.8329 24.7898 43.6873C24.9573 43.5605 25.0792 43.3827 25.1371 43.1808C25.195 42.9788 25.1858 42.7635 25.1109 42.5673C25.1109 42.5673 25.0362 42.4851 24.9242 42.5673L24.7226 42.7166C24.0822 43.1572 23.4847 43.6572 22.9381 44.2099L22.8634 44.2995C22.4718 44.8111 22.0317 45.2837 21.5493 45.7107C21.0192 46.1737 16.9722 45.1806 16.5168 45.0611C16.0613 44.9417 15.8448 44.9566 15.6282 44.9118C15.4117 44.867 15.0757 44.8073 14.4186 44.7326C14.3857 44.73 14.3537 44.72 14.3252 44.7031C14.2968 44.6863 14.2725 44.6632 14.2544 44.6355C13.8213 44.0979 14.1498 40.9843 14.217 40.3646C11.4917 39.7225 8.21383 41.171 7.7733 41.3726Z" fill="#020302"/>
<path d="M27.82 47.0401C27.82 47.0401 27.2451 47.3387 25.9309 46.8385C25.9101 46.8305 25.887 46.8312 25.8667 46.8403C25.8464 46.8494 25.8306 46.8662 25.8227 46.887C25.8147 46.9078 25.8154 46.9309 25.8245 46.9512C25.8336 46.9715 25.8504 46.9873 25.8712 46.9953C26.2256 47.136 26.5973 47.2289 26.9763 47.2715C27.2913 47.3253 27.6153 47.27 27.8947 47.1147C27.9395 47.1147 27.9768 47.055 27.9544 47.0177C27.932 46.9803 27.8573 47.0401 27.82 47.0401ZM28.1411 46.0993C27.469 46.1012 26.7977 46.0538 26.1325 45.9574C26.1217 45.9564 26.1108 45.9575 26.1005 45.9607C26.0901 45.9639 26.0805 45.9691 26.0722 45.9761C26.0638 45.983 26.057 45.9915 26.0519 46.0011C26.0469 46.0108 26.0439 46.0213 26.0429 46.0321C26.0408 46.0434 26.0411 46.0551 26.0438 46.0664C26.0465 46.0776 26.0515 46.0881 26.0585 46.0973C26.0656 46.1065 26.0745 46.114 26.0847 46.1195C26.0948 46.125 26.1061 46.1283 26.1176 46.1291L26.8643 46.1963C27.293 46.2451 27.7247 46.2626 28.156 46.2486C28.1675 46.2477 28.1787 46.2445 28.1889 46.239C28.1991 46.2335 28.208 46.2259 28.215 46.2168C28.2221 46.2076 28.2271 46.1971 28.2298 46.1858C28.2325 46.1746 28.2328 46.1629 28.2307 46.1515C28.2157 46.1067 28.1859 46.0918 28.1411 46.0993ZM27.3123 47.9211C26.6805 48.0993 26.0164 48.1299 25.3709 48.0107C25.3483 48.0085 25.3257 48.015 25.3076 48.0289C25.2896 48.0428 25.2775 48.063 25.2739 48.0854C25.2717 48.108 25.2782 48.1307 25.292 48.1487C25.3059 48.1667 25.3261 48.1788 25.3485 48.1825H25.6547C26.2312 48.2656 26.8195 48.2014 27.3645 47.9958C27.4093 47.9958 27.4541 47.9958 27.4317 47.9211C27.4093 47.8465 27.3571 47.9062 27.3123 47.9211Z" fill="black"/>
<path d="M10.2825 30.7852C5.9742 33.7644 7.01207 41.8881 7.01207 41.8881C11.9998 43.3814 15.0089 41.8209 15.0089 41.8209L14.9342 39.1329L10.2825 30.7852Z" fill="#FDBA40"/>
<path d="M11.1987 42.605C9.77902 42.5976 8.36799 42.3838 7.00987 41.9703C6.99293 41.9651 6.97771 41.9555 6.96586 41.9423C6.95402 41.9292 6.946 41.913 6.94267 41.8956C6.94267 41.8508 6.32294 36.9228 8.07014 33.3537C8.0749 33.3438 8.08161 33.3349 8.08987 33.3277C8.09813 33.3204 8.10778 33.3148 8.11822 33.3113C8.12867 33.3079 8.13972 33.3065 8.1507 33.3074C8.16168 33.3083 8.17237 33.3113 8.18214 33.3164C8.19289 33.3202 8.20264 33.3264 8.21063 33.3345C8.21863 33.3426 8.22466 33.3525 8.22826 33.3633C8.23187 33.3741 8.23295 33.3856 8.23142 33.3969C8.2299 33.4082 8.22581 33.4189 8.21947 33.4284C6.5768 36.7511 7.0248 41.2684 7.08454 41.8135C11.6093 43.1425 14.5512 41.9404 14.9171 41.7612L14.82 39.1255C14.82 39.0807 14.82 39.0433 14.9021 39.0359C14.9234 39.0376 14.9433 39.0468 14.9583 39.0618C14.9734 39.0769 14.9826 39.0968 14.9843 39.118L15.0888 41.806C15.0906 41.8226 15.0872 41.8394 15.0792 41.8541C15.0712 41.8688 15.0589 41.8806 15.044 41.8881C13.8271 42.3956 12.5167 42.6399 11.1987 42.605Z" fill="#020302"/>
</g>
<defs>
<clipPath id="clip0_3469_63911">
<rect width="56" height="56" fill="white"/>
</clipPath>
</defs>
</svg>
