<svg width="20" height="20" viewBox="0 0 20 20" fill="none" xmlns="http://www.w3.org/2000/svg">
<path fill-rule="evenodd" clip-rule="evenodd" d="M8.15288 2.22519C8.97747 1.42745 10.1131 1.04199 11.3705 1.04199H15.0008C15.3461 1.04199 15.6263 1.32182 15.6263 1.66699V4.58366C15.6263 4.92883 15.3465 5.20866 15.0013 5.20866H12.5013C11.7439 5.20866 11.5954 5.39373 11.5614 5.44422C11.5306 5.48997 11.4992 5.56709 11.4802 5.70992C11.4606 5.85802 11.4596 6.02665 11.4596 6.25033V7.29199H15.0013C15.1938 7.29199 15.3755 7.38066 15.494 7.53236C15.6124 7.68406 15.6543 7.88187 15.6076 8.06858L14.7743 11.4019C14.7047 11.6802 14.4548 11.8753 14.168 11.8753H11.4596V18.3337C11.4596 18.6788 11.1798 18.9587 10.8346 18.9587H7.5013C7.15613 18.9587 6.8763 18.6788 6.8763 18.3337V11.8753H4.16797C3.82279 11.8753 3.54297 11.5955 3.54297 11.2503V7.91699C3.54297 7.57182 3.82279 7.29199 4.16797 7.29199H6.8763V5.58366C6.8763 4.1799 7.32454 3.02655 8.15288 2.22519Z" fill="#487FFF"/>
</svg>
