<svg width="24" height="24" viewBox="0 0 24 24" fill="none" xmlns="http://www.w3.org/2000/svg">
<path d="M2.45312 6.50306L2.82291 5.39258L5.30662 6.21963L4.93688 7.33011L2.45312 6.50306ZM7.33124 4.93571L6.36642 2L5.25527 2.37037L6.2201 5.30608L7.33124 4.93571ZM2.45991 17.5074L4.94363 16.6778L5.31458 17.7883L2.83087 18.6179L2.45991 17.5074ZM7.33124 19.0694L6.2201 18.6991L5.25988 21.6182L6.37098 21.9886L7.33124 19.0694ZM16.6729 4.93571L17.784 5.30608L18.7397 2.3978L17.6286 2.02743L16.6729 4.93571ZM18.7075 6.21561L21.1912 5.38599L21.5621 6.49647L19.0784 7.32609L18.7075 6.21561ZM18.7477 21.6296L17.784 18.6991L16.6729 19.0694L17.6366 22L18.7477 21.6296ZM18.6993 17.7746L19.069 16.6642L21.5528 17.4912L21.183 18.6017L18.6993 17.7746ZM10.2462 4.39389C8.95564 4.39389 7.90509 5.44385 7.90509 6.73503C6.7481 6.73503 5.79057 7.58088 5.6034 8.68586C5.69962 9.23498 6.15782 9.66146 6.73452 9.66146C7.3804 9.66146 7.90509 9.13513 7.90509 8.49089L9.07566 8.4905C9.07566 9.78167 8.02511 10.832 6.73452 10.832C6.087 10.832 5.50031 10.5673 5.07598 10.1408C4.64751 10.658 4.39338 11.3114 4.39338 12.0026C4.39338 12.6938 4.64751 13.3471 5.07598 13.8643C5.50031 13.4379 6.087 13.1732 6.73452 13.1732C8.02511 13.1732 9.07566 14.2231 9.07566 15.5143H7.90509C7.90509 14.869 7.3804 14.3437 6.73452 14.3437C6.15782 14.3437 5.69962 14.7702 5.6034 15.3193C5.79057 16.4243 6.7481 17.2702 7.90509 17.2702C7.90509 18.5613 8.95564 19.6113 10.2462 19.6113C10.6752 19.6113 11.0706 19.4846 11.4168 19.2822V16.6849H12.5874V19.2822C12.9336 19.4846 13.3289 19.6113 13.7579 19.6113C15.0485 19.6113 16.0991 18.5613 16.0991 17.2702C17.2561 17.2702 18.2136 16.4243 18.4008 15.3193C18.3045 14.7702 17.8463 14.3437 17.2696 14.3437C16.6238 14.3437 16.0991 14.869 16.0991 15.5143H14.9285C14.9285 14.2231 15.9791 13.1732 17.2696 13.1732C17.9172 13.1732 18.5039 13.4379 18.9282 13.8643C19.3567 13.3471 19.6108 12.6938 19.6108 12.0026C19.6108 11.3114 19.3567 10.658 18.9282 10.1408C18.5039 10.5673 17.9172 10.832 17.2696 10.832C15.9791 10.832 14.9285 9.78206 14.9285 8.49089H16.0991C16.0991 9.13618 16.6238 9.66146 17.2696 9.66146C17.8463 9.66146 18.3045 9.23498 18.4008 8.68586C18.2136 7.58088 17.2561 6.73503 16.0991 6.73503C16.0991 5.44385 15.0485 4.39389 13.7579 4.39389C13.3289 4.39389 12.9336 4.52055 12.5874 4.72298V7.32032H11.4168V4.72294C11.0705 4.52055 10.6752 4.39389 10.2462 4.39389ZM12.5874 9.66146V14.3437H11.4168V9.66146H12.5874Z" fill="white"/>
</svg>
