<svg width="24" height="24" viewBox="0 0 24 24" fill="none" xmlns="http://www.w3.org/2000/svg">
<path fill-rule="evenodd" clip-rule="evenodd" d="M19.4594 1.57208C20.2081 1.74402 20.9663 2.0252 21.4705 2.5294C21.9747 3.0336 22.2559 3.79184 22.4278 4.54046C22.6054 5.31381 22.6926 6.19907 22.7287 7.06907C22.801 8.81159 22.6716 10.5922 22.588 11.5023C22.5358 12.0702 22.3035 12.5946 21.9406 13.0168C19.2313 16.1692 16.4228 19.0389 13.3563 21.7845C11.9532 23.0409 9.85825 23.0542 8.39712 21.9229C5.98744 20.0571 3.94283 18.0125 2.07709 15.6028C0.945789 14.1417 0.959114 12.0468 2.21543 10.6437C4.9611 7.57712 7.83082 4.76863 10.9831 2.05931C11.4053 1.69644 11.9297 1.46409 12.4977 1.4119C13.4078 1.32827 15.1883 1.19887 16.9308 1.27116C17.8008 1.30726 18.6861 1.39446 19.4594 1.57208ZM19 6.5C19 5.67157 18.3284 5 17.5 5C16.6715 5 16 5.67157 16 6.5C16 7.32843 16.6715 8 17.5 8C18.3284 8 19 7.32843 19 6.5ZM14.5299 10.5308C14.823 10.2381 14.8234 9.76324 14.5307 9.47011C14.2381 9.17697 13.7632 9.17658 13.4701 9.46923L13.2527 9.68626C12.3222 9.19935 11.1475 9.33245 10.3636 10.1151C9.9463 10.5317 9.61938 11.0697 9.65501 11.7329C9.68929 12.3713 10.0517 12.9359 10.5564 13.4397C10.9524 13.8351 11.0528 14.0944 11.0634 14.2462C11.0719 14.3673 11.0335 14.5806 10.6881 14.9255C10.3909 15.2222 10.1552 15.2655 9.97835 15.246C9.76713 15.2227 9.49422 15.0913 9.19643 14.794C8.91097 14.509 8.79655 14.149 8.82372 13.8411C8.86014 13.4285 8.55518 13.0645 8.14257 13.0281C7.72996 12.9917 7.36595 13.2966 7.32953 13.7092C7.28304 14.236 7.40383 14.7761 7.67618 15.2537L7.47011 15.4594C7.17697 15.7521 7.17658 16.2269 7.46924 16.5201C7.76189 16.8132 8.23676 16.8136 8.52989 16.5209L8.72008 16.3311C9.04568 16.5415 9.41283 16.6927 9.81378 16.7369C10.5113 16.8139 11.1809 16.5531 11.7479 15.987C12.2667 15.4691 12.6096 14.8553 12.5598 14.1417C12.5121 13.4587 12.1146 12.8758 11.6161 12.3782C11.2264 11.9891 11.1584 11.7557 11.1528 11.6525C11.1486 11.5742 11.1725 11.4271 11.4234 11.1766C11.7906 10.8099 12.4087 10.8025 12.8033 11.1965C13.0689 11.4617 13.1535 11.8318 13.0643 12.1569C12.9548 12.5563 13.1898 12.969 13.5892 13.0785C13.9887 13.1881 14.4014 12.9531 14.5109 12.5536C14.6749 11.9556 14.6078 11.3072 14.3139 10.7464L14.5299 10.5308Z" fill="white"/>
</svg>
