<svg width="20" height="20" viewBox="0 0 20 20" fill="none" xmlns="http://www.w3.org/2000/svg">
<path fill-rule="evenodd" clip-rule="evenodd" d="M4.97107 13.6566C5.25269 13.8562 5.31919 14.2463 5.1196 14.528C4.5349 15.353 4.20637 15.9331 4.0553 16.3654C3.91249 16.774 3.9461 16.9955 4.02516 17.1635C4.04414 17.2038 4.06653 17.2431 4.09226 17.281C4.17245 17.399 4.36154 17.5435 4.99598 17.6258C5.6212 17.707 6.49559 17.7082 7.74519 17.7082H12.252C13.5016 17.7082 14.376 17.707 15.0013 17.6258C15.6357 17.5435 15.8248 17.399 15.905 17.281C15.9307 17.2431 15.9531 17.2038 15.9721 17.1635C16.0512 16.9954 16.0848 16.7739 15.9421 16.3653C15.7912 15.933 15.4628 15.3529 14.8781 14.528C14.6785 14.2463 14.745 13.8562 15.0266 13.6566C15.3083 13.457 15.6984 13.5235 15.898 13.8051C16.4981 14.652 16.9113 15.349 17.1222 15.9531C17.3415 16.581 17.3575 17.155 17.1031 17.6956C17.056 17.7958 17.001 17.892 16.9388 17.9836C16.5426 18.5665 15.878 18.7725 15.1621 18.8654C14.4467 18.9582 13.4905 18.9582 12.3002 18.9582H7.69706C6.50673 18.9582 5.55052 18.9582 4.83511 18.8654C4.11929 18.7725 3.45461 18.5665 3.05844 17.9836C2.99618 17.892 2.9412 17.7958 2.89409 17.6956C2.63971 17.155 2.65592 16.5807 2.87528 15.953C3.08636 15.349 3.49959 14.652 4.09975 13.8051C4.29935 13.5235 4.68944 13.457 4.97107 13.6566Z" fill="#007AFF"/>
<path d="M5.09283 13.2785C5.46833 13.5446 5.55699 14.0648 5.29087 14.4402C4.70875 15.2616 4.39435 15.8223 4.25327 16.226C4.12321 16.5981 4.16514 16.7607 4.21497 16.8666C4.22926 16.8971 4.24621 16.9268 4.26586 16.9557C4.2934 16.9962 4.40323 17.1305 5.02409 17.2111C5.63268 17.2901 6.49075 17.2917 7.7465 17.2917H12.2533C13.5091 17.2917 14.3672 17.2901 14.9758 17.2111C15.5966 17.1305 15.7064 16.9962 15.734 16.9557C15.7536 16.9268 15.7706 16.8971 15.7848 16.8666C15.8348 16.7606 15.8767 16.5979 15.7468 16.2258C15.6058 15.8222 15.2915 15.2616 14.7094 14.4402C14.4433 14.0648 14.532 13.5446 14.9075 13.2785C15.283 13.0124 15.8031 13.1011 16.0693 13.4766C16.672 14.3271 17.0993 15.0436 17.3203 15.6763C17.5523 16.3406 17.5765 16.9736 17.2929 17.5762C17.2412 17.6863 17.1808 17.7921 17.1124 17.8926C16.6636 18.553 15.9196 18.7692 15.1903 18.8639C14.4613 18.9585 13.4938 18.9585 12.3153 18.9584H7.68458C6.50608 18.9585 5.53853 18.9585 4.8096 18.8639C4.08021 18.7692 3.33627 18.553 2.88743 17.8926C2.81909 17.7921 2.75867 17.6863 2.70688 17.5762C2.42328 16.9734 2.4478 16.3404 2.6799 15.6761C2.901 15.0435 3.32834 14.327 3.93108 13.4766C4.1972 13.1011 4.71734 13.0124 5.09283 13.2785Z" fill="#007AFF"/>
<path fill-rule="evenodd" clip-rule="evenodd" d="M10.0013 1.04199C8.62056 1.04199 7.50131 2.16128 7.50131 3.54199C7.50131 4.43601 7.97058 5.22042 8.67622 5.66234C6.23043 6.00913 4.74383 8.72933 5.72221 11.1322C5.93511 11.6551 6.43438 12.0142 7.00805 12.0142H7.41814L8.10801 14.9188C8.31883 15.8064 9.08739 16.4587 10.0013 16.4587C10.9152 16.4587 11.6838 15.8064 11.8946 14.9188L12.5845 12.0142H12.9946C13.5682 12.0142 14.0675 11.6551 14.2804 11.1322C15.2588 8.72933 13.7721 6.00913 11.3264 5.66234C12.0321 5.22042 12.5013 4.43601 12.5013 3.54199C12.5013 2.16128 11.3821 1.04199 10.0013 1.04199Z" fill="#007AFF"/>
</svg>
