<svg width="24" height="24" viewBox="0 0 24 24" fill="none" xmlns="http://www.w3.org/2000/svg">
<path d="M20.2475 10.3039L12.4471 2.50239C11.9871 2.04348 11.2429 2.04891 10.7889 2.5018C10.3323 2.95957 10.3323 3.70286 10.7889 4.16005L18.5904 11.961C19.0474 12.418 19.7904 12.418 20.2475 11.961C20.7058 11.5027 20.7058 10.7621 20.2475 10.3039ZM10.2102 5.23849L10.1514 5.53279C9.73789 7.60147 8.73281 9.56675 7.37338 11.1596L11.6174 15.4037C13.2101 14.0445 15.1483 13.0124 17.2171 12.5984L17.5119 12.5397L10.2102 5.23849ZM6.59529 12.0387L3.69477 14.9386C3.00942 15.624 3.00657 16.7366 3.69477 17.4248L5.35189 19.082C6.03725 19.7673 7.14991 19.7701 7.83811 19.082L10.7384 16.1817L6.59529 12.0387ZM7.00959 16.5963C6.78073 16.8252 6.4099 16.8252 6.18104 16.5963C5.95217 16.3675 5.95217 15.9966 6.18104 15.7678L7.00959 14.9392C7.23846 14.7103 7.60928 14.7103 7.83815 14.9392C8.06702 15.1681 8.06702 15.5389 7.83815 15.7678L7.00959 16.5963ZM13.1848 19.3938L13.9819 18.5967C14.6701 17.9086 14.6679 16.7959 13.9819 16.1111L13.3899 15.5186C13.0627 15.7384 12.7502 15.9773 12.4463 16.2321L13.1534 16.9402C13.3817 17.1673 13.3833 17.537 13.1534 17.7682L12.3431 18.5784L11.1524 17.4248L9.49523 19.082L12.1537 21.658C12.6074 22.1129 13.3523 22.1154 13.8103 21.6574C14.2674 21.2002 14.2674 20.457 13.8103 19.9997L13.1848 19.3938ZM15.5519 2C15.2281 2 14.966 2.26207 14.966 2.58594V3.75782C14.966 4.08169 15.2281 4.34376 15.5519 4.34376C15.8758 4.34376 16.1379 4.08169 16.1379 3.75782V2.58594C16.1379 2.26207 15.8758 2 15.5519 2ZM20.2395 6.68752H19.0676C18.7437 6.68752 18.4816 6.94959 18.4816 7.27346C18.4816 7.59733 18.7437 7.8594 19.0676 7.8594H20.2395C20.5633 7.8594 20.8254 7.59733 20.8254 7.27346C20.8254 6.94959 20.5633 6.68752 20.2395 6.68752ZM19.4818 3.34352C19.253 3.11465 18.8821 3.11465 18.6533 3.34352L17.4814 4.5154C17.2525 4.74427 17.2525 5.11509 17.4814 5.34396C17.7103 5.57283 18.0811 5.57287 18.31 5.34396L19.4818 4.17208C19.7107 3.94321 19.7107 3.57239 19.4818 3.34352Z" fill="white"/>
</svg>
