<svg width="19" height="18" viewBox="0 0 19 18" fill="none" xmlns="http://www.w3.org/2000/svg">
<g clip-path="url(#clip0_3471_65577)">
<path d="M5.35374 6.58068H4.83948V5.35815H5.35374V6.58068ZM0.813207 7.1384H0.749609C0.71683 7.1384 0.684372 7.14485 0.654088 7.1574C0.623804 7.16994 0.596287 7.18833 0.573109 7.2115C0.549931 7.23468 0.531544 7.2622 0.519 7.29248C0.506456 7.32277 0.5 7.35523 0.5 7.388C0.5 7.42078 0.506456 7.45324 0.519 7.48353C0.531544 7.51381 0.549931 7.54133 0.573109 7.56451C0.596287 7.58768 0.623804 7.60607 0.654088 7.61861C0.684372 7.63116 0.71683 7.63761 0.749609 7.63761H0.813242C0.846021 7.63761 0.87848 7.63116 0.908764 7.61861C0.939048 7.60607 0.966564 7.58768 0.989743 7.56451C1.01292 7.54133 1.03131 7.51381 1.04385 7.48353C1.0564 7.45324 1.06285 7.42078 1.06285 7.388C1.06285 7.35523 1.0564 7.32277 1.04385 7.29248C1.03131 7.2622 1.01292 7.23468 0.989743 7.2115C0.966564 7.18833 0.939048 7.16994 0.908764 7.1574C0.87848 7.14485 0.845986 7.1384 0.813207 7.1384ZM4.11909 7.63761C4.15026 7.63646 4.18134 7.64161 4.21048 7.65274C4.23962 7.66388 4.26621 7.68077 4.28867 7.70241C4.31113 7.72406 4.32899 7.75001 4.3412 7.77872C4.3534 7.80742 4.35969 7.8383 4.35969 7.86949C4.35969 7.90068 4.3534 7.93155 4.3412 7.96026C4.32899 7.98896 4.31113 8.01491 4.28867 8.03656C4.26621 8.0582 4.23962 8.0751 4.21048 8.08623C4.18134 8.09737 4.15026 8.10251 4.11909 8.10136H1.91145C1.84525 8.10136 1.78176 8.12766 1.73495 8.17447C1.68814 8.22128 1.66184 8.28477 1.66184 8.35097C1.66184 8.41717 1.68814 8.48066 1.73495 8.52747C1.78176 8.57428 1.84525 8.60058 1.91145 8.60058H3.06641V9.41898H7.12695V5.35843H5.85289V6.8305C5.853 6.86331 5.84661 6.89581 5.83411 6.92614C5.8216 6.95648 5.80322 6.98404 5.78002 7.00724C5.75682 7.03044 5.72926 7.04882 5.69893 7.06132C5.6686 7.07383 5.63609 7.08021 5.60328 7.08011H4.58994C4.55713 7.08021 4.52462 7.07383 4.49429 7.06132C4.46396 7.04882 4.4364 7.03044 4.4132 7.00724C4.39 6.98404 4.37162 6.95648 4.35911 6.92614C4.3466 6.89581 4.34022 6.86331 4.34033 6.8305V5.35815H3.06641V6.1755H1.64877C1.58257 6.1755 1.51908 6.2018 1.47227 6.24861C1.42545 6.29542 1.39916 6.35891 1.39916 6.42511C1.39916 6.49131 1.42545 6.5548 1.47227 6.60161C1.51908 6.64842 1.58257 6.67472 1.64877 6.67472H3.5432C3.57433 6.67364 3.60536 6.67883 3.63444 6.69C3.66352 6.70116 3.69006 6.71807 3.71246 6.73971C3.73487 6.76135 3.75269 6.78728 3.76486 6.81595C3.77703 6.84463 3.7833 6.87546 3.7833 6.90661C3.7833 6.93776 3.77703 6.96859 3.76486 6.99727C3.75269 7.02594 3.73487 7.05187 3.71246 7.07351C3.69006 7.09515 3.66352 7.11206 3.63444 7.12322C3.60536 7.13439 3.57433 7.13959 3.5432 7.1385H1.43867C1.37247 7.1385 1.30898 7.1648 1.26217 7.21161C1.21536 7.25842 1.18906 7.32191 1.18906 7.38811C1.18906 7.45431 1.21536 7.5178 1.26217 7.56461C1.30898 7.61142 1.37247 7.63772 1.43867 7.63772H4.11912L4.11909 7.63761ZM10.9016 3.31185C10.9531 3.38568 11.0016 3.45226 11.0289 3.49371C11.0663 3.55028 11.1037 3.60888 11.137 3.66949C11.2262 3.56461 11.2935 3.44304 11.3352 3.31185C11.2684 3.31589 11.2018 3.31688 11.1371 3.31688C11.0825 3.31681 10.9956 3.31378 10.9016 3.31185ZM10.6763 4.20601C11.0673 4.10093 10.0671 3.27648 10.2196 2.93293C10.3358 2.67331 11.6836 2.9683 11.6038 2.67229C11.5606 2.50827 11.4854 2.35441 11.3826 2.21953C11.2797 2.08465 11.1513 1.97141 11.0046 1.8863C10.8578 1.8012 10.6958 1.7459 10.5276 1.72359C10.3595 1.70128 10.1886 1.7124 10.0248 1.7563C9.86094 1.8002 9.70739 1.87603 9.57293 1.97942C9.43848 2.08282 9.32577 2.21175 9.24127 2.35881C9.15677 2.50588 9.10215 2.66818 9.08053 2.83641C9.05892 3.00464 9.07074 3.17548 9.11532 3.33913C9.29919 4.02608 9.98927 4.38981 10.6763 4.20594V4.20601ZM17.9438 15.7281C17.6982 15.9736 17.39 16.147 17.0527 16.2295C16.7154 16.312 16.3619 16.3004 16.0307 16.196C15.6996 16.0916 15.4034 15.8984 15.1744 15.6374C14.9453 15.3764 14.7923 15.0575 14.7319 14.7156L14.1055 15.3411C13.8709 14.8421 13.8046 14.2805 13.9165 13.7407C13.5286 14.1903 13.0406 14.5298 12.4131 14.5298H8.07867C8.01568 15.0001 7.7841 15.4317 7.42695 15.7442C7.0698 16.0567 6.61135 16.2289 6.13678 16.2289C5.6622 16.2289 5.20375 16.0567 4.8466 15.7442C4.48945 15.4317 4.25787 15.0001 4.19489 14.5298H3.5432L3.65939 13.7708H2.97032C2.93755 13.7708 2.90509 13.7644 2.8748 13.7518C2.84452 13.7393 2.817 13.7209 2.79382 13.6977C2.77065 13.6745 2.75226 13.647 2.73972 13.6167C2.72717 13.5865 2.72071 13.554 2.72071 13.5212C2.72071 13.4884 2.72717 13.456 2.73972 13.4257C2.75226 13.3954 2.77065 13.3679 2.79382 13.3447C2.817 13.3215 2.84452 13.3032 2.8748 13.2906C2.90509 13.2781 2.93755 13.2716 2.97032 13.2716H4.87787C4.90904 13.2728 4.94012 13.2676 4.96926 13.2565C4.99839 13.2454 5.02499 13.2285 5.04745 13.2068C5.06991 13.1852 5.08777 13.1592 5.09997 13.1305C5.11218 13.1018 5.11846 13.0709 5.11846 13.0397C5.11846 13.0086 5.11218 12.9777 5.09997 12.949C5.08777 12.9203 5.06991 12.8943 5.04745 12.8727C5.02499 12.851 4.99839 12.8341 4.96926 12.823C4.94012 12.8119 4.90904 12.8067 4.87787 12.8079H2.46312C2.39692 12.8079 2.33344 12.7816 2.28662 12.7348C2.23981 12.6879 2.21352 12.6245 2.21352 12.5583C2.21352 12.4921 2.23981 12.4286 2.28662 12.3818C2.33344 12.3349 2.39692 12.3087 2.46312 12.3087H5.23555C5.29565 12.3066 5.35259 12.2812 5.39437 12.2379C5.43615 12.1947 5.4595 12.1369 5.4595 12.0768C5.4595 12.0166 5.43615 11.9588 5.39437 11.9156C5.35259 11.8723 5.29565 11.847 5.23555 11.8449H3.00365C2.93745 11.8449 2.87396 11.8186 2.82715 11.7718C2.78034 11.7249 2.75404 11.6615 2.75404 11.5953C2.75404 11.5291 2.78034 11.4656 2.82715 11.4188C2.87396 11.3719 2.93745 11.3457 3.00365 11.3457H4.81719C5.30597 10.8997 5.94504 10.6547 6.60664 10.6596H10.644V13.6563H11.0653L11.0683 13.6604L11.0774 13.6725L11.0804 13.6756C11.0845 13.6796 11.0875 13.6846 11.0916 13.6887L11.0956 13.6937C11.0996 13.6978 11.1026 13.7018 11.1067 13.7059L11.1108 13.7109C11.1139 13.7145 11.1173 13.7179 11.1209 13.721L11.1259 13.726C11.1288 13.7299 11.1322 13.7333 11.136 13.7362L11.1401 13.7412C11.144 13.7447 11.1477 13.7484 11.1512 13.7523L11.1562 13.7574C11.1605 13.7608 11.1645 13.7645 11.1683 13.7685L11.1724 13.7715C11.1758 13.7752 11.1795 13.7785 11.1835 13.7816L11.1875 13.7846C11.1916 13.7887 11.1956 13.7917 11.1997 13.7958L11.2047 13.7998C11.2088 13.8029 11.2138 13.8068 11.2179 13.8099L11.2229 13.814L11.235 13.823L11.2411 13.8271C11.2444 13.8303 11.2481 13.8331 11.2522 13.8352L11.2563 13.8382C11.2605 13.8421 11.2652 13.8455 11.2703 13.8483L11.2754 13.8524C11.2804 13.8554 11.2845 13.8584 11.2895 13.8614L11.2935 13.8645C11.2986 13.8675 11.3036 13.8695 11.3076 13.8726L11.3116 13.8746C11.3156 13.8776 11.3207 13.8806 11.3247 13.8837L11.3308 13.8867C11.3348 13.8887 11.3399 13.8918 11.3449 13.8948L11.3499 13.8968C11.3549 13.8998 11.36 13.9029 11.3661 13.9059L11.3691 13.9079C11.3741 13.9096 11.3788 13.912 11.3831 13.9149L11.3882 13.9169C11.3932 13.9189 11.3983 13.922 11.4043 13.924L11.4084 13.926C11.4134 13.928 11.4195 13.931 11.4246 13.933L11.4296 13.935C11.4346 13.9371 11.4407 13.9401 11.4468 13.9421L11.4488 13.9431C11.4549 13.9451 11.4599 13.9471 11.466 13.9491L11.469 13.9512C11.4751 13.9532 11.4801 13.9552 11.4862 13.9572L11.4913 13.9582L11.5094 13.9643L11.5115 13.9653C11.5178 13.9673 11.5242 13.969 11.5307 13.9703L11.5316 13.9714H11.5327C11.5387 13.9734 11.5448 13.9744 11.5508 13.9764L11.5539 13.9774C11.5609 13.9784 11.567 13.9805 11.5731 13.9815L11.5771 13.9825C11.5834 13.9843 11.5898 13.9857 11.5963 13.9865L11.5983 13.9875C11.6052 13.9883 11.6119 13.9896 11.6186 13.9916H11.6196C11.6266 13.9926 11.6327 13.9936 11.6398 13.9946L11.6428 13.9956C11.6495 13.9968 11.6562 13.9975 11.663 13.9976L11.667 13.9986C11.6731 13.9997 11.6802 13.9997 11.6862 14.0007H11.6893C11.6956 14.0019 11.702 14.0026 11.7085 14.0027H11.7105C11.7175 14.0037 11.7245 14.0037 11.7307 14.0047H11.755L11.759 14.0057H12.5957C12.8364 14.0053 13.0671 13.9095 13.2374 13.7394C13.4076 13.5693 13.5036 13.3388 13.5043 13.0981V13.0758C13.5043 13.0688 13.5033 13.0618 13.5033 13.0556V13.0546C13.5033 13.0476 13.5023 13.0415 13.5023 13.0344V13.0334C13.5013 13.0264 13.5013 13.0203 13.5003 13.0142V13.0112C13.4992 13.0051 13.4992 12.999 13.4982 12.993V12.99C13.497 12.9843 13.4963 12.9786 13.4962 12.9728L13.4952 12.9687C13.4942 12.9637 13.4942 12.9587 13.4932 12.9536L13.4922 12.9466C13.491 12.9426 13.4903 12.9385 13.4902 12.9344L13.4881 12.9263L13.4871 12.9233L13.4861 12.9152L13.4841 12.9051L13.4811 12.894L13.479 12.8849C13.5851 12.7302 13.6771 12.5737 13.7538 12.4384C13.939 12.1151 14.0752 11.7661 14.1581 11.4028C14.1861 11.2844 14.1878 11.1613 14.1632 11.0421L13.4214 7.34828H11.6806C11.5675 7.34829 11.4589 7.30362 11.3785 7.224L10.2045 6.04897L9.71445 7.87959C9.70584 7.87677 9.69707 7.87442 9.68819 7.87256L8.0433 7.52399L8.77279 4.77477C8.80348 4.66099 8.86475 4.55779 8.94995 4.47637C9.03514 4.39495 9.14101 4.33841 9.25606 4.31291C9.37111 4.2874 9.49095 4.29389 9.60258 4.33167C9.7142 4.36946 9.81335 4.43709 9.88925 4.52724L11.8574 6.49539H13.2934L13.2941 6.38124L14.9702 6.10842V7.726L14.3752 7.627L15.0197 10.8783C15.0661 11.1149 15.0623 11.3586 15.0086 11.5936C14.9562 11.8266 14.8852 12.055 14.7965 12.2767C15.5117 11.6664 16.5445 11.4249 17.5578 11.8897L16.9314 12.5151C17.2734 12.5756 17.5923 12.7287 17.8534 12.9578C18.1145 13.1869 18.3077 13.4832 18.4121 13.8145C18.5165 14.1457 18.5281 14.4993 18.4455 14.8367C18.363 15.1741 18.1895 15.4824 17.9439 15.728L17.9438 15.7281ZM7.28252 14.5298H4.99002C5.04908 14.7896 5.19468 15.0217 5.40294 15.1879C5.61121 15.3542 5.86979 15.4447 6.13627 15.4447C6.40275 15.4447 6.66132 15.3542 6.86959 15.1879C7.07786 15.0217 7.22346 14.7896 7.28252 14.5298ZM17.4326 13.5537C17.2681 13.3894 17.0587 13.2775 16.8306 13.2322C16.6026 13.1868 16.3662 13.2101 16.1515 13.2991C15.9367 13.3881 15.7531 13.5388 15.624 13.7321C15.4948 13.9254 15.4259 14.1527 15.4259 14.3852C15.4259 14.6177 15.4948 14.8449 15.624 15.0383C15.7531 15.2316 15.9367 15.3823 16.1515 15.4712C16.3662 15.5602 16.6026 15.5835 16.8306 15.5382C17.0587 15.4929 17.2681 15.381 17.4326 15.2166C17.5418 15.1075 17.6284 14.9778 17.6875 14.8352C17.7466 14.6925 17.777 14.5396 17.777 14.3852C17.777 14.2308 17.7466 14.0779 17.6875 13.9352C17.6284 13.7925 17.5418 13.6629 17.4326 13.5537ZM16.11 6.9167C16.1099 6.72814 16.0468 6.54502 15.9308 6.39639C15.8148 6.24775 15.6524 6.14211 15.4695 6.09622V7.73704C15.6524 7.69116 15.8147 7.58555 15.9307 7.43694C16.0468 7.28833 16.1099 7.10524 16.11 6.9167ZM8.23831 9.30216L9.48798 9.51837H6.67024C6.46646 9.51877 6.26979 9.59333 6.11696 9.72813C5.96413 9.86293 5.86559 10.0487 5.83974 10.2509C6.09087 10.1905 6.34831 10.1603 6.60661 10.161H10.644V9.71841L11.3391 9.83868C11.3957 9.84775 11.4179 9.90547 11.4169 9.96295C11.4048 10.6086 11.3937 11.4401 11.3815 12.1898H12.2211L12.2534 9.88702C12.2575 9.64556 12.2545 9.40186 12.1261 9.19693C11.9968 8.98983 11.7978 8.82818 11.5593 8.77766L9.58508 8.3593L7.91596 8.00566L7.7816 8.51086C7.73803 8.67633 7.76157 8.85231 7.84711 9.0005C7.93264 9.14869 8.07324 9.25711 8.23831 9.30216ZM2.34391 13.2719H2.28126C2.21506 13.2719 2.15157 13.2982 2.10476 13.345C2.05795 13.3918 2.03165 13.4553 2.03165 13.5215C2.03165 13.5877 2.05795 13.6512 2.10476 13.698C2.15157 13.7448 2.21506 13.7711 2.28126 13.7711H2.34391C2.41011 13.7711 2.4736 13.7448 2.52041 13.698C2.56722 13.6512 2.59352 13.5877 2.59352 13.5215C2.59352 13.4553 2.56722 13.3918 2.52041 13.345C2.4736 13.2982 2.41011 13.2719 2.34391 13.2719ZM11.3745 12.6889C11.3725 12.797 11.3704 12.901 11.3684 13.0021C11.3684 13.0344 11.3704 13.0657 11.3704 13.0981C11.3709 13.2066 11.4143 13.3106 11.4912 13.3872C11.568 13.4638 11.6721 13.507 11.7806 13.5072H12.596C12.7039 13.5062 12.807 13.4626 12.8829 13.386C12.9588 13.3093 13.0014 13.2058 13.0014 13.098C13.0014 12.9901 12.9588 12.8866 12.8829 12.8099C12.807 12.7333 12.7039 12.6898 12.596 12.6888H11.3745V12.6889ZM1.83657 12.3092H1.77304C1.70684 12.3092 1.64335 12.3355 1.59654 12.3823C1.54973 12.4291 1.52343 12.4926 1.52343 12.5588C1.52343 12.625 1.54973 12.6885 1.59654 12.7353C1.64335 12.7821 1.70684 12.8084 1.77304 12.8084H1.83671C1.90291 12.8084 1.9664 12.7821 2.01321 12.7353C2.06002 12.6885 2.08632 12.625 2.08632 12.5588C2.08632 12.4926 2.06002 12.4291 2.01321 12.3823C1.9664 12.3355 1.90291 12.3092 1.83671 12.3092H1.83657Z" fill="#404040"/>
</g>
<defs>
<clipPath id="clip0_3471_65577">
<rect width="18" height="18" fill="white" transform="translate(0.5)"/>
</clipPath>
</defs>
</svg>
