<svg width="52" height="46" viewBox="0 0 52 46" fill="none" xmlns="http://www.w3.org/2000/svg">
<path d="M50.0868 35.2008L49.2443 34.5506H43.201V24.8354H40.6646V39.4861H24.1094V43.7805H50.8101V36.6567C50.8098 36.3747 50.7443 36.0966 50.6188 35.844C50.4934 35.5915 50.3113 35.3714 50.0868 35.2008Z" fill="#84BB00"/>
<path d="M50.8118 43.8724H24.1111C24.0868 43.8724 24.0635 43.8628 24.0464 43.8456C24.0292 43.8285 24.0195 43.8052 24.0195 43.7809V39.4864C24.0195 39.4621 24.0292 39.4388 24.0464 39.4217C24.0635 39.4045 24.0868 39.3948 24.1111 39.3948H40.593V24.8358C40.5916 24.8234 40.5929 24.8109 40.597 24.7991C40.6011 24.7873 40.6078 24.7766 40.6166 24.7678C40.6254 24.759 40.6361 24.7523 40.6479 24.7482C40.6597 24.7441 40.6722 24.7428 40.6846 24.7442H43.221C43.2334 24.7428 43.2459 24.7441 43.2577 24.7482C43.2695 24.7523 43.2802 24.759 43.289 24.7678C43.2978 24.7766 43.3045 24.7873 43.3086 24.7991C43.3127 24.8109 43.314 24.8234 43.3126 24.8358V34.4503H49.2644H49.3193L50.1617 35.1004C50.3966 35.2805 50.5872 35.5119 50.7189 35.7769C50.8506 36.0419 50.92 36.3336 50.9217 36.6295V43.7534C50.9273 43.7691 50.9284 43.7861 50.9251 43.8024C50.9217 43.8187 50.914 43.8338 50.9027 43.8461C50.8914 43.8583 50.8769 43.8672 50.8609 43.8719C50.8449 43.8765 50.828 43.8767 50.8118 43.8724ZM24.2027 43.6893H50.7569V36.657C50.7559 36.3894 50.6934 36.1255 50.5744 35.8858C50.4553 35.6461 50.2828 35.4369 50.0702 35.2744L49.2552 34.6426H43.2027C43.1903 34.644 43.1777 34.6427 43.166 34.6386C43.1542 34.6345 43.1435 34.6278 43.1347 34.619C43.1259 34.6102 43.1192 34.5995 43.1151 34.5877C43.111 34.5759 43.1096 34.5634 43.1111 34.551V24.9274H40.7579V39.4864C40.7579 39.5107 40.7482 39.534 40.731 39.5512C40.7139 39.5683 40.6906 39.578 40.6663 39.578H24.1844L24.2027 43.6893Z" fill="#020302"/>
<path d="M49.2426 34.5508L46.3949 26.3098C46.2532 25.8929 45.9845 25.5309 45.6264 25.2747C45.2684 25.0185 44.839 24.8809 44.3987 24.8813H43.1992V34.5508H49.2426Z" fill="white"/>
<path d="M49.2449 34.6425H43.2015C43.1891 34.644 43.1766 34.6427 43.1648 34.6386C43.153 34.6345 43.1423 34.6278 43.1335 34.619C43.1247 34.6102 43.118 34.5995 43.1139 34.5877C43.1098 34.5759 43.1085 34.5634 43.11 34.551V24.8358C43.1085 24.8234 43.1098 24.8109 43.1139 24.7991C43.118 24.7873 43.1247 24.7766 43.1335 24.7678C43.1423 24.759 43.153 24.7523 43.1648 24.7482C43.1766 24.7441 43.1891 24.7428 43.2015 24.7442H44.401C44.8566 24.7429 45.3014 24.8831 45.6738 25.1456C46.0461 25.408 46.3277 25.7798 46.4796 26.2093L49.3639 34.5235C49.3712 34.536 49.375 34.5503 49.375 34.5647C49.375 34.5792 49.3712 34.5934 49.3639 34.6059C49.3592 34.6167 49.3521 34.6264 49.3433 34.6342C49.3345 34.6421 49.3241 34.6479 49.3128 34.6514C49.3015 34.6549 49.2896 34.6559 49.2779 34.6544C49.2662 34.6528 49.2549 34.6488 49.2449 34.6425ZM43.2931 34.4594H49.1167L46.3056 26.2917C46.17 25.8941 45.9136 25.5488 45.5721 25.3042C45.2306 25.0595 44.8211 24.9278 44.401 24.9274H43.2931V34.4594Z" fill="#020302"/>
<path d="M50.8137 37.8657H47.4258L48.3964 39.9809H50.8137V37.8657Z" fill="white"/>
<path d="M50.8095 40.0724H48.3922C48.3749 40.0711 48.3582 40.0654 48.3438 40.0557C48.3293 40.0461 48.3176 40.0329 48.3098 40.0174L47.3392 37.9023C47.3319 37.8897 47.3281 37.8755 47.3281 37.8611C47.3281 37.8466 47.3319 37.8324 47.3392 37.8198C47.3521 37.814 47.3662 37.811 47.3804 37.811C47.3946 37.811 47.4086 37.814 47.4216 37.8198H50.8004C50.8247 37.8198 50.8479 37.8295 50.8651 37.8467C50.8823 37.8638 50.8919 37.8871 50.8919 37.9114V39.9442C50.896 39.9581 50.8971 39.9726 50.895 39.987C50.893 40.0013 50.8879 40.015 50.8801 40.0271C50.8722 40.0393 50.8619 40.0496 50.8497 40.0574C50.8376 40.0652 50.8238 40.0703 50.8095 40.0724ZM48.4471 39.8892H50.718V37.9572H47.5315L48.4471 39.8892Z" fill="#020302"/>
<path d="M45.1313 35.9248H43.5197C43.3427 35.9248 43.1992 36.0683 43.1992 36.2453V36.2819C43.1992 36.4589 43.3427 36.6024 43.5197 36.6024H45.1313C45.3083 36.6024 45.4518 36.4589 45.4518 36.2819V36.2453C45.4518 36.0683 45.3083 35.9248 45.1313 35.9248Z" fill="#020302"/>
<path d="M24.1211 43.7812H26.2271L25.3847 41.666H24.1211C23.8952 41.666 23.6787 41.7557 23.519 41.9154C23.3593 42.0751 23.2695 42.2917 23.2695 42.5176V42.9296C23.2695 43.0415 23.2916 43.1522 23.3344 43.2555C23.3771 43.3588 23.4399 43.4527 23.519 43.5318C23.598 43.6109 23.6919 43.6736 23.7952 43.7164C23.8985 43.7592 24.0093 43.7812 24.1211 43.7812Z" fill="#7500FD"/>
<path d="M26.2248 43.8728H24.1188C23.8759 43.8728 23.643 43.7763 23.4713 43.6046C23.2996 43.4329 23.2031 43.2 23.2031 42.9571V42.5451C23.2031 42.3022 23.2996 42.0693 23.4713 41.8976C23.643 41.7259 23.8759 41.6294 24.1188 41.6294H25.3824C25.401 41.6304 25.4189 41.6371 25.4336 41.6485C25.4484 41.66 25.4592 41.6757 25.4648 41.6935L26.3072 43.7995C26.3163 43.8131 26.3211 43.829 26.3211 43.8453C26.3211 43.8616 26.3163 43.8775 26.3072 43.8911C26.293 43.8949 26.2781 43.8952 26.2638 43.892C26.2494 43.8888 26.2361 43.8822 26.2248 43.8728ZM24.1188 41.7759C23.9172 41.7759 23.7239 41.856 23.5814 41.9985C23.4389 42.141 23.3588 42.3343 23.3588 42.5359V42.9479C23.3588 43.1495 23.4389 43.3428 23.5814 43.4854C23.7239 43.6279 23.9172 43.708 24.1188 43.708H26.0875L25.3183 41.7759H24.1188Z" fill="#020302"/>
<path d="M50.8602 43.7812H48.6992L49.5416 41.666H50.8236C51.0445 41.666 51.2565 41.7538 51.4128 41.9101C51.569 42.0663 51.6568 42.2783 51.6568 42.4993V42.9846C51.6568 43.1958 51.5729 43.3985 51.4235 43.5479C51.2741 43.6973 51.0715 43.7812 50.8602 43.7812Z" fill="#FDBA40"/>
<path d="M50.8548 43.872H48.6938C48.6701 43.8804 48.6443 43.8804 48.6206 43.872C48.6115 43.8585 48.6067 43.8426 48.6067 43.8263C48.6067 43.81 48.6115 43.794 48.6206 43.7805L49.463 41.6744C49.4686 41.6566 49.4794 41.641 49.4942 41.6295C49.5089 41.618 49.5268 41.6114 49.5454 41.6104H50.8273C51.0702 41.6104 51.3031 41.7068 51.4748 41.8785C51.6465 42.0503 51.743 42.2832 51.743 42.526V43.0113C51.7294 43.2398 51.6306 43.455 51.4662 43.6143C51.3018 43.7736 51.0836 43.8656 50.8548 43.872ZM48.8312 43.6889H50.8548C51.0418 43.6889 51.2211 43.6146 51.3534 43.4824C51.4856 43.3502 51.5599 43.1708 51.5599 42.9838V42.4985C51.5599 42.4011 51.5407 42.3047 51.5034 42.2147C51.4661 42.1247 51.4115 42.043 51.3426 41.9741C51.2738 41.9052 51.192 41.8506 51.102 41.8133C51.012 41.776 50.9156 41.7569 50.8182 41.7569H49.6003L48.8312 43.6889ZM46.4413 43.7805C46.4413 43.3621 46.3173 42.9532 46.0848 42.6053C45.8524 42.2575 45.5221 41.9864 45.1356 41.8263C44.7491 41.6662 44.3238 41.6243 43.9135 41.7059C43.5032 41.7875 43.1263 41.989 42.8305 42.2848C42.5346 42.5806 42.3332 42.9575 42.2516 43.3678C42.17 43.7781 42.2119 44.2034 42.3719 44.5899C42.532 44.9764 42.8031 45.3068 43.151 45.5392C43.4988 45.7716 43.9078 45.8957 44.3261 45.8957C44.8864 45.8932 45.423 45.6696 45.8191 45.2735C46.2153 44.8773 46.4389 44.3407 46.4413 43.7805Z" fill="#020302"/>
<path d="M44.3278 45.9877C43.8914 45.9877 43.4647 45.8583 43.1018 45.6158C42.7389 45.3733 42.4561 45.0287 42.2891 44.6255C42.122 44.2222 42.0783 43.7785 42.1635 43.3505C42.2486 42.9224 42.4588 42.5292 42.7674 42.2206C43.0761 41.9119 43.4693 41.7018 43.8973 41.6166C44.3254 41.5315 44.7691 41.5752 45.1723 41.7422C45.5756 41.9092 45.9202 42.1921 46.1627 42.555C46.4052 42.9179 46.5346 43.3445 46.5346 43.781C46.5346 44.0708 46.4775 44.3577 46.3666 44.6255C46.2557 44.8932 46.0932 45.1365 45.8883 45.3414C45.6833 45.5463 45.4401 45.7088 45.1723 45.8197C44.9046 45.9306 44.6176 45.9877 44.3278 45.9877ZM44.3278 41.7574C43.9276 41.7574 43.5364 41.876 43.2036 42.0984C42.8708 42.3207 42.6114 42.6368 42.4583 43.0066C42.3051 43.3763 42.265 43.7832 42.3431 44.1758C42.4212 44.5683 42.6139 44.9289 42.8969 45.2119C43.1799 45.4949 43.5405 45.6876 43.9331 45.7657C44.3256 45.8438 44.7325 45.8037 45.1022 45.6505C45.472 45.4974 45.7881 45.238 46.0104 44.9052C46.2328 44.5724 46.3515 44.1812 46.3515 43.781C46.3466 43.2474 46.1313 42.7374 45.7523 42.3619C45.3733 41.9863 44.8614 41.7756 44.3278 41.7757V41.7574Z" fill="#020302"/>
<path d="M44.3258 44.6966C44.8315 44.6966 45.2415 44.2866 45.2415 43.7809C45.2415 43.2752 44.8315 42.8652 44.3258 42.8652C43.8201 42.8652 43.4102 43.2752 43.4102 43.7809C43.4102 44.2866 43.8201 44.6966 44.3258 44.6966Z" fill="white"/>
<path d="M44.3267 44.7884C44.1275 44.7884 43.9328 44.7294 43.7671 44.6187C43.6015 44.508 43.4724 44.3507 43.3961 44.1666C43.3199 43.9826 43.3 43.7801 43.3388 43.5847C43.3777 43.3893 43.4736 43.2098 43.6145 43.069C43.7553 42.9281 43.9348 42.8322 44.1302 42.7933C44.3256 42.7545 44.5281 42.7744 44.7121 42.8506C44.8962 42.9269 45.0535 43.056 45.1642 43.2216C45.2749 43.3873 45.3339 43.582 45.3339 43.7812C45.3339 43.9135 45.3079 44.0444 45.2573 44.1666C45.2066 44.2889 45.1324 44.3999 45.0389 44.4934C44.9454 44.5869 44.8344 44.6611 44.7121 44.7118C44.5899 44.7624 44.459 44.7884 44.3267 44.7884ZM44.3267 42.9571C44.1637 42.9571 44.0044 43.0054 43.8689 43.096C43.7333 43.1865 43.6277 43.3152 43.5653 43.4658C43.503 43.6164 43.4866 43.7821 43.5184 43.942C43.5502 44.1018 43.6287 44.2487 43.744 44.3639C43.8592 44.4792 44.0061 44.5577 44.1659 44.5895C44.3258 44.6213 44.4915 44.6049 44.6421 44.5426C44.7927 44.4802 44.9214 44.3746 45.0119 44.239C45.1025 44.1035 45.1508 43.9442 45.1508 43.7812C45.1508 43.5626 45.064 43.353 44.9094 43.1985C44.7549 43.0439 44.5453 42.9571 44.3267 42.9571ZM32.7069 43.7812C32.7069 43.3629 32.5829 42.9539 32.3505 42.6061C32.118 42.2582 31.7877 41.9871 31.4012 41.827C31.0147 41.6669 30.5894 41.625 30.1791 41.7067C29.7688 41.7883 29.3919 41.9897 29.0961 42.2855C28.8003 42.5814 28.5988 42.9582 28.5172 43.3685C28.4356 43.7789 28.4775 44.2041 28.6376 44.5906C28.7977 44.9771 29.0688 45.3075 29.4166 45.5399C29.7645 45.7723 30.1734 45.8964 30.5917 45.8964C31.152 45.894 31.6886 45.6704 32.0847 45.2742C32.4809 44.878 32.7045 44.3414 32.7069 43.7812Z" fill="#020302"/>
<path d="M30.5935 45.9877C30.157 45.9877 29.7304 45.8583 29.3675 45.6158C29.0046 45.3733 28.7217 45.0287 28.5547 44.6255C28.3877 44.2222 28.344 43.7785 28.4291 43.3505C28.5143 42.9224 28.7244 42.5292 29.0331 42.2206C29.3417 41.9119 29.7349 41.7018 30.163 41.6166C30.591 41.5315 31.0347 41.5752 31.438 41.7422C31.8412 41.9092 32.1858 42.1921 32.4283 42.555C32.6708 42.9179 32.8002 43.3445 32.8002 43.781C32.8002 44.0708 32.7431 44.3577 32.6322 44.6255C32.5213 44.8932 32.3588 45.1365 32.1539 45.3414C31.949 45.5463 31.7057 45.7088 31.438 45.8197C31.1702 45.9306 30.8833 45.9877 30.5935 45.9877ZM30.5935 41.7574C30.1932 41.7574 29.802 41.876 29.4692 42.0984C29.1364 42.3207 28.8771 42.6368 28.7239 43.0066C28.5707 43.3763 28.5307 43.7832 28.6087 44.1758C28.6868 44.5683 28.8795 44.9289 29.1626 45.2119C29.4456 45.4949 29.8061 45.6876 30.1987 45.7657C30.5912 45.8438 30.9981 45.8037 31.3679 45.6505C31.7376 45.4974 32.0537 45.238 32.276 44.9052C32.4984 44.5724 32.6171 44.1812 32.6171 43.781C32.6123 43.2474 32.3969 42.7374 32.0179 42.3619C31.639 41.9863 31.127 41.7756 30.5935 41.7757V41.7574Z" fill="#020302"/>
<path d="M30.5914 44.6966C31.0972 44.6966 31.5071 44.2866 31.5071 43.7809C31.5071 43.2752 31.0972 42.8652 30.5914 42.8652C30.0857 42.8652 29.6758 43.2752 29.6758 43.7809C29.6758 44.2866 30.0857 44.6966 30.5914 44.6966Z" fill="white"/>
<path d="M30.5932 44.7879C30.394 44.7879 30.1992 44.7288 30.0336 44.6181C29.8679 44.5075 29.7388 44.3502 29.6626 44.1661C29.5864 43.9821 29.5664 43.7795 29.6053 43.5842C29.6442 43.3888 29.7401 43.2093 29.8809 43.0684C30.0218 42.9276 30.2013 42.8317 30.3967 42.7928C30.5921 42.7539 30.7946 42.7739 30.9786 42.8501C31.1627 42.9263 31.32 43.0554 31.4306 43.2211C31.5413 43.3867 31.6004 43.5815 31.6004 43.7807C31.6004 43.9129 31.5743 44.0439 31.5237 44.1661C31.4731 44.2883 31.3989 44.3994 31.3054 44.4929C31.2119 44.5864 31.1008 44.6606 30.9786 44.7112C30.8564 44.7618 30.7254 44.7879 30.5932 44.7879ZM30.5932 42.9566C30.4302 42.9566 30.2708 43.0049 30.1353 43.0955C29.9998 43.186 29.8942 43.3147 29.8318 43.4653C29.7694 43.6159 29.7531 43.7816 29.7849 43.9414C29.8167 44.1013 29.8952 44.2481 30.0104 44.3634C30.1257 44.4786 30.2725 44.5571 30.4324 44.5889C30.5923 44.6207 30.758 44.6044 30.9085 44.542C31.0591 44.4797 31.1878 44.374 31.2784 44.2385C31.3689 44.103 31.4173 43.9437 31.4173 43.7807C31.4173 43.5621 31.3304 43.3525 31.1759 43.1979C31.0213 43.0434 30.8117 42.9566 30.5932 42.9566Z" fill="#020302"/>
<path d="M40.6655 21.1729H24.1836V39.4861H40.6655V21.1729Z" fill="#FDBA40"/>
<path d="M40.66 39.578H24.1781C24.1538 39.578 24.1305 39.5684 24.1133 39.5512C24.0962 39.534 24.0865 39.5108 24.0865 39.4865V21.1732C24.085 21.1608 24.0864 21.1483 24.0905 21.1365C24.0946 21.1247 24.1013 21.114 24.1101 21.1052C24.1189 21.0964 24.1296 21.0897 24.1414 21.0856C24.1531 21.0815 24.1657 21.0802 24.1781 21.0816H40.66C40.6724 21.0802 40.685 21.0815 40.6967 21.0856C40.7085 21.0897 40.7192 21.0964 40.728 21.1052C40.7368 21.114 40.7435 21.1247 40.7476 21.1365C40.7517 21.1483 40.7531 21.1608 40.7516 21.1732V39.4865C40.7516 39.5108 40.7419 39.534 40.7248 39.5512C40.7076 39.5684 40.6843 39.578 40.66 39.578ZM24.2696 39.3949H40.5685V21.2648H24.2696V39.3949Z" fill="black"/>
<path d="M38.8311 35.9153H24.1805C24.1562 35.9153 24.1329 35.9057 24.1158 35.8885C24.0986 35.8713 24.089 35.848 24.089 35.8237C24.0875 35.8114 24.0888 35.7988 24.0929 35.787C24.097 35.7752 24.1037 35.7645 24.1125 35.7557C24.1213 35.7469 24.132 35.7402 24.1438 35.7361C24.1556 35.732 24.1681 35.7307 24.1805 35.7322H38.8311C38.8435 35.7307 38.8561 35.732 38.8679 35.7361C38.8796 35.7402 38.8903 35.7469 38.8991 35.7557C38.908 35.7645 38.9147 35.7752 38.9187 35.787C38.9228 35.7988 38.9242 35.8114 38.9227 35.8237C38.9227 35.848 38.9131 35.8713 38.8959 35.8885C38.8787 35.9057 38.8554 35.9153 38.8311 35.9153ZM38.8311 33.1683H24.1805C24.1562 33.1683 24.1329 33.1587 24.1158 33.1415C24.0986 33.1243 24.089 33.101 24.089 33.0767C24.0875 33.0644 24.0888 33.0518 24.0929 33.04C24.097 33.0283 24.1037 33.0176 24.1125 33.0087C24.1213 32.9999 24.132 32.9932 24.1438 32.9891C24.1556 32.9851 24.1681 32.9837 24.1805 32.9852H38.8311C38.8435 32.9837 38.8561 32.9851 38.8679 32.9891C38.8796 32.9932 38.8903 32.9999 38.8991 33.0087C38.908 33.0176 38.9147 33.0283 38.9187 33.04C38.9228 33.0518 38.9242 33.0644 38.9227 33.0767C38.9227 33.101 38.9131 33.1243 38.8959 33.1415C38.8787 33.1587 38.8554 33.1683 38.8311 33.1683ZM38.8311 27.6743H24.1805C24.1562 27.6743 24.1329 27.6647 24.1158 27.6475C24.0986 27.6303 24.089 27.607 24.089 27.5828C24.0875 27.5704 24.0888 27.5578 24.0929 27.5461C24.097 27.5343 24.1037 27.5236 24.1125 27.5148C24.1213 27.5059 24.132 27.4992 24.1438 27.4952C24.1556 27.4911 24.1681 27.4897 24.1805 27.4912H38.8311C38.8435 27.4897 38.8561 27.4911 38.8679 27.4952C38.8796 27.4992 38.8903 27.5059 38.8991 27.5148C38.908 27.5236 38.9147 27.5343 38.9187 27.5461C38.9228 27.5578 38.9242 27.5704 38.9227 27.5828C38.9227 27.607 38.9131 27.6303 38.8959 27.6475C38.8787 27.6647 38.8554 27.6743 38.8311 27.6743ZM38.8311 24.9273H24.1805C24.1562 24.9273 24.1329 24.9177 24.1158 24.9005C24.0986 24.8833 24.089 24.8601 24.089 24.8358C24.0875 24.8234 24.0888 24.8108 24.0929 24.7991C24.097 24.7873 24.1037 24.7766 24.1125 24.7678C24.1213 24.759 24.132 24.7522 24.1438 24.7482C24.1556 24.7441 24.1681 24.7427 24.1805 24.7442H38.8311C38.8435 24.7427 38.8561 24.7441 38.8679 24.7482C38.8796 24.7522 38.8903 24.759 38.8991 24.7678C38.908 24.7766 38.9147 24.7873 38.9187 24.7991C38.9228 24.8108 38.9242 24.8234 38.9227 24.8358C38.9227 24.8601 38.9131 24.8833 38.8959 24.9005C38.8787 24.9177 38.8554 24.9273 38.8311 24.9273ZM38.8311 30.4213H24.1805C24.1562 30.4213 24.1329 30.4117 24.1158 30.3945C24.0986 30.3773 24.089 30.354 24.089 30.3298C24.0875 30.3174 24.0888 30.3048 24.0929 30.293C24.097 30.2813 24.1037 30.2706 24.1125 30.2617C24.1213 30.2529 24.132 30.2462 24.1438 30.2421C24.1556 30.2381 24.1681 30.2367 24.1805 30.2382H38.8311C38.8435 30.2367 38.8561 30.2381 38.8679 30.2421C38.8796 30.2462 38.8903 30.2529 38.8991 30.2617C38.908 30.2706 38.9147 30.2813 38.9187 30.293C38.9228 30.3048 38.9242 30.3174 38.9227 30.3298C38.9227 30.354 38.9131 30.3773 38.8959 30.3945C38.8787 30.4117 38.8554 30.4213 38.8311 30.4213ZM9.85955 2.69503C10.1892 1.93503 8.12894 -0.0519598 7.61617 0.268522C7.45417 0.364136 7.31632 0.495719 7.21328 0.653101C7.21328 0.653101 6.44412 -0.143526 5.89472 0.204426C5.68062 0.113855 5.44441 0.0890007 5.21615 0.133024C4.98788 0.177047 4.77786 0.287958 4.61279 0.451655C4.61279 0.451655 3.55978 -0.317502 2.78147 1.36732C2.4152 2.13648 2.59833 2.64925 3.54147 2.73166L4.13665 1.54129C2.77231 4.28829 2.93713 5.62515 3.55978 6.26612C3.36749 9.43431 3.4499 11.8791 3.4499 11.8791L8.53183 10.7895C8.53183 10.7895 7.32316 5.93648 7.5246 5.51527C8.00075 4.4531 9.52991 3.46419 9.85955 2.69503Z" fill="white"/>
<path d="M3.42618 11.9433H3.37124C3.36538 11.9223 3.36538 11.9001 3.37124 11.8792C3.37124 11.8792 3.29799 9.40688 3.48112 6.29363C2.85847 5.61604 2.85847 4.4623 3.48112 2.80495C3.3139 2.80603 3.14879 2.76762 2.99922 2.69284C2.84966 2.61805 2.71986 2.50901 2.62039 2.37459C2.53918 2.20606 2.50086 2.02008 2.50885 1.83318C2.51684 1.64628 2.57088 1.46424 2.66618 1.30326C2.75869 1.05244 2.905 0.824923 3.09483 0.63668C3.28465 0.448437 3.51339 0.304037 3.76497 0.213621C4.04588 0.147385 4.34155 0.193379 4.58907 0.341814C4.76181 0.187662 4.97358 0.0839308 5.20127 0.0419466C5.42895 -3.76869e-05 5.66379 0.0213388 5.88016 0.103742C6.37461 -0.161801 6.97895 0.314345 7.19871 0.506634C7.30256 0.380602 7.42628 0.272353 7.56498 0.186152C7.90377 -0.00613777 8.55389 0.506634 8.81944 0.744706C9.50618 1.34904 10.1563 2.22808 9.93655 2.7317C9.6562 3.20173 9.30045 3.62245 8.88353 3.977C8.36563 4.42152 7.9234 4.94725 7.57413 5.53363C7.76112 7.29353 8.1012 9.03378 8.59052 10.7346C8.59971 10.7581 8.59971 10.7843 8.59052 10.8078C8.56985 10.8156 8.54709 10.8156 8.52642 10.8078L3.44449 11.9066L3.42618 11.9433ZM4.19534 1.55965C3.06907 3.81218 2.86762 5.41459 3.60931 6.13797C3.6185 6.16152 3.6185 6.18767 3.60931 6.21122C3.44449 8.95821 3.49027 11.1924 3.49943 11.7052L8.37992 10.6522C8.16016 9.72737 7.2445 5.86327 7.41847 5.45122C7.77754 4.8478 8.23212 4.30664 8.7645 3.84881C9.16397 3.51066 9.50437 3.10838 9.77173 2.65844C9.9457 2.28302 9.35968 1.45892 8.70956 0.882056C8.05944 0.305188 7.79389 0.268562 7.67486 0.350971C7.52386 0.4355 7.39517 0.554775 7.29943 0.698924C7.27574 0.707302 7.24988 0.707302 7.22618 0.698924C7.21505 0.705353 7.20241 0.708737 7.18956 0.708737C7.1767 0.708737 7.16406 0.705353 7.15293 0.698924C7.15293 0.698924 6.4204 -0.0336076 5.94425 0.268561C5.93147 0.275002 5.91736 0.278357 5.90305 0.278357C5.88874 0.278357 5.87462 0.275002 5.86184 0.268561C5.66742 0.181128 5.45088 0.155319 5.24135 0.194606C5.03182 0.233893 4.83934 0.336392 4.68979 0.48832C4.67175 0.503206 4.64909 0.511347 4.6257 0.511347C4.60231 0.511347 4.57964 0.503206 4.5616 0.48832C4.45369 0.412765 4.33075 0.361382 4.20117 0.337678C4.07159 0.313974 3.93842 0.318509 3.81076 0.350971C3.58688 0.435469 3.3841 0.567701 3.21648 0.738476C3.04887 0.909252 2.92045 1.11448 2.84015 1.33989C2.75032 1.47288 2.69421 1.62575 2.67666 1.78528C2.65911 1.9448 2.68066 2.10621 2.73943 2.25555C2.82658 2.363 2.93694 2.44931 3.06223 2.50799C3.18751 2.56667 3.32447 2.59619 3.4628 2.59435L4.03052 1.48639C4.04228 1.46411 4.06198 1.44705 4.08571 1.43857C4.10944 1.43009 4.13549 1.43082 4.15871 1.44061C4.17549 1.45773 4.18488 1.48074 4.18488 1.50471C4.18488 1.52868 4.17549 1.55169 4.15871 1.5688L4.19534 1.55965Z" fill="#020302"/>
<path d="M4.61328 0.378456V0.561588C4.61328 0.561588 4.90629 0.625685 5.19931 1.58713L5.38244 1.53219C5.02533 0.451709 4.67738 0.378456 4.61328 0.378456ZM5.93184 0.12207L5.84943 0.286889C6.07449 0.446707 6.24807 0.668689 6.34891 0.925652C6.44974 1.18261 6.47345 1.46341 6.41714 1.73364H6.60943C6.66707 1.42817 6.63356 1.11248 6.51308 0.825918C6.39259 0.539353 6.19045 0.294573 5.93184 0.12207ZM7.9463 1.83436C7.78233 1.36039 7.54436 0.915366 7.24124 0.515805L7.09473 0.634841C7.408 1.04472 7.64666 1.50655 7.79979 1.99918V2.10906L8.39497 1.76111L8.29425 1.59629L7.9463 1.83436Z" fill="black"/>
<path d="M9.0058 6.23877C9.0058 6.23877 3.06314 6.60503 0.371094 9.1048C0.371094 9.1048 2.46796 18.7009 2.93495 19.6166C3.31953 20.3583 9.06074 28.6451 15.5345 32.619L18.4646 22.6658C12.5403 18.1149 10.9012 15.4046 10.9012 15.4046C10.9012 15.4046 9.50942 9.60841 9.0058 6.23877Z" fill="#7500FD"/>
<path d="M15.5393 32.7106C8.97397 28.6817 3.25107 20.3308 2.91228 19.6807C2.43613 18.7651 0.421674 9.53517 0.330108 9.14143C0.323667 9.12865 0.320312 9.11454 0.320312 9.10023C0.320312 9.08592 0.323667 9.0718 0.330108 9.05902C3.013 6.55926 8.96482 6.17468 9.02891 6.16553C9.05114 6.16719 9.07219 6.17619 9.08876 6.1911C9.10533 6.20601 9.11649 6.226 9.12048 6.24794C9.60578 9.48939 10.9518 15.0658 11.0434 15.4046C11.1349 15.7434 12.8747 18.2889 18.5427 22.6292C18.5538 22.6436 18.5598 22.6613 18.5598 22.6795C18.5598 22.6977 18.5538 22.7155 18.5427 22.7299L15.6217 32.619C15.6178 32.632 15.6107 32.6438 15.6011 32.6534C15.5915 32.663 15.5797 32.6701 15.5667 32.674L15.5393 32.7106ZM0.476614 9.14143C0.641433 9.89228 2.58264 18.7193 3.02216 19.58C3.36095 20.221 9.00144 28.4436 15.4843 32.4725L18.3595 22.7024C12.5267 18.2065 10.906 15.4778 10.906 15.4504C10.906 15.4504 9.45012 9.72746 8.93734 6.3395C8.21397 6.39444 2.95806 6.87974 0.476614 9.14143Z" fill="#020302"/>
<path d="M26.4736 45.8966C26.4736 39.2764 24.3492 21.0455 20.9247 21.7323C18.3883 22.2359 19.7343 45.3106 19.8533 45.8966H26.4736Z" fill="white"/>
<path d="M26.4682 45.9879H19.8022C19.7808 45.9884 19.7599 45.9813 19.7431 45.9679C19.7264 45.9545 19.7149 45.9357 19.7106 45.9147C19.6648 45.6858 18.2272 22.1807 20.8552 21.6313C21.035 21.6032 21.2188 21.6158 21.3931 21.6681C21.5674 21.7204 21.7278 21.811 21.8624 21.9335C24.7559 24.3142 26.514 39.734 26.514 45.8872C26.5184 45.9067 26.5163 45.9271 26.508 45.9453C26.4998 45.9635 26.4858 45.9784 26.4682 45.9879ZM19.9212 45.8048H26.3766C26.3766 39.6241 24.6277 24.4149 21.7983 22.0891C21.6867 21.9819 21.5517 21.902 21.4039 21.8559C21.2561 21.8098 21.0996 21.7988 20.9468 21.8236C20.379 21.9335 19.4359 23.6549 19.4909 33.7821C19.4634 39.4959 19.8022 45.0631 19.8754 45.8048H19.9212Z" fill="#020302"/>
<path d="M17.5818 17.9683C17.7442 19.3248 18.0512 20.6601 18.4974 21.9514C16.4297 21.6901 14.3454 21.583 12.2618 21.6309C12.2448 20.487 12.1469 19.3456 11.9688 18.2155L17.5818 17.9683Z" fill="white"/>
<path d="M18.468 22.0703C16.4196 21.7965 14.3535 21.6771 12.2872 21.7132C12.2637 21.7224 12.2375 21.7224 12.214 21.7132C12.2056 21.6895 12.2056 21.6637 12.214 21.64C12.1985 20.505 12.1006 19.3727 11.921 18.252C11.9118 18.2285 11.9118 18.2023 11.921 18.1787C11.9393 18.1555 11.9652 18.1393 11.9942 18.133L17.5981 17.9224C17.6203 17.924 17.6414 17.933 17.6579 17.9479C17.6745 17.9629 17.6856 17.9828 17.6896 18.0048C17.8505 19.3526 18.1575 20.679 18.6053 21.9604C18.6119 21.9748 18.6153 21.9904 18.6153 22.0062C18.6153 22.022 18.6119 22.0376 18.6053 22.052C18.588 22.0704 18.5649 22.0822 18.5399 22.0855C18.5149 22.0889 18.4895 22.0835 18.468 22.0703ZM13.1754 21.4751C14.8511 21.4751 17.6255 21.7865 18.3214 21.8689C17.9213 20.639 17.6452 19.3721 17.4973 18.0872L12.0858 18.2978C12.2423 19.3655 12.331 20.442 12.3513 21.5209C12.6248 21.4891 12.9 21.4738 13.1754 21.4751Z" fill="#020302"/>
<path d="M19.2245 22.0887C17.503 22.3817 15.7999 21.4477 14.3257 21.173C13.4777 21.0525 12.7045 20.6219 12.1556 19.9644C10.9273 22.0633 10.1042 24.3742 9.72905 26.7769C8.81338 32.9027 8.62109 45.8502 8.62109 45.8502H23.4823C23.4823 45.8502 22.4842 21.5301 19.2245 22.0887Z" fill="#7500FD"/>
<path d="M23.4735 45.9872H8.6123C8.60216 45.9915 8.59126 45.9937 8.58025 45.9937C8.56924 45.9937 8.55835 45.9915 8.5482 45.9872C8.54122 45.9664 8.54122 45.9439 8.5482 45.9231C8.5482 45.7949 8.74965 32.9024 9.65616 26.8407C10.0375 24.4266 10.8634 22.1043 12.0918 19.9915C12.1034 19.9865 12.1158 19.9839 12.1284 19.9839C12.1411 19.9839 12.1535 19.9865 12.1651 19.9915C12.1765 19.9858 12.189 19.9829 12.2017 19.9829C12.2144 19.9829 12.2269 19.9858 12.2383 19.9915C12.773 20.6318 13.5272 21.0497 14.3535 21.1635C14.8892 21.2655 15.4182 21.4001 15.9376 21.5664C16.9779 21.9794 18.1014 22.1395 19.2157 22.0334C19.3351 22.016 19.4568 22.0251 19.5723 22.0599C19.6878 22.0947 19.7942 22.1544 19.8841 22.2349C22.6311 24.4874 23.5468 45.0532 23.5468 45.9231C23.556 45.9466 23.556 45.9728 23.5468 45.9963C23.5221 46.0027 23.4959 45.9994 23.4735 45.9872ZM8.70387 45.8041H23.3545C23.2904 44.2474 22.3564 24.4691 19.6918 22.3448C19.6245 22.2801 19.5434 22.2316 19.4545 22.2031C19.3656 22.1745 19.2714 22.1666 19.1791 22.1799C18.0348 22.2874 16.8813 22.1276 15.8094 21.7129C15.3018 21.5383 14.7814 21.4036 14.2528 21.3101C13.424 21.1912 12.6628 20.7863 12.101 20.1655C10.9253 22.2318 10.1313 24.4929 9.75688 26.8407C8.95109 32.6185 8.72218 44.6228 8.70387 45.8041Z" fill="#020302"/>
<path d="M11.6042 9.03191C11.6042 9.03191 11.4944 6.94419 15.3218 7.20058C18.0688 7.3654 18.5267 7.08154 18.5267 7.08154C18.4595 7.39687 18.3133 7.68999 18.1019 7.93342C17.8905 8.17685 17.6208 8.36263 17.318 8.47335C17.5465 8.38874 17.7916 8.35863 18.0337 8.38541C18.2759 8.41218 18.5085 8.4951 18.713 8.62758C18.9175 8.76006 19.0883 8.93843 19.2117 9.14851C19.3351 9.35859 19.4078 9.59457 19.424 9.83769C19.6438 11.7606 18.5083 12.2184 18.6182 13.0975C18.7281 13.9765 20.5594 14.6632 19.0577 16.1741C17.5561 17.6849 14.1132 20.5418 10.9083 17.3095C7.70352 14.0772 9.07701 7.81407 11.6042 9.03191Z" fill="black"/>
<path d="M10.9041 17.373C10.0687 16.4389 9.48692 15.306 9.21438 14.0828C8.94185 12.8596 8.98768 11.5869 9.34751 10.3865C9.78703 9.11373 10.6203 8.55518 11.5359 8.89398C11.5909 8.5094 11.8931 7.44723 13.7152 7.14506C14.2578 7.06602 14.8072 7.04454 15.3543 7.08096C16.298 7.17719 17.2491 7.17719 18.1928 7.08096C18.3002 7.06934 18.4051 7.04155 18.5041 6.99855L18.6781 6.88867V7.09012C18.579 7.59069 18.2903 8.03359 17.8723 8.32626C18.0862 8.30321 18.3026 8.32527 18.5074 8.39103C18.7122 8.45679 18.901 8.56477 19.0615 8.70801C19.222 8.85126 19.3507 9.02657 19.4392 9.22263C19.5277 9.41869 19.5741 9.63114 19.5755 9.84626C19.6861 10.6549 19.5042 11.4765 19.0627 12.1629C18.8661 12.4271 18.763 12.7493 18.7697 13.0786C18.86 13.3645 19.0169 13.625 19.2275 13.8386C19.4087 13.9848 19.5534 14.1711 19.6501 14.3829C19.7469 14.5946 19.7931 14.826 19.7851 15.0586C19.7771 15.2913 19.7152 15.519 19.6041 15.7236C19.493 15.9282 19.3359 16.1041 19.1451 16.2376C18.0147 17.5303 16.5056 18.4338 14.8323 18.8198C14.1086 18.9311 13.3685 18.8568 12.6814 18.6037C11.9943 18.3507 11.3827 17.9272 10.9041 17.373ZM17.3138 8.55518V8.3812C17.5767 8.28244 17.8133 8.12455 18.0054 7.91973C18.1975 7.71491 18.34 7.46865 18.4217 7.2C17.4015 7.36768 16.363 7.39233 15.3359 7.27325C14.8044 7.23405 14.2702 7.25247 13.7427 7.32819C11.6825 7.66699 11.7191 8.97639 11.7191 9.03132V9.18699L11.5726 9.12289C10.7027 8.71084 9.94269 9.22361 9.52148 10.4414C9.17306 11.6103 9.12897 12.8487 9.39338 14.0393C9.65778 15.23 10.2219 16.3334 11.0323 17.2448C11.491 17.7784 12.0781 18.1861 12.7382 18.4297C13.3983 18.6732 14.1096 18.7444 14.8049 18.6366C16.4221 18.2498 17.8823 17.3775 18.9894 16.1369C19.96 15.1571 19.4839 14.5619 18.9894 13.9851C18.7547 13.7531 18.5871 13.4621 18.5041 13.1427C18.4776 12.7628 18.5881 12.386 18.8155 12.0805C19.2359 11.4266 19.4081 10.6437 19.3008 9.87374C19.2942 9.66173 19.2417 9.45368 19.1468 9.26397C19.0519 9.07426 18.917 8.9074 18.7514 8.77494C18.3808 8.54232 17.9352 8.46041 17.5061 8.54602L17.3138 8.55518Z" fill="black"/>
<path d="M19.5055 15.4407C19.1483 14.1256 18.7234 12.8297 18.2327 11.5583C17.317 9.37903 15.8977 10.5511 15.8977 10.5511C13.4804 10.3496 11.5392 11.888 11.5758 12.6663C11.6249 13.3217 11.7167 13.9732 11.8505 14.6166C11.6713 14.6423 11.499 14.7034 11.3437 14.7963C11.1883 14.8892 11.053 15.0121 10.9457 15.1578C10.8383 15.3036 10.761 15.4692 10.7182 15.6451C10.6755 15.821 10.6682 16.0037 10.6968 16.1824C10.7658 16.5424 10.9732 16.8611 11.2745 17.0699C11.5758 17.2788 11.947 17.3612 12.3083 17.2995C12.4085 17.2818 12.5066 17.2542 12.6014 17.2171C12.8372 18.3624 13.4615 19.391 14.3686 20.1289C15.0279 20.541 16.0809 19.7169 16.612 20.6142C17.2408 20.5318 17.8451 20.317 18.3849 19.984C18.9247 19.651 19.3878 19.2073 19.7435 18.6822C20.2471 17.8764 19.7527 16.4388 19.5055 15.4407Z" fill="white"/>
<path d="M16.5923 20.7154C16.5759 20.7151 16.5598 20.7108 16.5454 20.7028C16.5311 20.6948 16.5189 20.6834 16.5099 20.6697C16.2352 20.2027 15.7866 20.2576 15.3196 20.3126C14.9802 20.3986 14.6217 20.3663 14.3032 20.221C13.3958 19.4958 12.7654 18.4806 12.5176 17.3458C12.4489 17.3695 12.3785 17.3879 12.307 17.4007C11.9213 17.4678 11.5247 17.3805 11.2027 17.1579C10.8807 16.9352 10.6591 16.5949 10.5856 16.2104C10.5238 15.8347 10.6126 15.4497 10.8328 15.1391C11.0535 14.8356 11.3804 14.6263 11.7485 14.553C11.6195 13.9491 11.5308 13.3374 11.4829 12.7217C11.5055 12.5413 11.5641 12.3672 11.6554 12.2099C11.7466 12.0526 11.8686 11.9152 12.014 11.806C12.5383 11.3466 13.15 10.9978 13.8125 10.7806C14.4749 10.5635 15.1744 10.4825 15.869 10.5424C16.0415 10.4141 16.239 10.3233 16.4488 10.276C16.6585 10.2287 16.8759 10.2259 17.0868 10.2677C17.3756 10.3744 17.6358 10.5465 17.8471 10.7705C18.0584 10.9945 18.215 11.2643 18.3046 11.5588C18.803 12.8222 19.231 14.1122 19.5866 15.4229L19.6964 15.8258C19.9528 16.7964 20.2733 18.0051 19.8063 18.7559C19.4421 19.2895 18.969 19.74 18.4182 20.0777C17.8674 20.4155 17.2514 20.6328 16.6107 20.7154H16.5923ZM15.7682 20.0928C15.9375 20.0776 16.1077 20.1098 16.2597 20.1858C16.4117 20.2618 16.5396 20.3786 16.629 20.5232C17.2361 20.4398 17.819 20.2296 18.3396 19.9062C18.8602 19.5828 19.3069 19.1534 19.6507 18.6461C20.081 17.9501 19.7697 16.8147 19.5225 15.8991L19.4126 15.4962C19.06 14.1916 18.6351 12.9077 18.1398 11.6504C17.8468 10.9453 17.4805 10.5333 17.0319 10.4142C16.8442 10.3759 16.6507 10.3764 16.4633 10.4158C16.2759 10.4552 16.0986 10.5325 15.9422 10.6432C15.9329 10.6499 15.9217 10.6535 15.9102 10.6535C15.8987 10.6535 15.8875 10.6499 15.8781 10.6432C15.2047 10.5824 14.5259 10.6581 13.8824 10.8658C13.2389 11.0735 12.6439 11.4088 12.1331 11.8518C11.8765 12.0545 11.7037 12.3446 11.6478 12.6668C11.7024 13.316 11.7972 13.9613 11.9316 14.5988C11.9343 14.6109 11.9345 14.6233 11.9322 14.6354C11.9299 14.6476 11.9252 14.6591 11.9184 14.6694C11.9115 14.6796 11.9027 14.6884 11.8924 14.6952C11.8821 14.7019 11.8705 14.7065 11.8584 14.7087C11.677 14.7281 11.5018 14.7853 11.344 14.8768C11.1863 14.9683 11.0495 15.092 10.9427 15.2398C10.7547 15.5054 10.679 15.8344 10.7321 16.1554C10.7596 16.3295 10.8219 16.4963 10.9153 16.6457C11.0087 16.7951 11.1314 16.9241 11.2759 17.025C11.4204 17.1259 11.5838 17.1966 11.7562 17.2328C11.9287 17.2691 12.1067 17.2701 12.2796 17.2359C12.3702 17.2201 12.4591 17.1955 12.5451 17.1627C12.5687 17.1535 12.5948 17.1535 12.6184 17.1627C12.6382 17.1766 12.654 17.1956 12.6641 17.2176C12.899 18.3439 13.5131 19.3555 14.4039 20.0836C14.6926 20.2101 15.0161 20.2328 15.3196 20.1477C15.4684 20.1275 15.6181 20.1152 15.7682 20.1111V20.0928Z" fill="#020302"/>
<path d="M17.6564 16.0001C17.8579 15.8811 18.1142 15.8445 18.0868 16.1283C18.0466 16.3494 17.9564 16.5584 17.8231 16.7393C17.6898 16.9203 17.5169 17.0683 17.3176 17.1722C16.4019 17.7033 15.3947 17.1722 15.4863 16.6411C15.6145 16.3664 16.5668 16.6228 17.6564 16.0001Z" fill="black"/>
<path d="M15.481 16.6129C15.4603 16.7059 15.4637 16.8027 15.4909 16.8941C15.5182 16.9854 15.5684 17.0683 15.6367 17.1348C15.7938 17.2787 15.9827 17.3836 16.1879 17.4409C16.3931 17.4981 16.609 17.5062 16.8179 17.4644C17.0244 17.4302 17.2229 17.3589 17.4039 17.2538C17.6167 17.1419 17.8013 16.9832 17.944 16.7897C18.0868 16.5963 18.1839 16.373 18.228 16.1367C18.2358 16.0905 18.2324 16.0431 18.218 15.9985C18.2037 15.9539 18.1789 15.9134 18.1456 15.8803C18.1111 15.8533 18.071 15.8343 18.0283 15.8248C17.9855 15.8153 17.9411 15.8155 17.8984 15.8254C17.8108 15.8394 17.7268 15.8705 17.6512 15.917C17.2874 16.1286 16.8864 16.2685 16.47 16.329L16.0762 16.3748H15.829C15.6275 16.4297 15.481 16.4755 15.481 16.6129ZM15.6642 16.6586C15.6642 16.6586 15.71 16.6129 15.8473 16.5945H16.0854L16.4883 16.5396C16.9295 16.4698 17.3545 16.3209 17.7427 16.1001C17.7975 16.0707 17.856 16.0492 17.9167 16.036C17.9463 16.0255 17.9787 16.0255 18.0083 16.036C18.0163 16.0516 18.0205 16.0688 18.0205 16.0864C18.0205 16.1039 18.0163 16.1211 18.0083 16.1367C17.9648 16.3303 17.8801 16.5123 17.76 16.6703C17.64 16.8283 17.4873 16.9586 17.3124 17.0524C17.1558 17.1496 16.9815 17.2149 16.7996 17.2447C16.6205 17.2813 16.4353 17.2756 16.2588 17.2279C16.0823 17.1802 15.9195 17.0918 15.7832 16.97C15.7341 16.9345 15.6942 16.8877 15.6671 16.8334C15.64 16.7792 15.6264 16.7192 15.6275 16.6586H15.6642ZM13.3933 13.756C13.3709 13.8097 13.3594 13.8672 13.3594 13.9254C13.3594 13.9835 13.3709 14.0411 13.3933 14.0948L13.6039 14.5984C13.6697 14.7651 13.7891 14.9051 13.9433 14.9963C14.0975 15.0875 14.2778 15.1247 14.4555 15.102H14.5379L15.6184 14.7907C15.8052 14.7333 15.9627 14.6061 16.0582 14.4356C16.1537 14.2651 16.1798 14.0643 16.1312 13.875L16.0304 13.3897C16.0231 13.336 16.0045 13.2845 15.9758 13.2385C15.9472 13.1925 15.9091 13.1531 15.8642 13.1228C15.8192 13.0926 15.7684 13.0722 15.715 13.0629C15.6616 13.0537 15.6068 13.0558 15.5543 13.0692L13.6497 13.5729C13.596 13.5824 13.5452 13.6038 13.5008 13.6354C13.4565 13.6671 13.4197 13.7083 13.3933 13.756ZM13.5673 13.8384C13.5747 13.8198 13.5858 13.8028 13.6 13.7886C13.6141 13.7745 13.6311 13.7634 13.6497 13.756L15.5909 13.2066C15.6455 13.1987 15.701 13.2124 15.7455 13.245C15.79 13.2775 15.82 13.3262 15.829 13.3806L15.9206 13.9117C15.9558 14.0524 15.9367 14.2012 15.8671 14.3284C15.7976 14.4557 15.6826 14.5521 15.5451 14.5984L14.4647 14.9006C14.3215 14.9366 14.1701 14.9181 14.0398 14.8487C13.9095 14.7793 13.8096 14.664 13.7596 14.5251L13.549 14.0215C13.538 13.9916 13.5339 13.9596 13.5371 13.9279C13.5403 13.8961 13.5506 13.8655 13.5673 13.8384ZM16.47 12.8953C16.4449 12.9466 16.4318 13.003 16.4318 13.0601C16.4318 13.1172 16.4449 13.1736 16.47 13.2249L16.6806 13.7285C16.745 13.8962 16.8641 14.0371 17.0187 14.1285C17.1733 14.22 17.3542 14.2565 17.5321 14.2321H17.6145L18.695 13.93C18.8806 13.8706 19.0367 13.7431 19.1318 13.5732C19.227 13.4032 19.2542 13.2035 19.2078 13.0143L19.1437 12.4741C19.1352 12.42 19.1155 12.3683 19.0859 12.3223C19.0563 12.2763 19.0174 12.2369 18.9717 12.2068C18.9261 12.1766 18.8746 12.1563 18.8207 12.1472C18.7667 12.138 18.7115 12.1402 18.6584 12.1536L16.7263 12.703C16.6711 12.7114 16.6187 12.7333 16.574 12.7669C16.5292 12.8004 16.4935 12.8445 16.47 12.8953ZM16.6348 12.9777C16.6456 12.9555 16.6609 12.9359 16.6799 12.9201C16.6988 12.9043 16.7209 12.8927 16.7447 12.8861L18.6767 12.3367C18.7313 12.3288 18.7868 12.3426 18.8313 12.3751C18.8758 12.4076 18.9058 12.4563 18.9148 12.5107L19.0155 13.0418C19.0481 13.1836 19.0268 13.3324 18.9557 13.4593C18.8846 13.5862 18.7688 13.6822 18.6309 13.7285L17.5504 14.0398C17.4064 14.0693 17.2567 14.0468 17.1276 13.9764C16.9986 13.906 16.8986 13.7923 16.8454 13.6553L16.6348 13.1608C16.6122 13.1018 16.6122 13.0366 16.6348 12.9777Z" fill="black"/>
<path d="M16.5992 13.1153L16.5077 13.271C16.4251 13.225 16.3276 13.2136 16.2366 13.2393C16.1456 13.2651 16.0686 13.3259 16.0224 13.4083L15.8575 13.3168C15.8927 13.2545 15.9399 13.1999 15.9963 13.156C16.0527 13.1121 16.1173 13.0799 16.1863 13.0611C16.2553 13.0424 16.3273 13.0375 16.3982 13.0468C16.4691 13.0561 16.5374 13.0794 16.5992 13.1153ZM18.3756 11.925V12.1081C17.8983 12.003 17.4005 12.0445 16.9472 12.2271L16.8556 12.0623C17.3363 11.8621 17.8668 11.8142 18.3756 11.925ZM14.8228 12.2088V12.3919C14.3436 12.4664 13.8991 12.687 13.5501 13.0237L13.4219 12.8864C13.8045 12.5167 14.2955 12.2792 14.8228 12.2088ZM14.3009 13.9119C14.3604 13.9012 14.4217 13.9145 14.4714 13.9488C14.5212 13.9831 14.5553 14.0357 14.5665 14.0951C14.5716 14.1247 14.5707 14.155 14.5637 14.1842C14.5567 14.2134 14.5438 14.2409 14.5258 14.2649C14.5078 14.2889 14.485 14.309 14.459 14.3239C14.4329 14.3388 14.404 14.3482 14.3742 14.3515C14.3451 14.3581 14.315 14.3585 14.2858 14.3527C14.2567 14.3468 14.229 14.3348 14.2048 14.3175C14.1806 14.3002 14.1603 14.278 14.1453 14.2523C14.1303 14.2265 14.1209 14.1979 14.1178 14.1683C14.1125 14.1394 14.1132 14.1098 14.1196 14.0811C14.126 14.0524 14.1381 14.0254 14.1552 14.0015C14.1723 13.9776 14.194 13.9573 14.219 13.9419C14.244 13.9266 14.2719 13.9164 14.3009 13.9119Z" fill="black"/>
<path d="M14.0157 14.1867C14.0233 14.2282 14.0392 14.2678 14.0622 14.3032C14.0853 14.3386 14.1151 14.3691 14.15 14.393C14.1849 14.4168 14.2242 14.4335 14.2656 14.4421C14.3069 14.4507 14.3496 14.451 14.3911 14.4431C14.4327 14.4387 14.4729 14.4258 14.5093 14.4051C14.5456 14.3844 14.5773 14.3564 14.6023 14.3228C14.6272 14.2893 14.6449 14.2509 14.6543 14.2101C14.6637 14.1693 14.6644 14.1271 14.6566 14.086C14.65 14.0439 14.6352 14.0035 14.6129 13.9671C14.5907 13.9308 14.5616 13.8992 14.5271 13.8741C14.4927 13.849 14.4537 13.831 14.4122 13.821C14.3708 13.811 14.3279 13.8092 14.2858 13.8158C14.2437 13.8224 14.2033 13.8373 14.167 13.8595C14.1306 13.8817 14.099 13.9109 14.0739 13.9453C14.0488 13.9798 14.0308 14.0188 14.0208 14.0602C14.0108 14.1016 14.009 14.1446 14.0157 14.1867ZM14.2079 14.1867C14.2026 14.1516 14.211 14.1157 14.2315 14.0867C14.252 14.0577 14.2829 14.0377 14.3178 14.031C14.3529 14.0256 14.3888 14.0341 14.4178 14.0546C14.4468 14.0751 14.4668 14.106 14.4735 14.1409C14.4761 14.1578 14.4753 14.175 14.4711 14.1915C14.467 14.208 14.4596 14.2236 14.4493 14.2372C14.4391 14.2509 14.4262 14.2623 14.4115 14.271C14.3968 14.2796 14.3805 14.2852 14.3636 14.2874C14.3446 14.2916 14.325 14.2914 14.3061 14.2868C14.2872 14.2823 14.2696 14.2735 14.2546 14.2612C14.2396 14.2488 14.2276 14.2332 14.2195 14.2156C14.2115 14.1979 14.2075 14.1786 14.2079 14.1592V14.1867ZM17.5684 13.0055C17.6267 12.9958 17.6865 13.0096 17.7345 13.0439C17.7826 13.0783 17.8151 13.1303 17.8248 13.1886C17.8345 13.2469 17.8207 13.3066 17.7863 13.3547C17.752 13.4028 17.7 13.4353 17.6417 13.445C17.5825 13.4534 17.5224 13.4392 17.4732 13.4053C17.424 13.3713 17.3893 13.3201 17.3761 13.2619C17.3683 13.2025 17.384 13.1423 17.4199 13.0944C17.4559 13.0465 17.5092 13.0145 17.5684 13.0055Z" fill="black"/>
<path d="M17.3165 13.2713C17.3322 13.3557 17.3802 13.4307 17.4503 13.4803C17.5204 13.5299 17.6071 13.5502 17.692 13.5368C17.7339 13.5313 17.7744 13.5173 17.8108 13.4956C17.8472 13.474 17.8787 13.4451 17.9036 13.4109C17.9285 13.3766 17.9461 13.3376 17.9553 13.2963C17.9646 13.2549 17.9653 13.2122 17.9575 13.1705C17.9441 13.0855 17.8976 13.0093 17.828 12.9587C17.7585 12.908 17.6717 12.8871 17.5867 12.9004C17.5017 12.9138 17.4254 12.9603 17.3748 13.0299C17.3241 13.0994 17.3032 13.1863 17.3165 13.2713ZM17.5088 13.2713C17.5048 13.2543 17.5045 13.2366 17.5081 13.2194C17.5116 13.2023 17.5189 13.1862 17.5294 13.1722C17.5399 13.1582 17.5533 13.1467 17.5688 13.1385C17.5842 13.1303 17.6012 13.1256 17.6187 13.1248C17.6523 13.121 17.6861 13.129 17.7145 13.1474C17.7429 13.1657 17.764 13.1933 17.7744 13.2255C17.7736 13.2573 17.7618 13.2878 17.741 13.3118C17.7202 13.3359 17.6917 13.352 17.6604 13.3574C17.6291 13.3628 17.5968 13.3572 17.5692 13.3415C17.5415 13.3258 17.5202 13.3009 17.5088 13.2713ZM16.3093 14.5898V14.4067C16.3777 14.4011 16.4462 14.4144 16.5076 14.4451C16.5689 14.4758 16.6207 14.5226 16.6573 14.5807C16.6833 14.648 16.6928 14.7206 16.6848 14.7923C16.6768 14.864 16.6517 14.9328 16.6115 14.9927L16.4467 14.9011C16.4467 14.9011 16.5291 14.7363 16.4924 14.6631C16.4558 14.5898 16.4009 14.599 16.3093 14.5898ZM11.4105 15.2857C11.56 15.1873 11.7351 15.1348 11.9141 15.1348C12.0931 15.1348 12.2682 15.1873 12.4177 15.2857L12.3079 15.4414C12.1906 15.3653 12.0539 15.3248 11.9141 15.3248C11.7744 15.3248 11.6376 15.3653 11.5204 15.4414C11.4085 15.5038 11.3202 15.6012 11.2689 15.7186C11.2176 15.836 11.2063 15.967 11.2365 16.0915C11.3739 16.7325 12.1522 16.6958 12.1522 16.6867V16.879C11.9106 16.9004 11.6689 16.8386 11.4673 16.7036C11.2658 16.5687 11.1165 16.3688 11.0442 16.1373C11.0059 15.9748 11.0208 15.8044 11.0868 15.651C11.1527 15.4977 11.2662 15.3696 11.4105 15.2857Z" fill="black"/>
<path d="M11.6453 15.3495C11.6165 15.4127 11.6015 15.4814 11.6015 15.5509C11.6015 15.6204 11.6165 15.6891 11.6453 15.7524C11.7299 15.8478 11.8479 15.9068 11.975 15.9172V16.1003C11.8852 16.0937 11.7977 16.0692 11.7175 16.0283C11.6373 15.9874 11.5661 15.931 11.508 15.8623C11.4549 15.7804 11.4215 15.6874 11.4104 15.5905C11.3992 15.4936 11.4107 15.3954 11.4439 15.3037L11.6453 15.3495Z" fill="black"/>
<path d="M26.6487 2.59443C26.4198 1.7978 28.7364 0.103821 29.1942 0.470087C29.3419 0.584699 29.461 0.732014 29.5422 0.900448C29.5422 0.900448 30.4578 0.213701 30.9157 0.625749C31.1392 0.560562 31.3772 0.565081 31.5981 0.638702C31.819 0.712324 32.0121 0.851548 32.1518 1.0378C32.1518 1.0378 33.2964 0.40599 33.8641 2.14575C34.1296 2.96069 33.8641 3.44599 32.9484 3.40937L32.5089 2.15491C33.4978 5.02093 33.1499 6.34865 32.4448 6.9072C32.1976 10.0662 31.7856 12.4744 31.7856 12.4744L26.8959 10.7438C26.8959 10.7438 28.7272 6.09226 28.6082 5.65274C28.2511 4.5631 26.8684 3.39105 26.6487 2.59443Z" fill="white"/>
<path d="M31.7814 12.5754L26.9009 10.8448C26.888 10.8409 26.8762 10.8338 26.8666 10.8242C26.857 10.8147 26.8499 10.8029 26.846 10.7899C26.8417 10.7797 26.8395 10.7688 26.8395 10.7578C26.8395 10.7468 26.8417 10.7359 26.846 10.7258C27.5511 8.89446 28.6773 5.99181 28.5491 5.68964C28.2829 5.06751 27.9181 4.49241 27.4686 3.98651C27.0859 3.58536 26.7761 3.12057 26.553 2.61301C26.3973 2.05446 27.2947 1.21205 27.9356 0.781685C28.2286 0.589395 28.9429 0.159034 29.245 0.397107C29.3733 0.501253 29.4846 0.624836 29.5747 0.763372C29.8127 0.598552 30.4903 0.19566 30.9299 0.525299C31.1536 0.470248 31.3881 0.477867 31.6078 0.547321C31.8275 0.616775 32.0238 0.745381 32.1752 0.919035C32.4459 0.812855 32.7468 0.812855 33.0176 0.919035C33.2477 1.04343 33.4484 1.21566 33.6064 1.42415C33.7643 1.63264 33.8758 1.87254 33.9332 2.12771C34.0113 2.29386 34.0479 2.47645 34.0399 2.65985C34.032 2.84325 33.9796 3.02198 33.8874 3.18072C33.7787 3.30034 33.6432 3.39256 33.492 3.44985C33.3409 3.50713 33.1783 3.52787 33.0176 3.51036H32.9718C33.3655 5.2135 33.2099 6.36723 32.5048 6.96241C32.2667 10.0757 31.8547 12.4564 31.8547 12.5113C31.8589 12.5325 31.8589 12.5543 31.8547 12.5754H31.7814ZM27.0108 10.6983L31.7082 12.3648C31.7906 11.8612 32.1294 9.61784 32.34 6.87085C32.3341 6.84988 32.3341 6.82771 32.34 6.80675C33.1732 6.14747 33.1915 4.53591 32.34 2.15518C32.3358 2.14376 32.3339 2.13162 32.3343 2.11945C32.3348 2.10729 32.3377 2.09534 32.3428 2.08428C32.3531 2.06196 32.3718 2.04464 32.3949 2.03614C32.418 2.02764 32.4435 2.02866 32.4658 2.03896C32.4881 2.04926 32.5055 2.06801 32.514 2.09108L32.9993 3.31807C33.1312 3.33022 33.2642 3.31359 33.3891 3.26932C33.514 3.22506 33.6278 3.15422 33.7226 3.06169C33.7972 2.9206 33.8362 2.76344 33.8362 2.60386C33.8362 2.44428 33.7972 2.28711 33.7226 2.14602C33.6741 1.91251 33.5753 1.69239 33.433 1.50103C33.2906 1.30967 33.1082 1.15167 32.8985 1.03807C32.778 0.982288 32.6468 0.953394 32.514 0.953394C32.3811 0.953394 32.2499 0.982288 32.1294 1.03807C32.1128 1.05226 32.0917 1.06005 32.0699 1.06005C32.048 1.06005 32.0269 1.05226 32.0103 1.03807C31.8818 0.870114 31.7053 0.745158 31.5042 0.679752C31.3031 0.614346 31.0868 0.611575 30.8841 0.671805C30.8715 0.679038 30.8573 0.682847 30.8429 0.682847C30.8284 0.682847 30.8142 0.679038 30.8017 0.671805C30.3621 0.30554 29.5472 0.937348 29.538 0.937348C29.5269 0.943777 29.5143 0.947162 29.5014 0.947162C29.4886 0.947162 29.4759 0.943777 29.4648 0.937348C29.4547 0.941629 29.4438 0.943835 29.4327 0.943835C29.4217 0.943835 29.4108 0.941629 29.4007 0.937348C29.3248 0.781121 29.2154 0.643557 29.0802 0.534456C28.9612 0.452046 28.5491 0.534456 27.9814 0.937348C27.2489 1.42265 26.5621 2.16434 26.6812 2.56723C26.8846 3.04613 27.1697 3.48607 27.5236 3.86747C27.9869 4.3921 28.3612 4.98908 28.6315 5.6347C28.833 6.06506 27.3862 9.72772 27.0108 10.6983Z" fill="#020302"/>
<path d="M32.1562 0.964536V1.14767C32.1562 1.14767 31.8632 1.14767 31.442 2.06333L31.2589 1.98092C31.735 0.973693 32.0921 0.95538 32.1562 0.964536ZM30.8743 0.570801L30.9476 0.744776C30.7005 0.869502 30.4962 1.06505 30.3608 1.30644C30.2255 1.54784 30.1651 1.82411 30.1876 2.09996H29.9953C29.9737 1.78665 30.0458 1.47399 30.2023 1.20172C30.3588 0.929447 30.5927 0.709841 30.8743 0.570801ZM28.6584 1.97177C28.8862 1.5157 29.1967 1.10587 29.5741 0.76309L29.7022 0.900439C29.3216 1.2615 29.0112 1.68993 28.7866 2.16406L28.7316 2.27393L28.1914 1.84357L28.3104 1.69707L28.6584 1.97177Z" fill="black"/>
<path d="M26.0774 6.33057C26.0774 6.33057 23.9806 12.7402 23.1473 14.9195C22.3141 17.0988 21.1237 22.1441 14.3203 21.2193L18.7888 31.6487C31.1227 25.5778 34.2543 10.2679 34.2543 10.2679C31.9651 7.43852 26.0774 6.33057 26.0774 6.33057Z" fill="#7500FD"/>
<path d="M18.791 31.7029C18.7734 31.7026 18.7563 31.6972 18.7417 31.6875C18.7271 31.6778 18.7156 31.664 18.7086 31.6479C18.6992 31.626 18.6988 31.6014 18.7073 31.5791C18.7159 31.5569 18.7327 31.5389 18.7543 31.5289C30.5847 25.7419 33.9635 11.192 34.1558 10.2855C32.004 7.72164 26.8305 6.57706 26.1438 6.43056C25.8965 7.17224 24.0103 12.9135 23.2411 14.9554C23.177 15.1202 23.1038 15.3033 23.0397 15.5048C22.2064 17.8306 20.6589 22.1708 14.3134 21.3101C14.3013 21.3089 14.2896 21.3054 14.279 21.2997C14.2683 21.294 14.2588 21.2863 14.2512 21.2769C14.2435 21.2676 14.2378 21.2568 14.2343 21.2452C14.2308 21.2336 14.2297 21.2214 14.231 21.2094C14.2321 21.1973 14.2356 21.1856 14.2413 21.1749C14.247 21.1643 14.2548 21.1548 14.2641 21.1472C14.2735 21.1395 14.2843 21.1338 14.2959 21.1303C14.3075 21.1268 14.3197 21.1257 14.3317 21.127C20.5307 21.9694 22.0507 17.7207 22.8657 15.4407C22.9389 15.2392 23.003 15.0561 23.0671 14.8913C23.8912 12.7212 25.9698 6.36646 25.9972 6.30236C25.9994 6.29141 26.0038 6.281 26.01 6.27178C26.0163 6.26256 26.0244 6.25472 26.0339 6.24872C26.0433 6.24273 26.0538 6.23871 26.0648 6.23691C26.0759 6.23512 26.0871 6.23558 26.098 6.23827C26.1529 6.23827 32.004 7.392 34.3389 10.2031C34.3474 10.2299 34.3474 10.2587 34.3389 10.2855C34.3389 10.4412 31.0517 25.7053 18.7727 31.7303L18.791 31.7029Z" fill="#020302"/>
<path d="M37.9157 17.5102H40.7176L39.1701 23.0042L45.241 17.5102H50.735C50.9778 17.5102 51.2107 17.4137 51.3824 17.242C51.5541 17.0703 51.6506 16.8374 51.6506 16.5945V5.60658C51.6506 5.36373 51.5541 5.13083 51.3824 4.95911C51.2107 4.78739 50.9778 4.69092 50.735 4.69092H37.9157C37.6728 4.69092 37.4399 4.78739 37.2682 4.95911C37.0965 5.13083 37 5.36373 37 5.60658V16.5945C37 16.8374 37.0965 17.0703 37.2682 17.242C37.4399 17.4137 37.6728 17.5102 37.9157 17.5102Z" fill="#84BB00"/>
<path d="M39.1718 23.0963C39.159 23.0826 39.1518 23.0646 39.1518 23.0459C39.1518 23.0272 39.159 23.0091 39.1718 22.9955L40.6827 17.6206H37.9174C37.6503 17.6206 37.3941 17.5145 37.2052 17.3256C37.0163 17.1367 36.9102 16.8805 36.9102 16.6134V5.62539C36.9102 5.35826 37.0163 5.10207 37.2052 4.91317C37.3941 4.72428 37.6503 4.61816 37.9174 4.61816H50.7367C51.0038 4.61816 51.26 4.72428 51.4489 4.91317C51.6378 5.10207 51.7439 5.35826 51.7439 5.62539V16.6134C51.7439 16.8805 51.6378 17.1367 51.4489 17.3256C51.26 17.5145 51.0038 17.6206 50.7367 17.6206H45.2427L39.1993 23.1146C39.189 23.1104 39.1797 23.1041 39.1718 23.0963ZM37.9174 4.78298C37.6988 4.78298 37.4892 4.86981 37.3347 5.02436C37.1801 5.1789 37.0933 5.38852 37.0933 5.60708V16.595C37.0933 16.8136 37.1801 17.0232 37.3347 17.1778C37.4892 17.3323 37.6988 17.4191 37.9174 17.4191H40.7193C40.7307 17.4135 40.7432 17.4106 40.7559 17.4106C40.7686 17.4106 40.7812 17.4135 40.7926 17.4191C40.8024 17.4457 40.8024 17.475 40.7926 17.5015L39.3275 22.6842L45.1603 17.4008H45.2244H50.7184C50.8266 17.4008 50.9337 17.3795 51.0337 17.3381C51.1337 17.2967 51.2246 17.236 51.3011 17.1595C51.3776 17.0829 51.4383 16.9921 51.4797 16.8921C51.5211 16.7921 51.5425 16.685 51.5425 16.5767V5.58877C51.5425 5.48054 51.5211 5.37338 51.4797 5.2734C51.4383 5.17342 51.3776 5.08257 51.3011 5.00604C51.2246 4.92952 51.1337 4.86882 51.0337 4.8274C50.9337 4.78599 50.8266 4.76467 50.7184 4.76467L37.9174 4.78298Z" fill="#020302"/>
<path d="M42.9747 15.6426L38.8359 11.5038L40.4475 9.88309L42.9747 12.4103L48.2123 7.16357L49.8239 8.7843L42.9747 15.6426Z" fill="white"/>
</svg>
