<svg width="55" height="45" viewBox="0 0 55 45" fill="none" xmlns="http://www.w3.org/2000/svg">
<path d="M38.0605 35.3662H30.4414V44.8901H38.0605V35.3662Z" fill="#020302"/>
<path d="M54.2544 4.88916H14.2539V34.3371C14.2539 34.6099 14.3623 34.8716 14.5552 35.0645C14.7481 35.2574 15.0097 35.3657 15.2825 35.3657H53.2258C53.4986 35.3657 53.7602 35.2574 53.9531 35.0645C54.146 34.8716 54.2544 34.6099 54.2544 34.3371V4.88916Z" fill="white"/>
<path d="M53.2279 35.4621H15.2846C14.9865 35.4621 14.7007 35.3437 14.4899 35.1329C14.2792 34.9222 14.1608 34.6363 14.1608 34.3383V4.89027C14.1592 4.8774 14.1606 4.86434 14.1649 4.85209C14.1691 4.83984 14.1761 4.82871 14.1853 4.81954C14.1944 4.81037 14.2056 4.8034 14.2178 4.79916C14.2301 4.79491 14.2431 4.7935 14.256 4.79503H54.2565C54.2694 4.7935 54.2824 4.79491 54.2947 4.79916C54.3069 4.8034 54.3181 4.81037 54.3272 4.81954C54.3364 4.82871 54.3434 4.83984 54.3476 4.85209C54.3519 4.86434 54.3533 4.8774 54.3517 4.89027V34.3383C54.3517 34.6363 54.2333 34.9222 54.0226 35.1329C53.8118 35.3437 53.526 35.4621 53.2279 35.4621ZM14.3512 4.98551V34.3383C14.3512 34.5909 14.4516 34.8331 14.6302 35.0117C14.8088 35.1903 15.051 35.2907 15.3036 35.2907H53.2279C53.4805 35.2907 53.7228 35.1903 53.9014 35.0117C54.08 34.8331 54.1803 34.5909 54.1803 34.3383V4.98551H14.3512Z" fill="#020302"/>
<path d="M15.2063 1.08057H53.302C53.5546 1.08057 53.7968 1.18091 53.9755 1.35952C54.1541 1.53812 54.2544 1.78037 54.2544 2.03296V4.89014H14.2539V2.03296C14.2539 1.78037 14.3542 1.53812 14.5329 1.35952C14.7115 1.18091 14.9537 1.08057 15.2063 1.08057Z" fill="#00B243"/>
<path d="M54.2565 4.9854H14.256C14.2431 4.98693 14.2301 4.98552 14.2178 4.98128C14.2056 4.97703 14.1944 4.97007 14.1853 4.9609C14.1761 4.95173 14.1691 4.9406 14.1649 4.92835C14.1606 4.9161 14.1592 4.90304 14.1608 4.89016V2.03298C14.1608 1.75513 14.2711 1.48867 14.4676 1.2922C14.6641 1.09573 14.9305 0.985352 15.2084 0.985352H53.3041C53.582 0.985352 53.8484 1.09573 54.0449 1.2922C54.2414 1.48867 54.3517 1.75513 54.3517 2.03298V4.89016C54.3533 4.90304 54.3519 4.9161 54.3476 4.92835C54.3434 4.9406 54.3364 4.95173 54.3272 4.9609C54.3181 4.97007 54.3069 4.97703 54.2947 4.98128C54.2824 4.98552 54.2694 4.98693 54.2565 4.9854ZM14.3512 4.79492H54.1613V2.03298C54.1613 1.80565 54.071 1.58763 53.9102 1.42688C53.7495 1.26614 53.5314 1.17583 53.3041 1.17583H15.2084C14.9811 1.17583 14.763 1.26614 14.6023 1.42688C14.4415 1.58763 14.3512 1.80565 14.3512 2.03298V4.79492Z" fill="#020302"/>
<path d="M16.1559 3.46118C16.4189 3.46118 16.6321 3.24798 16.6321 2.98499C16.6321 2.72199 16.4189 2.50879 16.1559 2.50879C15.8929 2.50879 15.6797 2.72199 15.6797 2.98499C15.6797 3.24798 15.8929 3.46118 16.1559 3.46118Z" fill="white"/>
<path d="M18.5348 3.46118C18.7978 3.46118 19.011 3.24798 19.011 2.98499C19.011 2.72199 18.7978 2.50879 18.5348 2.50879C18.2718 2.50879 18.0586 2.72199 18.0586 2.98499C18.0586 3.24798 18.2718 3.46118 18.5348 3.46118Z" fill="white"/>
<path d="M20.9215 3.46118C21.1845 3.46118 21.3977 3.24798 21.3977 2.98499C21.3977 2.72199 21.1845 2.50879 20.9215 2.50879C20.6585 2.50879 20.4453 2.72199 20.4453 2.98499C20.4453 3.24798 20.6585 3.46118 20.9215 3.46118Z" fill="white"/>
<path d="M46.6372 12.5093H21.875V31.5571H46.6372V12.5093Z" fill="#FDBA40"/>
<path d="M46.6393 31.6525H21.8771C21.8642 31.654 21.8512 31.6526 21.8389 31.6484C21.8267 31.6441 21.8155 31.6372 21.8064 31.628C21.7972 31.6188 21.7902 31.6077 21.786 31.5955C21.7817 31.5832 21.7803 31.5701 21.7818 31.5573V12.5094C21.7803 12.4965 21.7817 12.4835 21.786 12.4712C21.7902 12.459 21.7972 12.4478 21.8064 12.4387C21.8155 12.4295 21.8267 12.4225 21.8389 12.4183C21.8512 12.4141 21.8642 12.4126 21.8771 12.4142H46.6393C46.6522 12.4126 46.6652 12.4141 46.6775 12.4183C46.6897 12.4225 46.7009 12.4295 46.71 12.4387C46.7192 12.4478 46.7262 12.459 46.7304 12.4712C46.7347 12.4835 46.7361 12.4965 46.7345 12.5094V31.5573C46.7361 31.5701 46.7347 31.5832 46.7304 31.5955C46.7262 31.6077 46.7192 31.6188 46.71 31.628C46.7009 31.6372 46.6897 31.6441 46.6775 31.6484C46.6652 31.6526 46.6522 31.654 46.6393 31.6525ZM21.9723 31.462H46.5441V12.6047H21.9723V31.462Z" fill="black"/>
<path d="M29.4956 26.7949H23.7812V29.6521H29.4956V26.7949Z" fill="white"/>
<path d="M37.1089 17.2712L34.2517 15.3665L31.3945 17.2712V12.5093H37.1089V17.2712Z" fill="white"/>
<path d="M37.111 17.3669H37.0538L34.2538 15.4621L31.4538 17.3669C31.4372 17.3739 31.4194 17.3776 31.4014 17.3776C31.3834 17.3776 31.3656 17.3739 31.349 17.3669C31.3347 17.3575 31.3228 17.3449 31.3145 17.3299C31.3062 17.315 31.3017 17.2982 31.3014 17.2811V12.5192C31.2999 12.5063 31.3013 12.4932 31.3055 12.481C31.3097 12.4687 31.3167 12.4576 31.3259 12.4484C31.3351 12.4393 31.3462 12.4323 31.3584 12.4281C31.3707 12.4238 31.3837 12.4224 31.3966 12.4239H37.111C37.1239 12.4224 37.1369 12.4238 37.1492 12.4281C37.1614 12.4323 37.1725 12.4393 37.1817 12.4484C37.1909 12.4576 37.1978 12.4687 37.2021 12.481C37.2063 12.4932 37.2077 12.5063 37.2062 12.5192V17.2811C37.2059 17.2982 37.2014 17.315 37.1931 17.3299C37.1848 17.3449 37.1729 17.3575 37.1586 17.3669H37.111ZM34.2538 15.2716C34.2627 15.2674 34.2725 15.2652 34.2824 15.2652C34.2923 15.2652 34.302 15.2674 34.3109 15.2716L37.0157 17.0716V12.6049H31.4919V17.0907L34.1967 15.2906C34.204 15.2832 34.213 15.2776 34.223 15.2743C34.2329 15.271 34.2434 15.2701 34.2538 15.2716Z" fill="#020302"/>
<path d="M15.4031 21.9663C15.339 23.1258 15.4319 24.2888 15.6793 25.4235C15.6793 25.4235 10.403 23.7853 8.8125 23.7853C8.98128 22.9199 9.0484 22.0377 9.0125 21.1567L15.4031 21.9663Z" fill="white"/>
<path d="M15.6785 25.5183C15.6213 25.5183 10.4022 23.8897 8.84028 23.8897C8.81579 23.8992 8.78859 23.8992 8.76409 23.8897C8.75739 23.8764 8.75391 23.8617 8.75391 23.8468C8.75391 23.8319 8.75739 23.8173 8.76409 23.804C8.94698 22.9498 9.03008 22.0773 9.01172 21.2039C9.01022 21.1898 9.0119 21.1755 9.01663 21.1621C9.02136 21.1487 9.02903 21.1366 9.03908 21.1265C9.04912 21.1165 9.06129 21.1088 9.07468 21.1041C9.08807 21.0993 9.10235 21.0977 9.11648 21.0992L15.488 21.9087C15.5001 21.9086 15.5121 21.9111 15.5231 21.916C15.5342 21.9209 15.5441 21.9281 15.5522 21.9371C15.5603 21.9461 15.5664 21.9567 15.5701 21.9682C15.5738 21.9797 15.575 21.9919 15.5737 22.0039C15.5048 23.1523 15.5849 24.3047 15.8118 25.4326C15.8212 25.4466 15.8262 25.4632 15.8262 25.4802C15.8262 25.4971 15.8212 25.5137 15.8118 25.5278C15.8105 25.5455 15.8023 25.5619 15.7889 25.5735C15.7755 25.5851 15.7581 25.591 15.7404 25.5897C15.7227 25.5884 15.7062 25.5802 15.6946 25.5668C15.683 25.5534 15.6772 25.5359 15.6785 25.5183ZM8.926 23.6992C11.1873 24.0454 13.4168 24.5742 15.5928 25.2802C15.3907 24.2166 15.3171 23.1327 15.3737 22.0516L9.21172 21.2611C9.19492 22.0827 9.08955 22.9002 8.89743 23.6992H8.926Z" fill="#020302"/>
<path d="M20.7697 44.8907H0.921875C0.921875 31.4334 8.78864 23.7856 8.78864 23.7856C8.78864 23.7856 16.9602 23.919 18.6269 25.5666C20.0935 27.0143 20.7697 44.8907 20.7697 44.8907Z" fill="#00B343"/>
<path d="M20.7663 44.9861H0.918385C0.905509 44.9876 0.892453 44.9862 0.880201 44.982C0.867949 44.9777 0.85682 44.9707 0.847651 44.9616C0.838483 44.9524 0.831514 44.9413 0.827269 44.929C0.823024 44.9168 0.821614 44.9037 0.823145 44.8908C0.718158 37.0952 3.53469 29.5425 8.71848 23.7191C8.72903 23.7147 8.74037 23.7124 8.75182 23.7124C8.76327 23.7124 8.7746 23.7147 8.78515 23.7191C9.11849 23.7191 17.0138 23.8715 18.69 25.5287C20.1662 26.9859 20.8329 44.1861 20.8615 44.9194C20.8688 44.941 20.8688 44.9645 20.8615 44.9861C20.8474 44.9955 20.8308 45.0005 20.8139 45.0005C20.7969 45.0005 20.7803 44.9955 20.7663 44.9861ZM1.01362 44.7956H20.6615C20.6043 43.3575 19.9186 26.9859 18.5567 25.6335C16.9948 24.0906 9.4423 23.9001 8.82325 23.8811C3.72486 29.6479 0.942747 37.0985 1.01362 44.7956Z" fill="#020302"/>
<path d="M17.652 16.5086C17.7015 16.1145 17.8828 15.7487 18.1663 15.4705C18.8002 14.7605 19.1643 13.8503 19.1949 12.899C19.2412 12.6545 19.2352 12.4029 19.1773 12.1608C19.1193 11.9187 19.0107 11.6917 18.8587 11.4946C18.7066 11.2975 18.5145 11.1349 18.295 11.0175C18.0755 10.9001 17.8337 10.8305 17.5854 10.8133C18.1167 10.556 18.5268 10.1016 18.7282 9.54661L18.7949 9.32756L18.5854 9.41328C18.462 9.42842 18.3373 9.42842 18.2139 9.41328C17.1293 9.35852 16.0535 9.18932 15.0044 8.90851C14.3811 8.75423 13.7417 8.67431 13.0996 8.67041C10.9758 8.67041 10.4329 9.84185 10.2996 10.28C10.0539 10.1261 9.77031 10.0437 9.48049 10.0419C8.75667 10.0419 8.07095 10.5847 7.57571 11.5847C6.93483 12.9009 6.63392 14.3566 6.70047 15.819C6.76701 17.2814 7.19889 18.7038 7.95666 19.9563C8.38547 20.684 8.99461 21.2889 9.7253 21.7126C10.456 22.1364 11.2836 22.3646 12.1281 22.3753C14.104 22.2337 15.9843 21.4703 17.4996 20.1944C18.9473 19.1372 18.452 18.1943 18.0139 17.442C17.8193 17.1648 17.6951 16.8445 17.652 16.5086Z" fill="black"/>
<path d="M18.0724 19.3767C17.9267 17.8038 17.6978 16.2397 17.3867 14.6909C16.8057 11.9957 14.9486 13.0814 14.9486 13.0814C12.2628 12.3957 9.76754 13.8052 9.65326 14.71C9.58052 15.4759 9.55825 16.2459 9.58659 17.0148C9.16476 17.0148 8.76022 17.1823 8.46194 17.4806C8.16366 17.7789 7.99609 18.1834 7.99609 18.6053C7.99609 19.0271 8.16366 19.4316 8.46194 19.7299C8.76022 20.0282 9.16476 20.1958 9.58659 20.1958C9.70038 20.2108 9.81566 20.2108 9.92945 20.1958C10.1104 21.4148 10.3295 22.9672 11.358 23.9006C12.0152 24.491 13.3676 23.7387 13.7962 24.853C14.5278 24.8753 15.2557 24.7407 15.9309 24.4581C16.6061 24.1756 17.2129 23.7516 17.7105 23.2148C18.4343 22.3291 18.1581 20.6053 18.0724 19.3767Z" fill="white"/>
<path d="M13.7776 24.9282C13.7577 24.9298 13.7379 24.9252 13.7208 24.9149C13.7037 24.9047 13.6903 24.8893 13.6823 24.871C13.4538 24.271 12.949 24.252 12.3966 24.2234C12.0018 24.2615 11.6065 24.1568 11.2823 23.9282C10.2442 22.9758 10.0061 21.4996 9.83468 20.271H9.56801C9.12093 20.2811 8.68814 20.1132 8.36486 19.8042C8.04158 19.4952 7.85428 19.0704 7.84418 18.6233C7.83408 18.1762 8.00199 17.7435 8.31098 17.4202C8.61998 17.0969 9.04474 16.9096 9.49182 16.8995C9.46782 16.1591 9.49009 15.418 9.55849 14.6804C9.62027 14.4646 9.72455 14.2633 9.8652 14.0883C10.0058 13.9133 10.18 13.7681 10.3775 13.6614C11.0531 13.2511 11.8038 12.98 12.5855 12.8639C13.3673 12.7478 14.1644 12.789 14.93 12.9852C15.1466 12.8702 15.3854 12.8031 15.6302 12.7883C15.875 12.7735 16.1201 12.8114 16.3491 12.8995C16.6634 13.0854 16.9298 13.3426 17.1266 13.6503C17.3235 13.9579 17.4453 14.3075 17.4824 14.6709C17.795 16.2258 18.0239 17.7963 18.1681 19.3757C18.1681 19.5376 18.1681 19.6995 18.2157 19.871C18.311 21.0329 18.4348 22.4805 17.7681 23.271C17.2595 23.8157 16.6403 24.2453 15.952 24.5311C15.2638 24.8169 14.5224 24.9523 13.7776 24.9282ZM9.91087 20.0614H9.96802C9.97294 20.0834 9.97294 20.1062 9.96802 20.1281C10.149 21.3567 10.368 22.871 11.368 23.7663C11.6478 23.9553 11.984 24.0427 12.3204 24.0139C12.8633 24.0139 13.4633 24.0139 13.749 24.7186C14.4614 24.7394 15.1701 24.6074 15.8272 24.3314C16.4843 24.0554 17.0747 23.6419 17.5586 23.1186C18.1872 22.3948 18.0634 20.9853 17.9681 19.8519C17.9681 19.69 17.9681 19.5186 17.9205 19.3662C17.7777 17.7961 17.5487 16.235 17.2348 14.69C17.2048 14.355 17.097 14.0316 16.9201 13.7456C16.7432 13.4596 16.502 13.2188 16.2157 13.0423C16.0083 12.9655 15.7865 12.9351 15.566 12.9532C15.3455 12.9713 15.1317 13.0374 14.9395 13.1471H14.9205C14.174 12.9529 13.3959 12.9119 12.6332 13.0265C11.8704 13.1411 11.1388 13.4089 10.4823 13.8137C10.1322 14.0027 9.86926 14.3203 9.74897 14.6995C9.67538 15.459 9.65311 16.2227 9.6823 16.9852C9.68675 16.9958 9.68905 17.0071 9.68905 17.0186C9.68905 17.03 9.68675 17.0413 9.6823 17.0519C9.67191 17.0569 9.66052 17.0596 9.64897 17.0596C9.63742 17.0596 9.62602 17.0569 9.61563 17.0519C9.41927 17.0519 9.22483 17.0906 9.04342 17.1657C8.86201 17.2408 8.69717 17.351 8.55832 17.4898C8.41948 17.6287 8.30934 17.7935 8.23419 17.9749C8.15905 18.1563 8.12037 18.3508 8.12037 18.5471C8.12037 18.7435 8.15905 18.9379 8.23419 19.1193C8.30934 19.3008 8.41948 19.4656 8.55832 19.6044C8.69717 19.7433 8.86201 19.8534 9.04342 19.9286C9.22483 20.0037 9.41927 20.0424 9.61563 20.0424C9.72334 20.0522 9.83173 20.0522 9.93944 20.0424L9.91087 20.0614Z" fill="#020302"/>
<path d="M18.0819 19.3756C18.0819 19.2232 18.0819 19.0232 18.0153 18.8137C17.596 19.0659 17.114 19.1946 16.6248 19.1851C16.0794 19.1204 15.5428 18.9959 15.0248 18.8137C14.3804 18.7066 13.7195 18.8497 13.1771 19.2137C12.6152 19.7179 11.8936 20.0079 11.139 20.0327C10.686 20.0435 10.2384 19.9316 9.84375 19.7089C10.0438 20.9661 10.1771 22.8137 11.339 23.8518C11.9962 24.4518 13.3486 23.6994 13.7771 24.8042C14.5084 24.8241 15.2356 24.6884 15.9104 24.406C16.5852 24.1236 17.1923 23.7009 17.6915 23.1661C18.4343 22.328 18.1581 20.6042 18.0819 19.3756ZM15.2248 20.8613C15.029 20.9443 14.8183 20.9864 14.6057 20.9851C14.3977 20.993 14.1908 20.9513 14.002 20.8636C13.8133 20.7758 13.6481 20.6445 13.52 20.4804C13.475 20.4214 13.4461 20.3518 13.4361 20.2784C13.4261 20.2049 13.4353 20.1301 13.4628 20.0613C13.4628 20.0613 13.52 20.0613 13.6819 20.0613H13.9581H14.4152C14.9291 20.0676 15.4396 19.9772 15.92 19.7946C16.0534 19.7375 16.1962 19.728 16.2343 19.7946C16.2444 19.8353 16.2444 19.8778 16.2343 19.9184C16.1437 20.1373 16.0078 20.3346 15.8354 20.4971C15.663 20.6596 15.4581 20.7837 15.2343 20.8613H15.2248ZM15.6819 14.9755L15.7581 15.1755C16.3018 15.0523 16.8703 15.0988 17.3867 15.3089L17.4629 15.0993C16.8977 14.8689 16.2736 14.8255 15.6819 14.9755ZM11.7295 15.2803L11.8342 15.4708C12.2932 15.1451 12.8429 14.9719 13.4057 14.9755V14.7565C12.8058 14.7508 12.2194 14.934 11.7295 15.2803ZM12.5104 16.5279C12.4613 16.5266 12.4124 16.5353 12.3668 16.5535C12.3211 16.5717 12.2796 16.599 12.2449 16.6338C12.2101 16.6686 12.1828 16.71 12.1646 16.7557C12.1464 16.8013 12.1377 16.8502 12.139 16.8994C12.139 16.9979 12.1781 17.0923 12.2478 17.162C12.3175 17.2317 12.4119 17.2708 12.5104 17.2708C12.6082 17.2684 12.7013 17.2285 12.7704 17.1593C12.8396 17.0902 12.8795 16.9971 12.8819 16.8994C12.8819 16.8009 12.8427 16.7064 12.7731 16.6367C12.7034 16.5671 12.609 16.5279 12.5104 16.5279ZM16.3772 16.0898C16.3241 16.0812 16.2697 16.0843 16.2179 16.0988C16.1661 16.1132 16.1181 16.1388 16.0771 16.1737C16.0361 16.2085 16.0032 16.2519 15.9807 16.3007C15.9581 16.3496 15.9464 16.4027 15.9464 16.4565C15.9464 16.5103 15.9581 16.5634 15.9807 16.6123C16.0032 16.6611 16.0361 16.7045 16.0771 16.7393C16.1181 16.7742 16.1661 16.7998 16.2179 16.8142C16.2697 16.8287 16.3241 16.8318 16.3772 16.8232C16.4303 16.8318 16.4846 16.8287 16.5364 16.8142C16.5882 16.7998 16.6363 16.7742 16.6772 16.7393C16.7182 16.7045 16.7511 16.6611 16.7736 16.6123C16.7962 16.5634 16.8079 16.5103 16.8079 16.4565C16.8079 16.4027 16.7962 16.3496 16.7736 16.3007C16.7511 16.2519 16.7182 16.2085 16.6772 16.1737C16.6363 16.1388 16.5882 16.1132 16.5364 16.0988C16.4846 16.0843 16.4303 16.0812 16.3772 16.0898ZM14.7295 17.5756L14.6819 17.7946C14.7236 17.7992 14.7639 17.8126 14.8 17.8339C14.8361 17.8553 14.8673 17.8841 14.8914 17.9184C14.8914 18.0041 14.8248 18.1375 14.7867 18.1756L14.9581 18.3184C15.0149 18.256 15.0572 18.1818 15.0819 18.1011C15.1066 18.0204 15.1131 17.9353 15.101 17.8518C15.0676 17.7779 15.0161 17.7138 14.9511 17.6655C14.8861 17.6172 14.8098 17.5862 14.7295 17.5756Z" fill="black"/>
<path d="M40.9971 40.1285C38.4161 40.1285 36.1589 42.0333 36.1589 44.4429C36.1502 44.5919 36.1502 44.7414 36.1589 44.8905H45.6257C45.6345 44.7414 45.6345 44.5919 45.6257 44.4429C45.5737 43.2605 45.0595 42.1459 44.1938 41.339C43.3281 40.5321 42.1801 40.0974 40.9971 40.1285Z" fill="#00B343"/>
<path d="M45.6587 44.9854H36.1919C36.1688 44.9836 36.1469 44.9743 36.1297 44.9588C36.1125 44.9433 36.1009 44.9225 36.0967 44.8997C36.0876 44.7474 36.0876 44.5948 36.0967 44.4425C36.0967 42.052 38.3539 40.0329 41.0301 40.0329C42.2449 39.9916 43.4268 40.4318 44.3186 41.2577C45.2105 42.0835 45.74 43.2282 45.7921 44.4425C45.801 44.5948 45.801 44.7474 45.7921 44.8997C45.7899 44.9146 45.7846 44.9288 45.7765 44.9415C45.7684 44.9541 45.7577 44.9649 45.745 44.973C45.7324 44.9811 45.7181 44.9865 45.7032 44.9886C45.6883 44.9907 45.6732 44.9896 45.6587 44.9854ZM36.2777 44.7949H45.573C45.573 44.6711 45.573 44.5568 45.573 44.4425C45.5211 43.2752 45.0089 42.1761 44.1487 41.3854C43.2884 40.5947 42.15 40.1769 40.9825 40.2234C38.411 40.2234 36.2205 42.1282 36.2205 44.4425C36.2586 44.5568 36.2681 44.6711 36.2777 44.7949Z" fill="#020302"/>
<path d="M38.9261 38.4048H38.8308C37.9828 38.8119 37.1893 39.3238 36.4689 39.9286C36.0583 40.2701 35.6149 40.57 35.1451 40.8239C35.0917 40.8355 35.0365 40.8355 34.9832 40.8239C33.3643 40.6209 31.7585 40.3252 30.1736 39.9381L28.3164 44.843C29.3545 44.843 31.7736 44.843 35.8689 44.843C40.1451 44.843 40.8308 44.5477 40.9166 44.5001C41.0274 44.4523 41.127 44.3818 41.209 44.2932C41.291 44.2047 41.3536 44.1 41.3928 43.9858C41.4071 43.8722 41.3801 43.7573 41.3166 43.662L41.2213 43.5477L41.3928 43.462C41.4373 43.4387 41.4754 43.4048 41.5036 43.3633C41.5319 43.3217 41.5494 43.2739 41.5547 43.2239C41.5547 42.9667 41.2118 42.6334 41.0785 42.5286L40.9356 42.4144L41.088 42.3096C41.1712 42.2672 41.2415 42.2034 41.2918 42.1247C41.342 42.046 41.3703 41.9553 41.3737 41.862C41.3737 41.4524 40.7261 40.9953 40.4785 40.8524L40.6118 40.6239C41.0467 40.8458 41.4502 41.1244 41.8118 41.4524C42.0018 41.664 42.2317 41.836 42.4883 41.9585C42.7449 42.0811 43.0231 42.1519 43.3071 42.1667C43.3947 42.1878 43.4861 42.1878 43.5737 42.1667C43.5737 42.1667 43.5737 42.081 43.4975 41.9191C42.869 40.862 39.8308 38.4048 38.9261 38.4048Z" fill="white"/>
<path d="M29.8218 44.9858H28.3171C28.3052 44.9917 28.2922 44.9948 28.279 44.9948C28.2657 44.9948 28.2527 44.9917 28.2409 44.9858C28.234 44.9709 28.2305 44.9546 28.2305 44.9382C28.2305 44.9218 28.234 44.9055 28.2409 44.8906L30.1456 39.9858C30.1542 39.9638 30.1707 39.9457 30.1918 39.9352C30.2129 39.9246 30.2372 39.9223 30.2599 39.9286C31.8292 40.3138 33.4191 40.6095 35.0219 40.8143H35.1552C35.6099 40.5588 36.0402 40.2624 36.441 39.9286C37.1757 39.3146 37.9854 38.7962 38.8505 38.3857H38.9648C39.9172 38.3857 42.9553 40.8429 43.5744 41.9382C43.5744 42.0334 43.6982 42.1953 43.6506 42.281C43.5491 42.3556 43.4234 42.3896 43.2982 42.3763C42.9897 42.3561 42.6887 42.273 42.4135 42.1321C42.1384 41.9913 41.8949 41.7956 41.6982 41.5572C41.3672 41.2547 40.9992 40.9955 40.6029 40.7858V40.862C40.822 41.0048 41.441 41.4524 41.4601 41.9001C41.4562 42.0104 41.4234 42.1178 41.3649 42.2114C41.3064 42.3051 41.2242 42.3816 41.1267 42.4334C41.1267 42.4334 41.6506 42.8525 41.6315 43.2144C41.6288 43.2797 41.6089 43.3432 41.5738 43.3984C41.5386 43.4536 41.4896 43.4985 41.4315 43.5287C41.4765 43.5858 41.5083 43.652 41.5247 43.7228C41.5412 43.7936 41.5419 43.8671 41.5267 43.9382C41.4866 44.0657 41.42 44.1833 41.3314 44.2834C41.2428 44.3835 41.1341 44.4638 41.0124 44.5192C40.8505 44.6049 40.0601 44.8715 35.9171 44.8715H29.8218V44.9858ZM28.4504 44.7858H35.8695C40.022 44.7858 40.7744 44.5096 40.8791 44.4525C40.9759 44.4105 41.063 44.3491 41.135 44.2721C41.2071 44.1951 41.2626 44.1042 41.2982 44.0049C41.3064 43.9619 41.3056 43.9177 41.2957 43.875C41.2859 43.8324 41.2673 43.7923 41.241 43.7572L41.1458 43.643C41.1391 43.6314 41.1356 43.6182 41.1356 43.6049C41.1356 43.5915 41.1391 43.5783 41.1458 43.5668C41.1384 43.5484 41.1384 43.5279 41.1458 43.5096L41.2696 43.4239C41.3014 43.4083 41.3291 43.3856 41.3505 43.3575C41.372 43.3294 41.3867 43.2967 41.3934 43.262C41.3934 43.0525 41.0982 42.7572 40.9553 42.6334L40.8315 42.5096C40.8256 42.4978 40.8226 42.4847 40.8226 42.4715C40.8226 42.4583 40.8256 42.4453 40.8315 42.4334C40.8263 42.4214 40.8235 42.4084 40.8235 42.3953C40.8235 42.3822 40.8263 42.3692 40.8315 42.3572L40.9839 42.2525C41.2125 42.1001 41.2315 41.9667 41.2315 41.8905C41.2315 41.5572 40.7077 41.1382 40.3839 40.9382C40.3684 40.9194 40.3599 40.8958 40.3599 40.8715C40.3599 40.8472 40.3684 40.8236 40.3839 40.8048L40.441 40.6048C40.4588 40.5874 40.4828 40.5776 40.5077 40.5776C40.5326 40.5776 40.5565 40.5874 40.5743 40.6048C41.0167 40.8366 41.4292 41.1212 41.8029 41.4524C41.9825 41.6548 42.2003 41.8196 42.4439 41.9373C42.6874 42.055 42.9519 42.1233 43.222 42.1382H43.3934C43.3753 42.0918 43.353 42.0472 43.3268 42.0048C42.7744 41.0048 39.7553 38.5477 38.8886 38.5477H38.8219C37.9867 38.9449 37.2057 39.4474 36.4981 40.0429C36.0758 40.4034 35.6197 40.7223 35.1362 40.9953C35.0732 41.0067 35.0087 41.0067 34.9457 40.9953C33.3421 40.8042 31.7518 40.5148 30.1837 40.1286L28.4504 44.7858Z" fill="#020302"/>
<path d="M9.01633 17.6811C8.83622 17.7482 8.68249 17.8715 8.57786 18.0327C8.47324 18.1939 8.42328 18.3845 8.43537 18.5763C8.45996 18.8583 8.58503 19.1222 8.78781 19.3197C8.99059 19.5172 9.25758 19.6353 9.54014 19.6525V19.443C9.54014 19.443 8.58775 19.3382 8.58775 18.5763C8.57655 18.4275 8.6142 18.2791 8.69498 18.1537C8.77577 18.0282 8.89528 17.9325 9.03538 17.8811C9.18171 17.8153 9.34385 17.7929 9.50255 17.8165C9.66124 17.8401 9.80982 17.9088 9.93062 18.0144L10.083 17.8716C9.94112 17.7427 9.76576 17.6565 9.57708 17.6228C9.3884 17.5891 9.19405 17.6093 9.01633 17.6811Z" fill="black"/>
<path d="M9.19584 18.2714C9.16159 18.1967 9.14387 18.1155 9.14387 18.0333C9.14387 17.9511 9.16159 17.8699 9.19584 17.7952L9.01488 17.7476C8.9665 17.8503 8.94141 17.9625 8.94141 18.0761C8.94141 18.1897 8.9665 18.3019 9.01488 18.4047C9.12459 18.583 9.2984 18.7125 9.5006 18.7666L9.54822 18.5571C9.40057 18.5067 9.27566 18.4054 9.19584 18.2714Z" fill="black"/>
<path d="M27.1576 35.8427C23.5194 33.776 20.767 27.3474 18.586 25.5474L9.58594 32.0998C14.6336 38.338 22.0909 44.8905 27.0338 44.8905H33.5386L34.5577 38.7951C31.9963 38.0672 29.5166 37.0779 27.1576 35.8427Z" fill="#00B343"/>
<path d="M33.5414 44.9858H27.0366C22.0746 44.9858 14.6555 38.5476 9.55066 32.1761C9.53321 32.1583 9.52344 32.1344 9.52344 32.1094C9.52344 32.0845 9.53321 32.0606 9.55066 32.0428C9.56943 32.0273 9.593 32.0188 9.61733 32.0188C9.64166 32.0188 9.66523 32.0273 9.684 32.0428C14.7793 38.3857 22.1223 44.7858 27.0176 44.7858H33.4462L34.3986 38.8619C31.879 38.1315 29.4383 37.152 27.1128 35.938C24.8842 34.6809 23.0175 31.8428 21.3984 29.3475C20.6009 27.9976 19.6414 26.7503 18.5413 25.6332C18.5257 25.6159 18.517 25.5935 18.5167 25.5703C18.5165 25.5471 18.5248 25.5245 18.54 25.507C18.5552 25.4894 18.5763 25.478 18.5994 25.475C18.6224 25.4719 18.6458 25.4773 18.6651 25.4903C19.7704 26.6169 20.7303 27.8775 21.5222 29.2427C23.1604 31.7189 25.008 34.538 27.2366 35.7761C29.5791 36.9966 32.0393 37.9762 34.5795 38.7C34.5909 38.7022 34.6018 38.7068 34.6114 38.7133C34.6209 38.7198 34.6291 38.7283 34.6353 38.7381C34.6416 38.7479 34.6458 38.7588 34.6476 38.7703C34.6495 38.7818 34.649 38.7935 34.6462 38.8047L33.6367 44.9001C33.6325 44.9229 33.6209 44.9437 33.6037 44.9592C33.5865 44.9747 33.5646 44.984 33.5414 44.9858Z" fill="#020302"/>
<path d="M48.2438 18.1661C47.054 17.013 45.4585 16.3739 43.8017 16.3864C42.1448 16.399 40.5592 17.0623 39.387 18.2333C38.2147 19.4043 37.5497 20.9891 37.5354 22.646C37.5211 24.3029 38.1586 25.899 39.3104 27.0901L43.7771 31.5568L48.2438 27.0901C49.4239 25.9049 50.0864 24.3006 50.0864 22.6281C50.0864 20.9557 49.4239 19.3513 48.2438 18.1661ZM43.7771 25.49C43.212 25.49 42.6596 25.3225 42.1897 25.0085C41.7199 24.6946 41.3537 24.2483 41.1374 23.7263C40.9212 23.2042 40.8646 22.6297 40.9748 22.0755C41.0851 21.5212 41.3572 21.0121 41.7568 20.6125C42.1564 20.213 42.6655 19.9408 43.2197 19.8306C43.7739 19.7203 44.3484 19.7769 44.8705 19.9932C45.3926 20.2094 45.8388 20.5756 46.1528 21.0455C46.4667 21.5154 46.6343 22.0678 46.6343 22.6329C46.6343 23.3906 46.3333 24.1174 45.7974 24.6532C45.2616 25.189 44.5349 25.49 43.7771 25.49Z" fill="white"/>
<path d="M43.7831 31.6518C43.7725 31.6563 43.7612 31.6586 43.7497 31.6586C43.7383 31.6586 43.7269 31.6563 43.7164 31.6518L39.2497 27.1851C38.0951 25.9734 37.4603 24.3581 37.481 22.6845C37.5016 21.0109 38.1761 19.4118 39.3602 18.229C40.5443 17.0461 42.1441 16.3733 43.8177 16.3544C45.4913 16.3355 47.1059 16.972 48.3165 18.1279C49.5139 19.3308 50.1862 20.9591 50.1862 22.6565C50.1862 24.3539 49.5139 25.9822 48.3165 27.1851L43.8497 31.6518C43.8392 31.6563 43.8278 31.6586 43.8164 31.6586C43.8049 31.6586 43.7936 31.6563 43.7831 31.6518ZM43.7831 16.4136C42.5543 16.4145 41.3533 16.7793 40.3317 17.4622C39.3101 18.145 38.5137 19.1152 38.0429 20.2502C37.5722 21.3853 37.4483 22.6343 37.6868 23.8398C37.9253 25.0452 38.5155 26.1529 39.383 27.0232L43.7831 31.4233L48.1831 27.0232C49.3457 25.8559 49.9984 24.2754 49.9984 22.6279C49.9984 20.9804 49.3457 19.4 48.1831 18.2326C47.6054 17.6549 46.9194 17.1968 46.1644 16.8846C45.4093 16.5725 44.6001 16.4124 43.7831 16.4136ZM43.7831 25.5851C43.1991 25.5851 42.6283 25.4119 42.1428 25.0875C41.6573 24.7631 41.2788 24.302 41.0554 23.7625C40.8319 23.223 40.7735 22.6294 40.8874 22.0567C41.0013 21.484 41.2825 20.9579 41.6954 20.545C42.1083 20.1321 42.6344 19.8509 43.2071 19.737C43.7798 19.6231 44.3734 19.6815 44.9129 19.905C45.4524 20.1285 45.9135 20.5069 46.2379 20.9924C46.5623 21.4779 46.7355 22.0487 46.7355 22.6327C46.7355 23.4157 46.4244 24.1667 45.8707 24.7204C45.3171 25.274 44.5661 25.5851 43.7831 25.5851ZM43.7831 19.8707C43.2368 19.8707 42.7028 20.0327 42.2486 20.3362C41.7944 20.6397 41.4404 21.0711 41.2314 21.5757C41.0223 22.0804 40.9676 22.6357 41.0742 23.1715C41.1808 23.7073 41.4438 24.1994 41.8301 24.5857C42.2163 24.9719 42.7085 25.235 43.2442 25.3415C43.78 25.4481 44.3353 25.3934 44.84 25.1844C45.3447 24.9753 45.776 24.6213 46.0795 24.1671C46.383 23.7129 46.545 23.1789 46.545 22.6327C46.545 21.9002 46.254 21.1977 45.7361 20.6797C45.2181 20.1617 44.5156 19.8707 43.7831 19.8707Z" fill="#020302"/>
</svg>
