<svg width="20" height="20" viewBox="0 0 20 20" fill="none" xmlns="http://www.w3.org/2000/svg">
<g filter="url(#filter0_dd_3463_63733)">
<path fill-rule="evenodd" clip-rule="evenodd" d="M10.2349 1.01655C9.9908 0.772479 9.59513 0.772479 9.35105 1.01655L8.2908 2.07675C8.05292 2.31461 7.71482 2.42295 7.38299 2.36765L5.72905 2.092C5.48896 2.05199 5.24747 2.155 5.11019 2.356C4.97291 2.55699 4.96481 2.8194 5.08942 3.02849L6.29836 5.05681C6.35847 5.15769 6.46725 5.21948 6.58468 5.21948H13.0012C13.1187 5.21948 13.2275 5.15769 13.2875 5.05681L14.4965 3.02849C14.6211 2.8194 14.613 2.55699 14.4757 2.356C14.3385 2.155 14.097 2.05199 13.8569 2.092L12.203 2.36765C11.8711 2.42295 11.533 2.31461 11.2951 2.07675L10.2349 1.01655ZM5.91987 6.16234C5.9826 6.0923 6.07222 6.05281 6.16624 6.05281H13.42C13.514 6.05281 13.6036 6.0923 13.6664 6.16234C14.421 7.00487 15.2979 8.10711 16.0605 9.336C16.8908 10.6739 17.6085 12.1978 17.8619 13.7225C18.1043 15.1803 17.5442 16.4597 16.5819 17.3531C15.6291 18.2376 14.2784 18.7538 12.8695 18.7538H6.71673C5.30791 18.7538 3.95712 18.2376 3.00437 17.3531C2.042 16.4597 1.48201 15.1803 1.72432 13.7225C1.97774 12.1977 2.69542 10.6739 3.52574 9.336C4.28842 8.10711 5.16517 7.00487 5.91987 6.16234ZM10.418 8.9585C10.418 8.61333 10.1381 8.3335 9.79296 8.3335C9.4478 8.3335 9.16796 8.61333 9.16796 8.9585V9.2365C8.8228 9.31525 8.50488 9.45891 8.23946 9.65791C7.81946 9.97291 7.5013 10.4558 7.5013 11.0418C7.5013 11.6278 7.81946 12.1107 8.23946 12.4257C8.6593 12.7406 9.21055 12.9168 9.79296 12.9168C10.131 12.9168 10.413 13.0204 10.5965 13.1579C10.7797 13.2953 10.8346 13.4375 10.8346 13.5418C10.8346 13.6462 10.7797 13.7883 10.5965 13.9257C10.413 14.0632 10.131 14.1668 9.79296 14.1668C9.23596 14.1668 8.88421 13.8993 8.78647 13.6921C8.63938 13.3798 8.26694 13.246 7.9547 13.3932C7.64246 13.5402 7.50862 13.9127 7.65577 14.2249C7.93068 14.8082 8.51072 15.1958 9.16796 15.3464V15.6252C9.16796 15.9703 9.4478 16.2502 9.79296 16.2502C10.1381 16.2502 10.418 15.9703 10.418 15.6252V15.3472C10.7631 15.2684 11.081 15.1247 11.3465 14.9257C11.7665 14.6107 12.0846 14.1278 12.0846 13.5418C12.0846 12.9558 11.7665 12.4729 11.3465 12.1579C10.9266 11.8431 10.3754 11.6668 9.79296 11.6668C9.45488 11.6668 9.17288 11.5632 8.98946 11.4257C8.80621 11.2883 8.7513 11.1462 8.7513 11.0418C8.7513 10.9375 8.80621 10.7953 8.98946 10.6579C9.17288 10.5204 9.45488 10.4168 9.79296 10.4168C10.35 10.4168 10.7017 10.6843 10.7995 10.8916C10.9465 11.2038 11.319 11.3377 11.6312 11.1905C11.9435 11.0434 12.0773 10.671 11.9301 10.3587C11.6552 9.77541 11.0752 9.38783 10.418 9.23725V8.9585Z" fill="#00B343"/>
</g>
<defs>
<filter id="filter0_dd_3463_63733" x="-2.33203" y="0.833496" width="24.25" height="25.9204" filterUnits="userSpaceOnUse" color-interpolation-filters="sRGB">
<feFlood flood-opacity="0" result="BackgroundImageFix"/>
<feColorMatrix in="SourceAlpha" type="matrix" values="0 0 0 0 0 0 0 0 0 0 0 0 0 0 0 0 0 0 127 0" result="hardAlpha"/>
<feOffset dy="4"/>
<feGaussianBlur stdDeviation="2"/>
<feComposite in2="hardAlpha" operator="out"/>
<feColorMatrix type="matrix" values="0 0 0 0 0 0 0 0 0 0 0 0 0 0 0 0 0 0 0.25 0"/>
<feBlend mode="normal" in2="BackgroundImageFix" result="effect1_dropShadow_3463_63733"/>
<feColorMatrix in="SourceAlpha" type="matrix" values="0 0 0 0 0 0 0 0 0 0 0 0 0 0 0 0 0 0 127 0" result="hardAlpha"/>
<feOffset dy="4"/>
<feGaussianBlur stdDeviation="2"/>
<feComposite in2="hardAlpha" operator="out"/>
<feColorMatrix type="matrix" values="0 0 0 0 0 0 0 0 0 0 0 0 0 0 0 0 0 0 0.25 0"/>
<feBlend mode="normal" in2="effect1_dropShadow_3463_63733" result="effect2_dropShadow_3463_63733"/>
<feBlend mode="normal" in="SourceGraphic" in2="effect2_dropShadow_3463_63733" result="shape"/>
</filter>
</defs>
</svg>
